G04 This is an RS-274x file exported by *
G04 gerbv version 2.6A *
G04 More information is available about gerbv at *
G04 http://gerbv.geda-project.org/ *
G04 --End of header info--*
%MOIN*%
%FSLAX34Y34*%
%IPPOS*%
%INBoard Outline*%
G04 --Define apertures--*
%ADD10C,0.0000*%
%ADD11C,0.0100*%
G04 --Start main section--*
G54D10*
G01X0011500Y0004000D02*
G01X0030976Y0004000D01*
G01X0030976Y0004000D02*
G01X0030976Y0031496D01*
G01X0030976Y0031496D02*
G01X0011500Y0031496D01*
G01X0011500Y0031496D02*
G01X0011500Y0004000D01*
G01X0012795Y0024016D02*
G01X0012795Y0024021D01*
G01X0012795Y0024021D02*
G01X0012796Y0024025D01*
G01X0012796Y0024025D02*
G01X0012796Y0024030D01*
G01X0012796Y0024030D02*
G01X0012796Y0024035D01*
G01X0012796Y0024035D02*
G01X0012797Y0024040D01*
G01X0012797Y0024040D02*
G01X0012797Y0024045D01*
G01X0012797Y0024045D02*
G01X0012798Y0024049D01*
G01X0012798Y0024049D02*
G01X0012799Y0024054D01*
G01X0012799Y0024054D02*
G01X0012800Y0024059D01*
G01X0012800Y0024059D02*
G01X0012801Y0024064D01*
G01X0012801Y0024064D02*
G01X0012802Y0024068D01*
G01X0012802Y0024068D02*
G01X0012804Y0024073D01*
G01X0012804Y0024073D02*
G01X0012805Y0024078D01*
G01X0012805Y0024078D02*
G01X0012807Y0024082D01*
G01X0012807Y0024082D02*
G01X0012808Y0024087D01*
G01X0012808Y0024087D02*
G01X0012810Y0024091D01*
G01X0012810Y0024091D02*
G01X0012812Y0024096D01*
G01X0012812Y0024096D02*
G01X0012814Y0024100D01*
G01X0012814Y0024100D02*
G01X0012816Y0024104D01*
G01X0012816Y0024104D02*
G01X0012819Y0024109D01*
G01X0012819Y0024109D02*
G01X0012821Y0024113D01*
G01X0012821Y0024113D02*
G01X0012823Y0024117D01*
G01X0012823Y0024117D02*
G01X0012826Y0024121D01*
G01X0012826Y0024121D02*
G01X0012828Y0024125D01*
G01X0012828Y0024125D02*
G01X0012831Y0024129D01*
G01X0012831Y0024129D02*
G01X0012834Y0024133D01*
G01X0012834Y0024133D02*
G01X0012837Y0024137D01*
G01X0012837Y0024137D02*
G01X0012840Y0024141D01*
G01X0012840Y0024141D02*
G01X0012843Y0024144D01*
G01X0012843Y0024144D02*
G01X0012846Y0024148D01*
G01X0012846Y0024148D02*
G01X0012850Y0024151D01*
G01X0012850Y0024151D02*
G01X0012853Y0024155D01*
G01X0012853Y0024155D02*
G01X0012856Y0024158D01*
G01X0012856Y0024158D02*
G01X0012860Y0024162D01*
G01X0012860Y0024162D02*
G01X0012864Y0024165D01*
G01X0012864Y0024165D02*
G01X0012867Y0024168D01*
G01X0012867Y0024168D02*
G01X0012871Y0024171D01*
G01X0012871Y0024171D02*
G01X0012875Y0024174D01*
G01X0012875Y0024174D02*
G01X0012879Y0024177D01*
G01X0012879Y0024177D02*
G01X0012883Y0024179D01*
G01X0012883Y0024179D02*
G01X0012887Y0024182D01*
G01X0012887Y0024182D02*
G01X0012891Y0024185D01*
G01X0012891Y0024185D02*
G01X0012895Y0024187D01*
G01X0012895Y0024187D02*
G01X0012899Y0024189D01*
G01X0012899Y0024189D02*
G01X0012904Y0024192D01*
G01X0012904Y0024192D02*
G01X0012908Y0024194D01*
G01X0012908Y0024194D02*
G01X0012912Y0024196D01*
G01X0012912Y0024196D02*
G01X0012917Y0024198D01*
G01X0012917Y0024198D02*
G01X0012921Y0024199D01*
G01X0012921Y0024199D02*
G01X0012926Y0024201D01*
G01X0012926Y0024201D02*
G01X0012930Y0024203D01*
G01X0012930Y0024203D02*
G01X0012935Y0024204D01*
G01X0012935Y0024204D02*
G01X0012940Y0024205D01*
G01X0012940Y0024205D02*
G01X0012944Y0024207D01*
G01X0012944Y0024207D02*
G01X0012949Y0024208D01*
G01X0012949Y0024208D02*
G01X0012954Y0024209D01*
G01X0012954Y0024209D02*
G01X0012958Y0024210D01*
G01X0012958Y0024210D02*
G01X0012963Y0024210D01*
G01X0012963Y0024210D02*
G01X0012968Y0024211D01*
G01X0012968Y0024211D02*
G01X0012973Y0024212D01*
G01X0012973Y0024212D02*
G01X0012978Y0024212D01*
G01X0012978Y0024212D02*
G01X0012982Y0024212D01*
G01X0012982Y0024212D02*
G01X0012987Y0024213D01*
G01X0012987Y0024213D02*
G01X0012992Y0024213D01*
G01X0012992Y0024213D02*
G01X0012997Y0024213D01*
G01X0012997Y0024213D02*
G01X0013002Y0024212D01*
G01X0013002Y0024212D02*
G01X0013007Y0024212D01*
G01X0013007Y0024212D02*
G01X0013011Y0024212D01*
G01X0013011Y0024212D02*
G01X0013016Y0024211D01*
G01X0013016Y0024211D02*
G01X0013021Y0024210D01*
G01X0013021Y0024210D02*
G01X0013026Y0024210D01*
G01X0013026Y0024210D02*
G01X0013031Y0024209D01*
G01X0013031Y0024209D02*
G01X0013035Y0024208D01*
G01X0013035Y0024208D02*
G01X0013040Y0024207D01*
G01X0013040Y0024207D02*
G01X0013045Y0024205D01*
G01X0013045Y0024205D02*
G01X0013049Y0024204D01*
G01X0013049Y0024204D02*
G01X0013054Y0024203D01*
G01X0013054Y0024203D02*
G01X0013058Y0024201D01*
G01X0013058Y0024201D02*
G01X0013063Y0024199D01*
G01X0013063Y0024199D02*
G01X0013067Y0024198D01*
G01X0013067Y0024198D02*
G01X0013072Y0024196D01*
G01X0013072Y0024196D02*
G01X0013076Y0024194D01*
G01X0013076Y0024194D02*
G01X0013081Y0024192D01*
G01X0013081Y0024192D02*
G01X0013085Y0024189D01*
G01X0013085Y0024189D02*
G01X0013089Y0024187D01*
G01X0013089Y0024187D02*
G01X0013093Y0024185D01*
G01X0013093Y0024185D02*
G01X0013097Y0024182D01*
G01X0013097Y0024182D02*
G01X0013101Y0024179D01*
G01X0013101Y0024179D02*
G01X0013105Y0024177D01*
G01X0013105Y0024177D02*
G01X0013109Y0024174D01*
G01X0013109Y0024174D02*
G01X0013113Y0024171D01*
G01X0013113Y0024171D02*
G01X0013117Y0024168D01*
G01X0013117Y0024168D02*
G01X0013121Y0024165D01*
G01X0013121Y0024165D02*
G01X0013124Y0024162D01*
G01X0013124Y0024162D02*
G01X0013128Y0024158D01*
G01X0013128Y0024158D02*
G01X0013131Y0024155D01*
G01X0013131Y0024155D02*
G01X0013135Y0024151D01*
G01X0013135Y0024151D02*
G01X0013138Y0024148D01*
G01X0013138Y0024148D02*
G01X0013141Y0024144D01*
G01X0013141Y0024144D02*
G01X0013144Y0024141D01*
G01X0013144Y0024141D02*
G01X0013147Y0024137D01*
G01X0013147Y0024137D02*
G01X0013150Y0024133D01*
G01X0013150Y0024133D02*
G01X0013153Y0024129D01*
G01X0013153Y0024129D02*
G01X0013156Y0024125D01*
G01X0013156Y0024125D02*
G01X0013158Y0024121D01*
G01X0013158Y0024121D02*
G01X0013161Y0024117D01*
G01X0013161Y0024117D02*
G01X0013163Y0024113D01*
G01X0013163Y0024113D02*
G01X0013166Y0024109D01*
G01X0013166Y0024109D02*
G01X0013168Y0024104D01*
G01X0013168Y0024104D02*
G01X0013170Y0024100D01*
G01X0013170Y0024100D02*
G01X0013172Y0024096D01*
G01X0013172Y0024096D02*
G01X0013174Y0024091D01*
G01X0013174Y0024091D02*
G01X0013176Y0024087D01*
G01X0013176Y0024087D02*
G01X0013177Y0024082D01*
G01X0013177Y0024082D02*
G01X0013179Y0024078D01*
G01X0013179Y0024078D02*
G01X0013181Y0024073D01*
G01X0013181Y0024073D02*
G01X0013182Y0024068D01*
G01X0013182Y0024068D02*
G01X0013183Y0024064D01*
G01X0013183Y0024064D02*
G01X0013184Y0024059D01*
G01X0013184Y0024059D02*
G01X0013185Y0024054D01*
G01X0013185Y0024054D02*
G01X0013186Y0024049D01*
G01X0013186Y0024049D02*
G01X0013187Y0024045D01*
G01X0013187Y0024045D02*
G01X0013188Y0024040D01*
G01X0013188Y0024040D02*
G01X0013188Y0024035D01*
G01X0013188Y0024035D02*
G01X0013188Y0024030D01*
G01X0013188Y0024030D02*
G01X0013189Y0024025D01*
G01X0013189Y0024025D02*
G01X0013189Y0024021D01*
G01X0013189Y0024021D02*
G01X0013189Y0024016D01*
G01X0013189Y0024016D02*
G01X0013189Y0024011D01*
G01X0013189Y0024011D02*
G01X0013189Y0024006D01*
G01X0013189Y0024006D02*
G01X0013188Y0024001D01*
G01X0013188Y0024001D02*
G01X0013188Y0023996D01*
G01X0013188Y0023996D02*
G01X0013188Y0023992D01*
G01X0013188Y0023992D02*
G01X0013187Y0023987D01*
G01X0013187Y0023987D02*
G01X0013186Y0023982D01*
G01X0013186Y0023982D02*
G01X0013185Y0023977D01*
G01X0013185Y0023977D02*
G01X0013184Y0023973D01*
G01X0013184Y0023973D02*
G01X0013183Y0023968D01*
G01X0013183Y0023968D02*
G01X0013182Y0023963D01*
G01X0013182Y0023963D02*
G01X0013181Y0023959D01*
G01X0013181Y0023959D02*
G01X0013179Y0023954D01*
G01X0013179Y0023954D02*
G01X0013177Y0023949D01*
G01X0013177Y0023949D02*
G01X0013176Y0023945D01*
G01X0013176Y0023945D02*
G01X0013174Y0023940D01*
G01X0013174Y0023940D02*
G01X0013172Y0023936D01*
G01X0013172Y0023936D02*
G01X0013170Y0023932D01*
G01X0013170Y0023932D02*
G01X0013168Y0023927D01*
G01X0013168Y0023927D02*
G01X0013166Y0023923D01*
G01X0013166Y0023923D02*
G01X0013163Y0023919D01*
G01X0013163Y0023919D02*
G01X0013161Y0023915D01*
G01X0013161Y0023915D02*
G01X0013158Y0023910D01*
G01X0013158Y0023910D02*
G01X0013156Y0023906D01*
G01X0013156Y0023906D02*
G01X0013153Y0023902D01*
G01X0013153Y0023902D02*
G01X0013150Y0023898D01*
G01X0013150Y0023898D02*
G01X0013147Y0023895D01*
G01X0013147Y0023895D02*
G01X0013144Y0023891D01*
G01X0013144Y0023891D02*
G01X0013141Y0023887D01*
G01X0013141Y0023887D02*
G01X0013138Y0023884D01*
G01X0013138Y0023884D02*
G01X0013135Y0023880D01*
G01X0013135Y0023880D02*
G01X0013131Y0023877D01*
G01X0013131Y0023877D02*
G01X0013128Y0023873D01*
G01X0013128Y0023873D02*
G01X0013124Y0023870D01*
G01X0013124Y0023870D02*
G01X0013121Y0023867D01*
G01X0013121Y0023867D02*
G01X0013117Y0023864D01*
G01X0013117Y0023864D02*
G01X0013113Y0023861D01*
G01X0013113Y0023861D02*
G01X0013109Y0023858D01*
G01X0013109Y0023858D02*
G01X0013105Y0023855D01*
G01X0013105Y0023855D02*
G01X0013101Y0023852D01*
G01X0013101Y0023852D02*
G01X0013097Y0023849D01*
G01X0013097Y0023849D02*
G01X0013093Y0023847D01*
G01X0013093Y0023847D02*
G01X0013089Y0023844D01*
G01X0013089Y0023844D02*
G01X0013085Y0023842D01*
G01X0013085Y0023842D02*
G01X0013081Y0023840D01*
G01X0013081Y0023840D02*
G01X0013076Y0023838D01*
G01X0013076Y0023838D02*
G01X0013072Y0023836D01*
G01X0013072Y0023836D02*
G01X0013067Y0023834D01*
G01X0013067Y0023834D02*
G01X0013063Y0023832D01*
G01X0013063Y0023832D02*
G01X0013058Y0023830D01*
G01X0013058Y0023830D02*
G01X0013054Y0023829D01*
G01X0013054Y0023829D02*
G01X0013049Y0023827D01*
G01X0013049Y0023827D02*
G01X0013045Y0023826D01*
G01X0013045Y0023826D02*
G01X0013040Y0023825D01*
G01X0013040Y0023825D02*
G01X0013035Y0023824D01*
G01X0013035Y0023824D02*
G01X0013031Y0023823D01*
G01X0013031Y0023823D02*
G01X0013026Y0023822D01*
G01X0013026Y0023822D02*
G01X0013021Y0023821D01*
G01X0013021Y0023821D02*
G01X0013016Y0023820D01*
G01X0013016Y0023820D02*
G01X0013011Y0023820D01*
G01X0013011Y0023820D02*
G01X0013007Y0023819D01*
G01X0013007Y0023819D02*
G01X0013002Y0023819D01*
G01X0013002Y0023819D02*
G01X0012997Y0023819D01*
G01X0012997Y0023819D02*
G01X0012992Y0023819D01*
G01X0012992Y0023819D02*
G01X0012987Y0023819D01*
G01X0012987Y0023819D02*
G01X0012982Y0023819D01*
G01X0012982Y0023819D02*
G01X0012978Y0023819D01*
G01X0012978Y0023819D02*
G01X0012973Y0023820D01*
G01X0012973Y0023820D02*
G01X0012968Y0023820D01*
G01X0012968Y0023820D02*
G01X0012963Y0023821D01*
G01X0012963Y0023821D02*
G01X0012958Y0023822D01*
G01X0012958Y0023822D02*
G01X0012954Y0023823D01*
G01X0012954Y0023823D02*
G01X0012949Y0023824D01*
G01X0012949Y0023824D02*
G01X0012944Y0023825D01*
G01X0012944Y0023825D02*
G01X0012940Y0023826D01*
G01X0012940Y0023826D02*
G01X0012935Y0023827D01*
G01X0012935Y0023827D02*
G01X0012930Y0023829D01*
G01X0012930Y0023829D02*
G01X0012926Y0023830D01*
G01X0012926Y0023830D02*
G01X0012921Y0023832D01*
G01X0012921Y0023832D02*
G01X0012917Y0023834D01*
G01X0012917Y0023834D02*
G01X0012912Y0023836D01*
G01X0012912Y0023836D02*
G01X0012908Y0023838D01*
G01X0012908Y0023838D02*
G01X0012904Y0023840D01*
G01X0012904Y0023840D02*
G01X0012899Y0023842D01*
G01X0012899Y0023842D02*
G01X0012895Y0023844D01*
G01X0012895Y0023844D02*
G01X0012891Y0023847D01*
G01X0012891Y0023847D02*
G01X0012887Y0023849D01*
G01X0012887Y0023849D02*
G01X0012883Y0023852D01*
G01X0012883Y0023852D02*
G01X0012879Y0023855D01*
G01X0012879Y0023855D02*
G01X0012875Y0023858D01*
G01X0012875Y0023858D02*
G01X0012871Y0023861D01*
G01X0012871Y0023861D02*
G01X0012867Y0023864D01*
G01X0012867Y0023864D02*
G01X0012864Y0023867D01*
G01X0012864Y0023867D02*
G01X0012860Y0023870D01*
G01X0012860Y0023870D02*
G01X0012856Y0023873D01*
G01X0012856Y0023873D02*
G01X0012853Y0023877D01*
G01X0012853Y0023877D02*
G01X0012850Y0023880D01*
G01X0012850Y0023880D02*
G01X0012846Y0023884D01*
G01X0012846Y0023884D02*
G01X0012843Y0023887D01*
G01X0012843Y0023887D02*
G01X0012840Y0023891D01*
G01X0012840Y0023891D02*
G01X0012837Y0023895D01*
G01X0012837Y0023895D02*
G01X0012834Y0023898D01*
G01X0012834Y0023898D02*
G01X0012831Y0023902D01*
G01X0012831Y0023902D02*
G01X0012828Y0023906D01*
G01X0012828Y0023906D02*
G01X0012826Y0023910D01*
G01X0012826Y0023910D02*
G01X0012823Y0023915D01*
G01X0012823Y0023915D02*
G01X0012821Y0023919D01*
G01X0012821Y0023919D02*
G01X0012819Y0023923D01*
G01X0012819Y0023923D02*
G01X0012816Y0023927D01*
G01X0012816Y0023927D02*
G01X0012814Y0023932D01*
G01X0012814Y0023932D02*
G01X0012812Y0023936D01*
G01X0012812Y0023936D02*
G01X0012810Y0023940D01*
G01X0012810Y0023940D02*
G01X0012808Y0023945D01*
G01X0012808Y0023945D02*
G01X0012807Y0023949D01*
G01X0012807Y0023949D02*
G01X0012805Y0023954D01*
G01X0012805Y0023954D02*
G01X0012804Y0023959D01*
G01X0012804Y0023959D02*
G01X0012802Y0023963D01*
G01X0012802Y0023963D02*
G01X0012801Y0023968D01*
G01X0012801Y0023968D02*
G01X0012800Y0023973D01*
G01X0012800Y0023973D02*
G01X0012799Y0023977D01*
G01X0012799Y0023977D02*
G01X0012798Y0023982D01*
G01X0012798Y0023982D02*
G01X0012797Y0023987D01*
G01X0012797Y0023987D02*
G01X0012797Y0023992D01*
G01X0012797Y0023992D02*
G01X0012796Y0023996D01*
G01X0012796Y0023996D02*
G01X0012796Y0024001D01*
G01X0012796Y0024001D02*
G01X0012796Y0024006D01*
G01X0012796Y0024006D02*
G01X0012795Y0024011D01*
G01X0012795Y0024011D02*
G01X0012795Y0024016D01*
G01X0012795Y0013386D02*
G01X0012795Y0013391D01*
G01X0012795Y0013391D02*
G01X0012796Y0013395D01*
G01X0012796Y0013395D02*
G01X0012796Y0013400D01*
G01X0012796Y0013400D02*
G01X0012796Y0013405D01*
G01X0012796Y0013405D02*
G01X0012797Y0013410D01*
G01X0012797Y0013410D02*
G01X0012797Y0013415D01*
G01X0012797Y0013415D02*
G01X0012798Y0013419D01*
G01X0012798Y0013419D02*
G01X0012799Y0013424D01*
G01X0012799Y0013424D02*
G01X0012800Y0013429D01*
G01X0012800Y0013429D02*
G01X0012801Y0013434D01*
G01X0012801Y0013434D02*
G01X0012802Y0013438D01*
G01X0012802Y0013438D02*
G01X0012804Y0013443D01*
G01X0012804Y0013443D02*
G01X0012805Y0013448D01*
G01X0012805Y0013448D02*
G01X0012807Y0013452D01*
G01X0012807Y0013452D02*
G01X0012808Y0013457D01*
G01X0012808Y0013457D02*
G01X0012810Y0013461D01*
G01X0012810Y0013461D02*
G01X0012812Y0013466D01*
G01X0012812Y0013466D02*
G01X0012814Y0013470D01*
G01X0012814Y0013470D02*
G01X0012816Y0013474D01*
G01X0012816Y0013474D02*
G01X0012819Y0013479D01*
G01X0012819Y0013479D02*
G01X0012821Y0013483D01*
G01X0012821Y0013483D02*
G01X0012823Y0013487D01*
G01X0012823Y0013487D02*
G01X0012826Y0013491D01*
G01X0012826Y0013491D02*
G01X0012828Y0013495D01*
G01X0012828Y0013495D02*
G01X0012831Y0013499D01*
G01X0012831Y0013499D02*
G01X0012834Y0013503D01*
G01X0012834Y0013503D02*
G01X0012837Y0013507D01*
G01X0012837Y0013507D02*
G01X0012840Y0013511D01*
G01X0012840Y0013511D02*
G01X0012843Y0013514D01*
G01X0012843Y0013514D02*
G01X0012846Y0013518D01*
G01X0012846Y0013518D02*
G01X0012850Y0013522D01*
G01X0012850Y0013522D02*
G01X0012853Y0013525D01*
G01X0012853Y0013525D02*
G01X0012856Y0013528D01*
G01X0012856Y0013528D02*
G01X0012860Y0013532D01*
G01X0012860Y0013532D02*
G01X0012864Y0013535D01*
G01X0012864Y0013535D02*
G01X0012867Y0013538D01*
G01X0012867Y0013538D02*
G01X0012871Y0013541D01*
G01X0012871Y0013541D02*
G01X0012875Y0013544D01*
G01X0012875Y0013544D02*
G01X0012879Y0013547D01*
G01X0012879Y0013547D02*
G01X0012883Y0013550D01*
G01X0012883Y0013550D02*
G01X0012887Y0013552D01*
G01X0012887Y0013552D02*
G01X0012891Y0013555D01*
G01X0012891Y0013555D02*
G01X0012895Y0013557D01*
G01X0012895Y0013557D02*
G01X0012899Y0013559D01*
G01X0012899Y0013559D02*
G01X0012904Y0013562D01*
G01X0012904Y0013562D02*
G01X0012908Y0013564D01*
G01X0012908Y0013564D02*
G01X0012912Y0013566D01*
G01X0012912Y0013566D02*
G01X0012917Y0013568D01*
G01X0012917Y0013568D02*
G01X0012921Y0013569D01*
G01X0012921Y0013569D02*
G01X0012926Y0013571D01*
G01X0012926Y0013571D02*
G01X0012930Y0013573D01*
G01X0012930Y0013573D02*
G01X0012935Y0013574D01*
G01X0012935Y0013574D02*
G01X0012940Y0013576D01*
G01X0012940Y0013576D02*
G01X0012944Y0013577D01*
G01X0012944Y0013577D02*
G01X0012949Y0013578D01*
G01X0012949Y0013578D02*
G01X0012954Y0013579D01*
G01X0012954Y0013579D02*
G01X0012958Y0013580D01*
G01X0012958Y0013580D02*
G01X0012963Y0013581D01*
G01X0012963Y0013581D02*
G01X0012968Y0013581D01*
G01X0012968Y0013581D02*
G01X0012973Y0013582D01*
G01X0012973Y0013582D02*
G01X0012978Y0013582D01*
G01X0012978Y0013582D02*
G01X0012982Y0013582D01*
G01X0012982Y0013582D02*
G01X0012987Y0013583D01*
G01X0012987Y0013583D02*
G01X0012992Y0013583D01*
G01X0012992Y0013583D02*
G01X0012997Y0013583D01*
G01X0012997Y0013583D02*
G01X0013002Y0013582D01*
G01X0013002Y0013582D02*
G01X0013007Y0013582D01*
G01X0013007Y0013582D02*
G01X0013011Y0013582D01*
G01X0013011Y0013582D02*
G01X0013016Y0013581D01*
G01X0013016Y0013581D02*
G01X0013021Y0013581D01*
G01X0013021Y0013581D02*
G01X0013026Y0013580D01*
G01X0013026Y0013580D02*
G01X0013031Y0013579D01*
G01X0013031Y0013579D02*
G01X0013035Y0013578D01*
G01X0013035Y0013578D02*
G01X0013040Y0013577D01*
G01X0013040Y0013577D02*
G01X0013045Y0013576D01*
G01X0013045Y0013576D02*
G01X0013049Y0013574D01*
G01X0013049Y0013574D02*
G01X0013054Y0013573D01*
G01X0013054Y0013573D02*
G01X0013058Y0013571D01*
G01X0013058Y0013571D02*
G01X0013063Y0013569D01*
G01X0013063Y0013569D02*
G01X0013067Y0013568D01*
G01X0013067Y0013568D02*
G01X0013072Y0013566D01*
G01X0013072Y0013566D02*
G01X0013076Y0013564D01*
G01X0013076Y0013564D02*
G01X0013081Y0013562D01*
G01X0013081Y0013562D02*
G01X0013085Y0013559D01*
G01X0013085Y0013559D02*
G01X0013089Y0013557D01*
G01X0013089Y0013557D02*
G01X0013093Y0013555D01*
G01X0013093Y0013555D02*
G01X0013097Y0013552D01*
G01X0013097Y0013552D02*
G01X0013101Y0013550D01*
G01X0013101Y0013550D02*
G01X0013105Y0013547D01*
G01X0013105Y0013547D02*
G01X0013109Y0013544D01*
G01X0013109Y0013544D02*
G01X0013113Y0013541D01*
G01X0013113Y0013541D02*
G01X0013117Y0013538D01*
G01X0013117Y0013538D02*
G01X0013121Y0013535D01*
G01X0013121Y0013535D02*
G01X0013124Y0013532D01*
G01X0013124Y0013532D02*
G01X0013128Y0013528D01*
G01X0013128Y0013528D02*
G01X0013131Y0013525D01*
G01X0013131Y0013525D02*
G01X0013135Y0013522D01*
G01X0013135Y0013522D02*
G01X0013138Y0013518D01*
G01X0013138Y0013518D02*
G01X0013141Y0013514D01*
G01X0013141Y0013514D02*
G01X0013144Y0013511D01*
G01X0013144Y0013511D02*
G01X0013147Y0013507D01*
G01X0013147Y0013507D02*
G01X0013150Y0013503D01*
G01X0013150Y0013503D02*
G01X0013153Y0013499D01*
G01X0013153Y0013499D02*
G01X0013156Y0013495D01*
G01X0013156Y0013495D02*
G01X0013158Y0013491D01*
G01X0013158Y0013491D02*
G01X0013161Y0013487D01*
G01X0013161Y0013487D02*
G01X0013163Y0013483D01*
G01X0013163Y0013483D02*
G01X0013166Y0013479D01*
G01X0013166Y0013479D02*
G01X0013168Y0013474D01*
G01X0013168Y0013474D02*
G01X0013170Y0013470D01*
G01X0013170Y0013470D02*
G01X0013172Y0013466D01*
G01X0013172Y0013466D02*
G01X0013174Y0013461D01*
G01X0013174Y0013461D02*
G01X0013176Y0013457D01*
G01X0013176Y0013457D02*
G01X0013177Y0013452D01*
G01X0013177Y0013452D02*
G01X0013179Y0013448D01*
G01X0013179Y0013448D02*
G01X0013181Y0013443D01*
G01X0013181Y0013443D02*
G01X0013182Y0013438D01*
G01X0013182Y0013438D02*
G01X0013183Y0013434D01*
G01X0013183Y0013434D02*
G01X0013184Y0013429D01*
G01X0013184Y0013429D02*
G01X0013185Y0013424D01*
G01X0013185Y0013424D02*
G01X0013186Y0013419D01*
G01X0013186Y0013419D02*
G01X0013187Y0013415D01*
G01X0013187Y0013415D02*
G01X0013188Y0013410D01*
G01X0013188Y0013410D02*
G01X0013188Y0013405D01*
G01X0013188Y0013405D02*
G01X0013188Y0013400D01*
G01X0013188Y0013400D02*
G01X0013189Y0013395D01*
G01X0013189Y0013395D02*
G01X0013189Y0013391D01*
G01X0013189Y0013391D02*
G01X0013189Y0013386D01*
G01X0013189Y0013386D02*
G01X0013189Y0013381D01*
G01X0013189Y0013381D02*
G01X0013189Y0013376D01*
G01X0013189Y0013376D02*
G01X0013188Y0013371D01*
G01X0013188Y0013371D02*
G01X0013188Y0013367D01*
G01X0013188Y0013367D02*
G01X0013188Y0013362D01*
G01X0013188Y0013362D02*
G01X0013187Y0013357D01*
G01X0013187Y0013357D02*
G01X0013186Y0013352D01*
G01X0013186Y0013352D02*
G01X0013185Y0013347D01*
G01X0013185Y0013347D02*
G01X0013184Y0013343D01*
G01X0013184Y0013343D02*
G01X0013183Y0013338D01*
G01X0013183Y0013338D02*
G01X0013182Y0013333D01*
G01X0013182Y0013333D02*
G01X0013181Y0013329D01*
G01X0013181Y0013329D02*
G01X0013179Y0013324D01*
G01X0013179Y0013324D02*
G01X0013177Y0013320D01*
G01X0013177Y0013320D02*
G01X0013176Y0013315D01*
G01X0013176Y0013315D02*
G01X0013174Y0013311D01*
G01X0013174Y0013311D02*
G01X0013172Y0013306D01*
G01X0013172Y0013306D02*
G01X0013170Y0013302D01*
G01X0013170Y0013302D02*
G01X0013168Y0013297D01*
G01X0013168Y0013297D02*
G01X0013166Y0013293D01*
G01X0013166Y0013293D02*
G01X0013163Y0013289D01*
G01X0013163Y0013289D02*
G01X0013161Y0013285D01*
G01X0013161Y0013285D02*
G01X0013158Y0013281D01*
G01X0013158Y0013281D02*
G01X0013156Y0013276D01*
G01X0013156Y0013276D02*
G01X0013153Y0013272D01*
G01X0013153Y0013272D02*
G01X0013150Y0013269D01*
G01X0013150Y0013269D02*
G01X0013147Y0013265D01*
G01X0013147Y0013265D02*
G01X0013144Y0013261D01*
G01X0013144Y0013261D02*
G01X0013141Y0013257D01*
G01X0013141Y0013257D02*
G01X0013138Y0013254D01*
G01X0013138Y0013254D02*
G01X0013135Y0013250D01*
G01X0013135Y0013250D02*
G01X0013131Y0013247D01*
G01X0013131Y0013247D02*
G01X0013128Y0013243D01*
G01X0013128Y0013243D02*
G01X0013124Y0013240D01*
G01X0013124Y0013240D02*
G01X0013121Y0013237D01*
G01X0013121Y0013237D02*
G01X0013117Y0013234D01*
G01X0013117Y0013234D02*
G01X0013113Y0013231D01*
G01X0013113Y0013231D02*
G01X0013109Y0013228D01*
G01X0013109Y0013228D02*
G01X0013105Y0013225D01*
G01X0013105Y0013225D02*
G01X0013101Y0013222D01*
G01X0013101Y0013222D02*
G01X0013097Y0013220D01*
G01X0013097Y0013220D02*
G01X0013093Y0013217D01*
G01X0013093Y0013217D02*
G01X0013089Y0013215D01*
G01X0013089Y0013215D02*
G01X0013085Y0013212D01*
G01X0013085Y0013212D02*
G01X0013081Y0013210D01*
G01X0013081Y0013210D02*
G01X0013076Y0013208D01*
G01X0013076Y0013208D02*
G01X0013072Y0013206D01*
G01X0013072Y0013206D02*
G01X0013067Y0013204D01*
G01X0013067Y0013204D02*
G01X0013063Y0013202D01*
G01X0013063Y0013202D02*
G01X0013058Y0013200D01*
G01X0013058Y0013200D02*
G01X0013054Y0013199D01*
G01X0013054Y0013199D02*
G01X0013049Y0013197D01*
G01X0013049Y0013197D02*
G01X0013045Y0013196D01*
G01X0013045Y0013196D02*
G01X0013040Y0013195D01*
G01X0013040Y0013195D02*
G01X0013035Y0013194D01*
G01X0013035Y0013194D02*
G01X0013031Y0013193D01*
G01X0013031Y0013193D02*
G01X0013026Y0013192D01*
G01X0013026Y0013192D02*
G01X0013021Y0013191D01*
G01X0013021Y0013191D02*
G01X0013016Y0013190D01*
G01X0013016Y0013190D02*
G01X0013011Y0013190D01*
G01X0013011Y0013190D02*
G01X0013007Y0013190D01*
G01X0013007Y0013190D02*
G01X0013002Y0013189D01*
G01X0013002Y0013189D02*
G01X0012997Y0013189D01*
G01X0012997Y0013189D02*
G01X0012992Y0013189D01*
G01X0012992Y0013189D02*
G01X0012987Y0013189D01*
G01X0012987Y0013189D02*
G01X0012982Y0013189D01*
G01X0012982Y0013189D02*
G01X0012978Y0013190D01*
G01X0012978Y0013190D02*
G01X0012973Y0013190D01*
G01X0012973Y0013190D02*
G01X0012968Y0013190D01*
G01X0012968Y0013190D02*
G01X0012963Y0013191D01*
G01X0012963Y0013191D02*
G01X0012958Y0013192D01*
G01X0012958Y0013192D02*
G01X0012954Y0013193D01*
G01X0012954Y0013193D02*
G01X0012949Y0013194D01*
G01X0012949Y0013194D02*
G01X0012944Y0013195D01*
G01X0012944Y0013195D02*
G01X0012940Y0013196D01*
G01X0012940Y0013196D02*
G01X0012935Y0013197D01*
G01X0012935Y0013197D02*
G01X0012930Y0013199D01*
G01X0012930Y0013199D02*
G01X0012926Y0013200D01*
G01X0012926Y0013200D02*
G01X0012921Y0013202D01*
G01X0012921Y0013202D02*
G01X0012917Y0013204D01*
G01X0012917Y0013204D02*
G01X0012912Y0013206D01*
G01X0012912Y0013206D02*
G01X0012908Y0013208D01*
G01X0012908Y0013208D02*
G01X0012904Y0013210D01*
G01X0012904Y0013210D02*
G01X0012899Y0013212D01*
G01X0012899Y0013212D02*
G01X0012895Y0013215D01*
G01X0012895Y0013215D02*
G01X0012891Y0013217D01*
G01X0012891Y0013217D02*
G01X0012887Y0013220D01*
G01X0012887Y0013220D02*
G01X0012883Y0013222D01*
G01X0012883Y0013222D02*
G01X0012879Y0013225D01*
G01X0012879Y0013225D02*
G01X0012875Y0013228D01*
G01X0012875Y0013228D02*
G01X0012871Y0013231D01*
G01X0012871Y0013231D02*
G01X0012867Y0013234D01*
G01X0012867Y0013234D02*
G01X0012864Y0013237D01*
G01X0012864Y0013237D02*
G01X0012860Y0013240D01*
G01X0012860Y0013240D02*
G01X0012856Y0013243D01*
G01X0012856Y0013243D02*
G01X0012853Y0013247D01*
G01X0012853Y0013247D02*
G01X0012850Y0013250D01*
G01X0012850Y0013250D02*
G01X0012846Y0013254D01*
G01X0012846Y0013254D02*
G01X0012843Y0013257D01*
G01X0012843Y0013257D02*
G01X0012840Y0013261D01*
G01X0012840Y0013261D02*
G01X0012837Y0013265D01*
G01X0012837Y0013265D02*
G01X0012834Y0013269D01*
G01X0012834Y0013269D02*
G01X0012831Y0013272D01*
G01X0012831Y0013272D02*
G01X0012828Y0013276D01*
G01X0012828Y0013276D02*
G01X0012826Y0013281D01*
G01X0012826Y0013281D02*
G01X0012823Y0013285D01*
G01X0012823Y0013285D02*
G01X0012821Y0013289D01*
G01X0012821Y0013289D02*
G01X0012819Y0013293D01*
G01X0012819Y0013293D02*
G01X0012816Y0013297D01*
G01X0012816Y0013297D02*
G01X0012814Y0013302D01*
G01X0012814Y0013302D02*
G01X0012812Y0013306D01*
G01X0012812Y0013306D02*
G01X0012810Y0013311D01*
G01X0012810Y0013311D02*
G01X0012808Y0013315D01*
G01X0012808Y0013315D02*
G01X0012807Y0013320D01*
G01X0012807Y0013320D02*
G01X0012805Y0013324D01*
G01X0012805Y0013324D02*
G01X0012804Y0013329D01*
G01X0012804Y0013329D02*
G01X0012802Y0013333D01*
G01X0012802Y0013333D02*
G01X0012801Y0013338D01*
G01X0012801Y0013338D02*
G01X0012800Y0013343D01*
G01X0012800Y0013343D02*
G01X0012799Y0013347D01*
G01X0012799Y0013347D02*
G01X0012798Y0013352D01*
G01X0012798Y0013352D02*
G01X0012797Y0013357D01*
G01X0012797Y0013357D02*
G01X0012797Y0013362D01*
G01X0012797Y0013362D02*
G01X0012796Y0013367D01*
G01X0012796Y0013367D02*
G01X0012796Y0013371D01*
G01X0012796Y0013371D02*
G01X0012796Y0013376D01*
G01X0012796Y0013376D02*
G01X0012795Y0013381D01*
G01X0012795Y0013381D02*
G01X0012795Y0013386D01*
G01X0029331Y0012205D02*
G01X0029331Y0012210D01*
G01X0029331Y0012210D02*
G01X0029331Y0012214D01*
G01X0029331Y0012214D02*
G01X0029331Y0012219D01*
G01X0029331Y0012219D02*
G01X0029332Y0012224D01*
G01X0029332Y0012224D02*
G01X0029332Y0012229D01*
G01X0029332Y0012229D02*
G01X0029333Y0012234D01*
G01X0029333Y0012234D02*
G01X0029334Y0012238D01*
G01X0029334Y0012238D02*
G01X0029334Y0012243D01*
G01X0029334Y0012243D02*
G01X0029335Y0012248D01*
G01X0029335Y0012248D02*
G01X0029337Y0012253D01*
G01X0029337Y0012253D02*
G01X0029338Y0012257D01*
G01X0029338Y0012257D02*
G01X0029339Y0012262D01*
G01X0029339Y0012262D02*
G01X0029341Y0012266D01*
G01X0029341Y0012266D02*
G01X0029342Y0012271D01*
G01X0029342Y0012271D02*
G01X0029344Y0012276D01*
G01X0029344Y0012276D02*
G01X0029346Y0012280D01*
G01X0029346Y0012280D02*
G01X0029348Y0012284D01*
G01X0029348Y0012284D02*
G01X0029350Y0012289D01*
G01X0029350Y0012289D02*
G01X0029352Y0012293D01*
G01X0029352Y0012293D02*
G01X0029354Y0012298D01*
G01X0029354Y0012298D02*
G01X0029356Y0012302D01*
G01X0029356Y0012302D02*
G01X0029359Y0012306D01*
G01X0029359Y0012306D02*
G01X0029361Y0012310D01*
G01X0029361Y0012310D02*
G01X0029364Y0012314D01*
G01X0029364Y0012314D02*
G01X0029367Y0012318D01*
G01X0029367Y0012318D02*
G01X0029369Y0012322D01*
G01X0029369Y0012322D02*
G01X0029372Y0012326D01*
G01X0029372Y0012326D02*
G01X0029375Y0012330D01*
G01X0029375Y0012330D02*
G01X0029379Y0012333D01*
G01X0029379Y0012333D02*
G01X0029382Y0012337D01*
G01X0029382Y0012337D02*
G01X0029385Y0012340D01*
G01X0029385Y0012340D02*
G01X0029388Y0012344D01*
G01X0029388Y0012344D02*
G01X0029392Y0012347D01*
G01X0029392Y0012347D02*
G01X0029395Y0012351D01*
G01X0029395Y0012351D02*
G01X0029399Y0012354D01*
G01X0029399Y0012354D02*
G01X0029403Y0012357D01*
G01X0029403Y0012357D02*
G01X0029406Y0012360D01*
G01X0029406Y0012360D02*
G01X0029410Y0012363D01*
G01X0029410Y0012363D02*
G01X0029414Y0012366D01*
G01X0029414Y0012366D02*
G01X0029418Y0012368D01*
G01X0029418Y0012368D02*
G01X0029422Y0012371D01*
G01X0029422Y0012371D02*
G01X0029426Y0012374D01*
G01X0029426Y0012374D02*
G01X0029431Y0012376D01*
G01X0029431Y0012376D02*
G01X0029435Y0012378D01*
G01X0029435Y0012378D02*
G01X0029439Y0012381D01*
G01X0029439Y0012381D02*
G01X0029443Y0012383D01*
G01X0029443Y0012383D02*
G01X0029448Y0012385D01*
G01X0029448Y0012385D02*
G01X0029452Y0012387D01*
G01X0029452Y0012387D02*
G01X0029457Y0012388D01*
G01X0029457Y0012388D02*
G01X0029461Y0012390D01*
G01X0029461Y0012390D02*
G01X0029466Y0012392D01*
G01X0029466Y0012392D02*
G01X0029470Y0012393D01*
G01X0029470Y0012393D02*
G01X0029475Y0012394D01*
G01X0029475Y0012394D02*
G01X0029480Y0012396D01*
G01X0029480Y0012396D02*
G01X0029484Y0012397D01*
G01X0029484Y0012397D02*
G01X0029489Y0012398D01*
G01X0029489Y0012398D02*
G01X0029494Y0012399D01*
G01X0029494Y0012399D02*
G01X0029499Y0012399D01*
G01X0029499Y0012399D02*
G01X0029503Y0012400D01*
G01X0029503Y0012400D02*
G01X0029508Y0012401D01*
G01X0029508Y0012401D02*
G01X0029513Y0012401D01*
G01X0029513Y0012401D02*
G01X0029518Y0012401D01*
G01X0029518Y0012401D02*
G01X0029523Y0012402D01*
G01X0029523Y0012402D02*
G01X0029528Y0012402D01*
G01X0029528Y0012402D02*
G01X0029532Y0012402D01*
G01X0029532Y0012402D02*
G01X0029537Y0012401D01*
G01X0029537Y0012401D02*
G01X0029542Y0012401D01*
G01X0029542Y0012401D02*
G01X0029547Y0012401D01*
G01X0029547Y0012401D02*
G01X0029552Y0012400D01*
G01X0029552Y0012400D02*
G01X0029556Y0012399D01*
G01X0029556Y0012399D02*
G01X0029561Y0012399D01*
G01X0029561Y0012399D02*
G01X0029566Y0012398D01*
G01X0029566Y0012398D02*
G01X0029571Y0012397D01*
G01X0029571Y0012397D02*
G01X0029575Y0012396D01*
G01X0029575Y0012396D02*
G01X0029580Y0012394D01*
G01X0029580Y0012394D02*
G01X0029585Y0012393D01*
G01X0029585Y0012393D02*
G01X0029589Y0012392D01*
G01X0029589Y0012392D02*
G01X0029594Y0012390D01*
G01X0029594Y0012390D02*
G01X0029598Y0012388D01*
G01X0029598Y0012388D02*
G01X0029603Y0012387D01*
G01X0029603Y0012387D02*
G01X0029607Y0012385D01*
G01X0029607Y0012385D02*
G01X0029612Y0012383D01*
G01X0029612Y0012383D02*
G01X0029616Y0012381D01*
G01X0029616Y0012381D02*
G01X0029620Y0012378D01*
G01X0029620Y0012378D02*
G01X0029625Y0012376D01*
G01X0029625Y0012376D02*
G01X0029629Y0012374D01*
G01X0029629Y0012374D02*
G01X0029633Y0012371D01*
G01X0029633Y0012371D02*
G01X0029637Y0012368D01*
G01X0029637Y0012368D02*
G01X0029641Y0012366D01*
G01X0029641Y0012366D02*
G01X0029645Y0012363D01*
G01X0029645Y0012363D02*
G01X0029649Y0012360D01*
G01X0029649Y0012360D02*
G01X0029652Y0012357D01*
G01X0029652Y0012357D02*
G01X0029656Y0012354D01*
G01X0029656Y0012354D02*
G01X0029660Y0012351D01*
G01X0029660Y0012351D02*
G01X0029663Y0012347D01*
G01X0029663Y0012347D02*
G01X0029667Y0012344D01*
G01X0029667Y0012344D02*
G01X0029670Y0012340D01*
G01X0029670Y0012340D02*
G01X0029673Y0012337D01*
G01X0029673Y0012337D02*
G01X0029677Y0012333D01*
G01X0029677Y0012333D02*
G01X0029680Y0012330D01*
G01X0029680Y0012330D02*
G01X0029683Y0012326D01*
G01X0029683Y0012326D02*
G01X0029686Y0012322D01*
G01X0029686Y0012322D02*
G01X0029689Y0012318D01*
G01X0029689Y0012318D02*
G01X0029691Y0012314D01*
G01X0029691Y0012314D02*
G01X0029694Y0012310D01*
G01X0029694Y0012310D02*
G01X0029696Y0012306D01*
G01X0029696Y0012306D02*
G01X0029699Y0012302D01*
G01X0029699Y0012302D02*
G01X0029701Y0012298D01*
G01X0029701Y0012298D02*
G01X0029703Y0012293D01*
G01X0029703Y0012293D02*
G01X0029706Y0012289D01*
G01X0029706Y0012289D02*
G01X0029708Y0012284D01*
G01X0029708Y0012284D02*
G01X0029709Y0012280D01*
G01X0029709Y0012280D02*
G01X0029711Y0012276D01*
G01X0029711Y0012276D02*
G01X0029713Y0012271D01*
G01X0029713Y0012271D02*
G01X0029714Y0012266D01*
G01X0029714Y0012266D02*
G01X0029716Y0012262D01*
G01X0029716Y0012262D02*
G01X0029717Y0012257D01*
G01X0029717Y0012257D02*
G01X0029719Y0012253D01*
G01X0029719Y0012253D02*
G01X0029720Y0012248D01*
G01X0029720Y0012248D02*
G01X0029721Y0012243D01*
G01X0029721Y0012243D02*
G01X0029722Y0012238D01*
G01X0029722Y0012238D02*
G01X0029722Y0012234D01*
G01X0029722Y0012234D02*
G01X0029723Y0012229D01*
G01X0029723Y0012229D02*
G01X0029723Y0012224D01*
G01X0029723Y0012224D02*
G01X0029724Y0012219D01*
G01X0029724Y0012219D02*
G01X0029724Y0012214D01*
G01X0029724Y0012214D02*
G01X0029724Y0012210D01*
G01X0029724Y0012210D02*
G01X0029724Y0012205D01*
G01X0029724Y0012205D02*
G01X0029724Y0012200D01*
G01X0029724Y0012200D02*
G01X0029724Y0012195D01*
G01X0029724Y0012195D02*
G01X0029724Y0012190D01*
G01X0029724Y0012190D02*
G01X0029723Y0012185D01*
G01X0029723Y0012185D02*
G01X0029723Y0012181D01*
G01X0029723Y0012181D02*
G01X0029722Y0012176D01*
G01X0029722Y0012176D02*
G01X0029722Y0012171D01*
G01X0029722Y0012171D02*
G01X0029721Y0012166D01*
G01X0029721Y0012166D02*
G01X0029720Y0012162D01*
G01X0029720Y0012162D02*
G01X0029719Y0012157D01*
G01X0029719Y0012157D02*
G01X0029717Y0012152D01*
G01X0029717Y0012152D02*
G01X0029716Y0012148D01*
G01X0029716Y0012148D02*
G01X0029714Y0012143D01*
G01X0029714Y0012143D02*
G01X0029713Y0012138D01*
G01X0029713Y0012138D02*
G01X0029711Y0012134D01*
G01X0029711Y0012134D02*
G01X0029709Y0012129D01*
G01X0029709Y0012129D02*
G01X0029708Y0012125D01*
G01X0029708Y0012125D02*
G01X0029706Y0012121D01*
G01X0029706Y0012121D02*
G01X0029703Y0012116D01*
G01X0029703Y0012116D02*
G01X0029701Y0012112D01*
G01X0029701Y0012112D02*
G01X0029699Y0012108D01*
G01X0029699Y0012108D02*
G01X0029696Y0012104D01*
G01X0029696Y0012104D02*
G01X0029694Y0012099D01*
G01X0029694Y0012099D02*
G01X0029691Y0012095D01*
G01X0029691Y0012095D02*
G01X0029689Y0012091D01*
G01X0029689Y0012091D02*
G01X0029686Y0012087D01*
G01X0029686Y0012087D02*
G01X0029683Y0012084D01*
G01X0029683Y0012084D02*
G01X0029680Y0012080D01*
G01X0029680Y0012080D02*
G01X0029677Y0012076D01*
G01X0029677Y0012076D02*
G01X0029673Y0012073D01*
G01X0029673Y0012073D02*
G01X0029670Y0012069D01*
G01X0029670Y0012069D02*
G01X0029667Y0012066D01*
G01X0029667Y0012066D02*
G01X0029663Y0012062D01*
G01X0029663Y0012062D02*
G01X0029660Y0012059D01*
G01X0029660Y0012059D02*
G01X0029656Y0012056D01*
G01X0029656Y0012056D02*
G01X0029652Y0012053D01*
G01X0029652Y0012053D02*
G01X0029649Y0012050D01*
G01X0029649Y0012050D02*
G01X0029645Y0012047D01*
G01X0029645Y0012047D02*
G01X0029641Y0012044D01*
G01X0029641Y0012044D02*
G01X0029637Y0012041D01*
G01X0029637Y0012041D02*
G01X0029633Y0012038D01*
G01X0029633Y0012038D02*
G01X0029629Y0012036D01*
G01X0029629Y0012036D02*
G01X0029625Y0012033D01*
G01X0029625Y0012033D02*
G01X0029620Y0012031D01*
G01X0029620Y0012031D02*
G01X0029616Y0012029D01*
G01X0029616Y0012029D02*
G01X0029612Y0012027D01*
G01X0029612Y0012027D02*
G01X0029607Y0012025D01*
G01X0029607Y0012025D02*
G01X0029603Y0012023D01*
G01X0029603Y0012023D02*
G01X0029598Y0012021D01*
G01X0029598Y0012021D02*
G01X0029594Y0012019D01*
G01X0029594Y0012019D02*
G01X0029589Y0012018D01*
G01X0029589Y0012018D02*
G01X0029585Y0012016D01*
G01X0029585Y0012016D02*
G01X0029580Y0012015D01*
G01X0029580Y0012015D02*
G01X0029575Y0012014D01*
G01X0029575Y0012014D02*
G01X0029571Y0012013D01*
G01X0029571Y0012013D02*
G01X0029566Y0012012D01*
G01X0029566Y0012012D02*
G01X0029561Y0012011D01*
G01X0029561Y0012011D02*
G01X0029556Y0012010D01*
G01X0029556Y0012010D02*
G01X0029552Y0012009D01*
G01X0029552Y0012009D02*
G01X0029547Y0012009D01*
G01X0029547Y0012009D02*
G01X0029542Y0012008D01*
G01X0029542Y0012008D02*
G01X0029537Y0012008D01*
G01X0029537Y0012008D02*
G01X0029532Y0012008D01*
G01X0029532Y0012008D02*
G01X0029528Y0012008D01*
G01X0029528Y0012008D02*
G01X0029523Y0012008D01*
G01X0029523Y0012008D02*
G01X0029518Y0012008D01*
G01X0029518Y0012008D02*
G01X0029513Y0012008D01*
G01X0029513Y0012008D02*
G01X0029508Y0012009D01*
G01X0029508Y0012009D02*
G01X0029503Y0012009D01*
G01X0029503Y0012009D02*
G01X0029499Y0012010D01*
G01X0029499Y0012010D02*
G01X0029494Y0012011D01*
G01X0029494Y0012011D02*
G01X0029489Y0012012D01*
G01X0029489Y0012012D02*
G01X0029484Y0012013D01*
G01X0029484Y0012013D02*
G01X0029480Y0012014D01*
G01X0029480Y0012014D02*
G01X0029475Y0012015D01*
G01X0029475Y0012015D02*
G01X0029470Y0012016D01*
G01X0029470Y0012016D02*
G01X0029466Y0012018D01*
G01X0029466Y0012018D02*
G01X0029461Y0012019D01*
G01X0029461Y0012019D02*
G01X0029457Y0012021D01*
G01X0029457Y0012021D02*
G01X0029452Y0012023D01*
G01X0029452Y0012023D02*
G01X0029448Y0012025D01*
G01X0029448Y0012025D02*
G01X0029443Y0012027D01*
G01X0029443Y0012027D02*
G01X0029439Y0012029D01*
G01X0029439Y0012029D02*
G01X0029435Y0012031D01*
G01X0029435Y0012031D02*
G01X0029431Y0012033D01*
G01X0029431Y0012033D02*
G01X0029426Y0012036D01*
G01X0029426Y0012036D02*
G01X0029422Y0012038D01*
G01X0029422Y0012038D02*
G01X0029418Y0012041D01*
G01X0029418Y0012041D02*
G01X0029414Y0012044D01*
G01X0029414Y0012044D02*
G01X0029410Y0012047D01*
G01X0029410Y0012047D02*
G01X0029406Y0012050D01*
G01X0029406Y0012050D02*
G01X0029403Y0012053D01*
G01X0029403Y0012053D02*
G01X0029399Y0012056D01*
G01X0029399Y0012056D02*
G01X0029395Y0012059D01*
G01X0029395Y0012059D02*
G01X0029392Y0012062D01*
G01X0029392Y0012062D02*
G01X0029388Y0012066D01*
G01X0029388Y0012066D02*
G01X0029385Y0012069D01*
G01X0029385Y0012069D02*
G01X0029382Y0012073D01*
G01X0029382Y0012073D02*
G01X0029379Y0012076D01*
G01X0029379Y0012076D02*
G01X0029375Y0012080D01*
G01X0029375Y0012080D02*
G01X0029372Y0012084D01*
G01X0029372Y0012084D02*
G01X0029369Y0012087D01*
G01X0029369Y0012087D02*
G01X0029367Y0012091D01*
G01X0029367Y0012091D02*
G01X0029364Y0012095D01*
G01X0029364Y0012095D02*
G01X0029361Y0012099D01*
G01X0029361Y0012099D02*
G01X0029359Y0012104D01*
G01X0029359Y0012104D02*
G01X0029356Y0012108D01*
G01X0029356Y0012108D02*
G01X0029354Y0012112D01*
G01X0029354Y0012112D02*
G01X0029352Y0012116D01*
G01X0029352Y0012116D02*
G01X0029350Y0012121D01*
G01X0029350Y0012121D02*
G01X0029348Y0012125D01*
G01X0029348Y0012125D02*
G01X0029346Y0012129D01*
G01X0029346Y0012129D02*
G01X0029344Y0012134D01*
G01X0029344Y0012134D02*
G01X0029342Y0012138D01*
G01X0029342Y0012138D02*
G01X0029341Y0012143D01*
G01X0029341Y0012143D02*
G01X0029339Y0012148D01*
G01X0029339Y0012148D02*
G01X0029338Y0012152D01*
G01X0029338Y0012152D02*
G01X0029337Y0012157D01*
G01X0029337Y0012157D02*
G01X0029335Y0012162D01*
G01X0029335Y0012162D02*
G01X0029334Y0012166D01*
G01X0029334Y0012166D02*
G01X0029334Y0012171D01*
G01X0029334Y0012171D02*
G01X0029333Y0012176D01*
G01X0029333Y0012176D02*
G01X0029332Y0012181D01*
G01X0029332Y0012181D02*
G01X0029332Y0012185D01*
G01X0029332Y0012185D02*
G01X0029331Y0012190D01*
G01X0029331Y0012190D02*
G01X0029331Y0012195D01*
G01X0029331Y0012195D02*
G01X0029331Y0012200D01*
G01X0029331Y0012200D02*
G01X0029331Y0012205D01*
G01X0029331Y0025591D02*
G01X0029331Y0025595D01*
G01X0029331Y0025595D02*
G01X0029331Y0025600D01*
G01X0029331Y0025600D02*
G01X0029331Y0025605D01*
G01X0029331Y0025605D02*
G01X0029332Y0025610D01*
G01X0029332Y0025610D02*
G01X0029332Y0025615D01*
G01X0029332Y0025615D02*
G01X0029333Y0025619D01*
G01X0029333Y0025619D02*
G01X0029334Y0025624D01*
G01X0029334Y0025624D02*
G01X0029334Y0025629D01*
G01X0029334Y0025629D02*
G01X0029335Y0025634D01*
G01X0029335Y0025634D02*
G01X0029337Y0025638D01*
G01X0029337Y0025638D02*
G01X0029338Y0025643D01*
G01X0029338Y0025643D02*
G01X0029339Y0025648D01*
G01X0029339Y0025648D02*
G01X0029341Y0025652D01*
G01X0029341Y0025652D02*
G01X0029342Y0025657D01*
G01X0029342Y0025657D02*
G01X0029344Y0025661D01*
G01X0029344Y0025661D02*
G01X0029346Y0025666D01*
G01X0029346Y0025666D02*
G01X0029348Y0025670D01*
G01X0029348Y0025670D02*
G01X0029350Y0025675D01*
G01X0029350Y0025675D02*
G01X0029352Y0025679D01*
G01X0029352Y0025679D02*
G01X0029354Y0025683D01*
G01X0029354Y0025683D02*
G01X0029356Y0025688D01*
G01X0029356Y0025688D02*
G01X0029359Y0025692D01*
G01X0029359Y0025692D02*
G01X0029361Y0025696D01*
G01X0029361Y0025696D02*
G01X0029364Y0025700D01*
G01X0029364Y0025700D02*
G01X0029367Y0025704D01*
G01X0029367Y0025704D02*
G01X0029369Y0025708D01*
G01X0029369Y0025708D02*
G01X0029372Y0025712D01*
G01X0029372Y0025712D02*
G01X0029375Y0025715D01*
G01X0029375Y0025715D02*
G01X0029379Y0025719D01*
G01X0029379Y0025719D02*
G01X0029382Y0025723D01*
G01X0029382Y0025723D02*
G01X0029385Y0025726D01*
G01X0029385Y0025726D02*
G01X0029388Y0025730D01*
G01X0029388Y0025730D02*
G01X0029392Y0025733D01*
G01X0029392Y0025733D02*
G01X0029395Y0025736D01*
G01X0029395Y0025736D02*
G01X0029399Y0025740D01*
G01X0029399Y0025740D02*
G01X0029403Y0025743D01*
G01X0029403Y0025743D02*
G01X0029406Y0025746D01*
G01X0029406Y0025746D02*
G01X0029410Y0025749D01*
G01X0029410Y0025749D02*
G01X0029414Y0025751D01*
G01X0029414Y0025751D02*
G01X0029418Y0025754D01*
G01X0029418Y0025754D02*
G01X0029422Y0025757D01*
G01X0029422Y0025757D02*
G01X0029426Y0025759D01*
G01X0029426Y0025759D02*
G01X0029431Y0025762D01*
G01X0029431Y0025762D02*
G01X0029435Y0025764D01*
G01X0029435Y0025764D02*
G01X0029439Y0025766D01*
G01X0029439Y0025766D02*
G01X0029443Y0025769D01*
G01X0029443Y0025769D02*
G01X0029448Y0025771D01*
G01X0029448Y0025771D02*
G01X0029452Y0025772D01*
G01X0029452Y0025772D02*
G01X0029457Y0025774D01*
G01X0029457Y0025774D02*
G01X0029461Y0025776D01*
G01X0029461Y0025776D02*
G01X0029466Y0025777D01*
G01X0029466Y0025777D02*
G01X0029470Y0025779D01*
G01X0029470Y0025779D02*
G01X0029475Y0025780D01*
G01X0029475Y0025780D02*
G01X0029480Y0025782D01*
G01X0029480Y0025782D02*
G01X0029484Y0025783D01*
G01X0029484Y0025783D02*
G01X0029489Y0025784D01*
G01X0029489Y0025784D02*
G01X0029494Y0025785D01*
G01X0029494Y0025785D02*
G01X0029499Y0025785D01*
G01X0029499Y0025785D02*
G01X0029503Y0025786D01*
G01X0029503Y0025786D02*
G01X0029508Y0025786D01*
G01X0029508Y0025786D02*
G01X0029513Y0025787D01*
G01X0029513Y0025787D02*
G01X0029518Y0025787D01*
G01X0029518Y0025787D02*
G01X0029523Y0025787D01*
G01X0029523Y0025787D02*
G01X0029528Y0025787D01*
G01X0029528Y0025787D02*
G01X0029532Y0025787D01*
G01X0029532Y0025787D02*
G01X0029537Y0025787D01*
G01X0029537Y0025787D02*
G01X0029542Y0025787D01*
G01X0029542Y0025787D02*
G01X0029547Y0025786D01*
G01X0029547Y0025786D02*
G01X0029552Y0025786D01*
G01X0029552Y0025786D02*
G01X0029556Y0025785D01*
G01X0029556Y0025785D02*
G01X0029561Y0025785D01*
G01X0029561Y0025785D02*
G01X0029566Y0025784D01*
G01X0029566Y0025784D02*
G01X0029571Y0025783D01*
G01X0029571Y0025783D02*
G01X0029575Y0025782D01*
G01X0029575Y0025782D02*
G01X0029580Y0025780D01*
G01X0029580Y0025780D02*
G01X0029585Y0025779D01*
G01X0029585Y0025779D02*
G01X0029589Y0025777D01*
G01X0029589Y0025777D02*
G01X0029594Y0025776D01*
G01X0029594Y0025776D02*
G01X0029598Y0025774D01*
G01X0029598Y0025774D02*
G01X0029603Y0025772D01*
G01X0029603Y0025772D02*
G01X0029607Y0025771D01*
G01X0029607Y0025771D02*
G01X0029612Y0025769D01*
G01X0029612Y0025769D02*
G01X0029616Y0025766D01*
G01X0029616Y0025766D02*
G01X0029620Y0025764D01*
G01X0029620Y0025764D02*
G01X0029625Y0025762D01*
G01X0029625Y0025762D02*
G01X0029629Y0025759D01*
G01X0029629Y0025759D02*
G01X0029633Y0025757D01*
G01X0029633Y0025757D02*
G01X0029637Y0025754D01*
G01X0029637Y0025754D02*
G01X0029641Y0025751D01*
G01X0029641Y0025751D02*
G01X0029645Y0025749D01*
G01X0029645Y0025749D02*
G01X0029649Y0025746D01*
G01X0029649Y0025746D02*
G01X0029652Y0025743D01*
G01X0029652Y0025743D02*
G01X0029656Y0025740D01*
G01X0029656Y0025740D02*
G01X0029660Y0025736D01*
G01X0029660Y0025736D02*
G01X0029663Y0025733D01*
G01X0029663Y0025733D02*
G01X0029667Y0025730D01*
G01X0029667Y0025730D02*
G01X0029670Y0025726D01*
G01X0029670Y0025726D02*
G01X0029673Y0025723D01*
G01X0029673Y0025723D02*
G01X0029677Y0025719D01*
G01X0029677Y0025719D02*
G01X0029680Y0025715D01*
G01X0029680Y0025715D02*
G01X0029683Y0025712D01*
G01X0029683Y0025712D02*
G01X0029686Y0025708D01*
G01X0029686Y0025708D02*
G01X0029689Y0025704D01*
G01X0029689Y0025704D02*
G01X0029691Y0025700D01*
G01X0029691Y0025700D02*
G01X0029694Y0025696D01*
G01X0029694Y0025696D02*
G01X0029696Y0025692D01*
G01X0029696Y0025692D02*
G01X0029699Y0025688D01*
G01X0029699Y0025688D02*
G01X0029701Y0025683D01*
G01X0029701Y0025683D02*
G01X0029703Y0025679D01*
G01X0029703Y0025679D02*
G01X0029706Y0025675D01*
G01X0029706Y0025675D02*
G01X0029708Y0025670D01*
G01X0029708Y0025670D02*
G01X0029709Y0025666D01*
G01X0029709Y0025666D02*
G01X0029711Y0025661D01*
G01X0029711Y0025661D02*
G01X0029713Y0025657D01*
G01X0029713Y0025657D02*
G01X0029714Y0025652D01*
G01X0029714Y0025652D02*
G01X0029716Y0025648D01*
G01X0029716Y0025648D02*
G01X0029717Y0025643D01*
G01X0029717Y0025643D02*
G01X0029719Y0025638D01*
G01X0029719Y0025638D02*
G01X0029720Y0025634D01*
G01X0029720Y0025634D02*
G01X0029721Y0025629D01*
G01X0029721Y0025629D02*
G01X0029722Y0025624D01*
G01X0029722Y0025624D02*
G01X0029722Y0025619D01*
G01X0029722Y0025619D02*
G01X0029723Y0025615D01*
G01X0029723Y0025615D02*
G01X0029723Y0025610D01*
G01X0029723Y0025610D02*
G01X0029724Y0025605D01*
G01X0029724Y0025605D02*
G01X0029724Y0025600D01*
G01X0029724Y0025600D02*
G01X0029724Y0025595D01*
G01X0029724Y0025595D02*
G01X0029724Y0025591D01*
G01X0029724Y0025591D02*
G01X0029724Y0025586D01*
G01X0029724Y0025586D02*
G01X0029724Y0025581D01*
G01X0029724Y0025581D02*
G01X0029724Y0025576D01*
G01X0029724Y0025576D02*
G01X0029723Y0025571D01*
G01X0029723Y0025571D02*
G01X0029723Y0025566D01*
G01X0029723Y0025566D02*
G01X0029722Y0025562D01*
G01X0029722Y0025562D02*
G01X0029722Y0025557D01*
G01X0029722Y0025557D02*
G01X0029721Y0025552D01*
G01X0029721Y0025552D02*
G01X0029720Y0025547D01*
G01X0029720Y0025547D02*
G01X0029719Y0025543D01*
G01X0029719Y0025543D02*
G01X0029717Y0025538D01*
G01X0029717Y0025538D02*
G01X0029716Y0025533D01*
G01X0029716Y0025533D02*
G01X0029714Y0025529D01*
G01X0029714Y0025529D02*
G01X0029713Y0025524D01*
G01X0029713Y0025524D02*
G01X0029711Y0025520D01*
G01X0029711Y0025520D02*
G01X0029709Y0025515D01*
G01X0029709Y0025515D02*
G01X0029708Y0025511D01*
G01X0029708Y0025511D02*
G01X0029706Y0025506D01*
G01X0029706Y0025506D02*
G01X0029703Y0025502D01*
G01X0029703Y0025502D02*
G01X0029701Y0025498D01*
G01X0029701Y0025498D02*
G01X0029699Y0025494D01*
G01X0029699Y0025494D02*
G01X0029696Y0025489D01*
G01X0029696Y0025489D02*
G01X0029694Y0025485D01*
G01X0029694Y0025485D02*
G01X0029691Y0025481D01*
G01X0029691Y0025481D02*
G01X0029689Y0025477D01*
G01X0029689Y0025477D02*
G01X0029686Y0025473D01*
G01X0029686Y0025473D02*
G01X0029683Y0025469D01*
G01X0029683Y0025469D02*
G01X0029680Y0025466D01*
G01X0029680Y0025466D02*
G01X0029677Y0025462D01*
G01X0029677Y0025462D02*
G01X0029673Y0025458D01*
G01X0029673Y0025458D02*
G01X0029670Y0025455D01*
G01X0029670Y0025455D02*
G01X0029667Y0025451D01*
G01X0029667Y0025451D02*
G01X0029663Y0025448D01*
G01X0029663Y0025448D02*
G01X0029660Y0025445D01*
G01X0029660Y0025445D02*
G01X0029656Y0025441D01*
G01X0029656Y0025441D02*
G01X0029652Y0025438D01*
G01X0029652Y0025438D02*
G01X0029649Y0025435D01*
G01X0029649Y0025435D02*
G01X0029645Y0025432D01*
G01X0029645Y0025432D02*
G01X0029641Y0025430D01*
G01X0029641Y0025430D02*
G01X0029637Y0025427D01*
G01X0029637Y0025427D02*
G01X0029633Y0025424D01*
G01X0029633Y0025424D02*
G01X0029629Y0025422D01*
G01X0029629Y0025422D02*
G01X0029625Y0025419D01*
G01X0029625Y0025419D02*
G01X0029620Y0025417D01*
G01X0029620Y0025417D02*
G01X0029616Y0025415D01*
G01X0029616Y0025415D02*
G01X0029612Y0025413D01*
G01X0029612Y0025413D02*
G01X0029607Y0025411D01*
G01X0029607Y0025411D02*
G01X0029603Y0025409D01*
G01X0029603Y0025409D02*
G01X0029598Y0025407D01*
G01X0029598Y0025407D02*
G01X0029594Y0025405D01*
G01X0029594Y0025405D02*
G01X0029589Y0025404D01*
G01X0029589Y0025404D02*
G01X0029585Y0025402D01*
G01X0029585Y0025402D02*
G01X0029580Y0025401D01*
G01X0029580Y0025401D02*
G01X0029575Y0025400D01*
G01X0029575Y0025400D02*
G01X0029571Y0025398D01*
G01X0029571Y0025398D02*
G01X0029566Y0025397D01*
G01X0029566Y0025397D02*
G01X0029561Y0025397D01*
G01X0029561Y0025397D02*
G01X0029556Y0025396D01*
G01X0029556Y0025396D02*
G01X0029552Y0025395D01*
G01X0029552Y0025395D02*
G01X0029547Y0025395D01*
G01X0029547Y0025395D02*
G01X0029542Y0025394D01*
G01X0029542Y0025394D02*
G01X0029537Y0025394D01*
G01X0029537Y0025394D02*
G01X0029532Y0025394D01*
G01X0029532Y0025394D02*
G01X0029528Y0025394D01*
G01X0029528Y0025394D02*
G01X0029523Y0025394D01*
G01X0029523Y0025394D02*
G01X0029518Y0025394D01*
G01X0029518Y0025394D02*
G01X0029513Y0025394D01*
G01X0029513Y0025394D02*
G01X0029508Y0025395D01*
G01X0029508Y0025395D02*
G01X0029503Y0025395D01*
G01X0029503Y0025395D02*
G01X0029499Y0025396D01*
G01X0029499Y0025396D02*
G01X0029494Y0025397D01*
G01X0029494Y0025397D02*
G01X0029489Y0025397D01*
G01X0029489Y0025397D02*
G01X0029484Y0025398D01*
G01X0029484Y0025398D02*
G01X0029480Y0025400D01*
G01X0029480Y0025400D02*
G01X0029475Y0025401D01*
G01X0029475Y0025401D02*
G01X0029470Y0025402D01*
G01X0029470Y0025402D02*
G01X0029466Y0025404D01*
G01X0029466Y0025404D02*
G01X0029461Y0025405D01*
G01X0029461Y0025405D02*
G01X0029457Y0025407D01*
G01X0029457Y0025407D02*
G01X0029452Y0025409D01*
G01X0029452Y0025409D02*
G01X0029448Y0025411D01*
G01X0029448Y0025411D02*
G01X0029443Y0025413D01*
G01X0029443Y0025413D02*
G01X0029439Y0025415D01*
G01X0029439Y0025415D02*
G01X0029435Y0025417D01*
G01X0029435Y0025417D02*
G01X0029431Y0025419D01*
G01X0029431Y0025419D02*
G01X0029426Y0025422D01*
G01X0029426Y0025422D02*
G01X0029422Y0025424D01*
G01X0029422Y0025424D02*
G01X0029418Y0025427D01*
G01X0029418Y0025427D02*
G01X0029414Y0025430D01*
G01X0029414Y0025430D02*
G01X0029410Y0025432D01*
G01X0029410Y0025432D02*
G01X0029406Y0025435D01*
G01X0029406Y0025435D02*
G01X0029403Y0025438D01*
G01X0029403Y0025438D02*
G01X0029399Y0025441D01*
G01X0029399Y0025441D02*
G01X0029395Y0025445D01*
G01X0029395Y0025445D02*
G01X0029392Y0025448D01*
G01X0029392Y0025448D02*
G01X0029388Y0025451D01*
G01X0029388Y0025451D02*
G01X0029385Y0025455D01*
G01X0029385Y0025455D02*
G01X0029382Y0025458D01*
G01X0029382Y0025458D02*
G01X0029379Y0025462D01*
G01X0029379Y0025462D02*
G01X0029375Y0025466D01*
G01X0029375Y0025466D02*
G01X0029372Y0025469D01*
G01X0029372Y0025469D02*
G01X0029369Y0025473D01*
G01X0029369Y0025473D02*
G01X0029367Y0025477D01*
G01X0029367Y0025477D02*
G01X0029364Y0025481D01*
G01X0029364Y0025481D02*
G01X0029361Y0025485D01*
G01X0029361Y0025485D02*
G01X0029359Y0025489D01*
G01X0029359Y0025489D02*
G01X0029356Y0025494D01*
G01X0029356Y0025494D02*
G01X0029354Y0025498D01*
G01X0029354Y0025498D02*
G01X0029352Y0025502D01*
G01X0029352Y0025502D02*
G01X0029350Y0025506D01*
G01X0029350Y0025506D02*
G01X0029348Y0025511D01*
G01X0029348Y0025511D02*
G01X0029346Y0025515D01*
G01X0029346Y0025515D02*
G01X0029344Y0025520D01*
G01X0029344Y0025520D02*
G01X0029342Y0025524D01*
G01X0029342Y0025524D02*
G01X0029341Y0025529D01*
G01X0029341Y0025529D02*
G01X0029339Y0025533D01*
G01X0029339Y0025533D02*
G01X0029338Y0025538D01*
G01X0029338Y0025538D02*
G01X0029337Y0025543D01*
G01X0029337Y0025543D02*
G01X0029335Y0025547D01*
G01X0029335Y0025547D02*
G01X0029334Y0025552D01*
G01X0029334Y0025552D02*
G01X0029334Y0025557D01*
G01X0029334Y0025557D02*
G01X0029333Y0025562D01*
G01X0029333Y0025562D02*
G01X0029332Y0025566D01*
G01X0029332Y0025566D02*
G01X0029332Y0025571D01*
G01X0029332Y0025571D02*
G01X0029331Y0025576D01*
G01X0029331Y0025576D02*
G01X0029331Y0025581D01*
G01X0029331Y0025581D02*
G01X0029331Y0025586D01*
G01X0029331Y0025586D02*
G01X0029331Y0025591D01*
G54D11*
G01X0011500Y0004000D02*
G01X0030976Y0004000D01*
G01X0030976Y0004000D02*
G01X0030976Y0031496D01*
G01X0030976Y0031496D02*
G01X0011500Y0031496D01*
G01X0011500Y0031496D02*
G01X0011500Y0004000D01*
G01X0013189Y0024005D02*
G01X0013187Y0023983D01*
G01X0013187Y0023983D02*
G01X0013182Y0023961D01*
G01X0013182Y0023961D02*
G01X0013174Y0023940D01*
G01X0013174Y0023940D02*
G01X0013165Y0023920D01*
G01X0013165Y0023920D02*
G01X0013153Y0023902D01*
G01X0013153Y0023902D02*
G01X0013139Y0023884D01*
G01X0013139Y0023884D02*
G01X0013123Y0023869D01*
G01X0013123Y0023869D02*
G01X0013106Y0023855D01*
G01X0013106Y0023855D02*
G01X0013088Y0023843D01*
G01X0013088Y0023843D02*
G01X0013068Y0023834D01*
G01X0013068Y0023834D02*
G01X0013047Y0023826D01*
G01X0013047Y0023826D02*
G01X0013025Y0023821D01*
G01X0013025Y0023821D02*
G01X0013003Y0023819D01*
G01X0013003Y0023819D02*
G01X0012981Y0023819D01*
G01X0012981Y0023819D02*
G01X0012959Y0023821D01*
G01X0012959Y0023821D02*
G01X0012938Y0023826D01*
G01X0012938Y0023826D02*
G01X0012917Y0023834D01*
G01X0012917Y0023834D02*
G01X0012897Y0023843D01*
G01X0012897Y0023843D02*
G01X0012878Y0023855D01*
G01X0012878Y0023855D02*
G01X0012861Y0023869D01*
G01X0012861Y0023869D02*
G01X0012845Y0023884D01*
G01X0012845Y0023884D02*
G01X0012831Y0023902D01*
G01X0012831Y0023902D02*
G01X0012820Y0023920D01*
G01X0012820Y0023920D02*
G01X0012810Y0023940D01*
G01X0012810Y0023940D02*
G01X0012803Y0023961D01*
G01X0012803Y0023961D02*
G01X0012798Y0023983D01*
G01X0012798Y0023983D02*
G01X0012795Y0024005D01*
G01X0012795Y0024005D02*
G01X0012795Y0024027D01*
G01X0012795Y0024027D02*
G01X0012798Y0024049D01*
G01X0012798Y0024049D02*
G01X0012803Y0024070D01*
G01X0012803Y0024070D02*
G01X0012810Y0024091D01*
G01X0012810Y0024091D02*
G01X0012820Y0024111D01*
G01X0012820Y0024111D02*
G01X0012831Y0024130D01*
G01X0012831Y0024130D02*
G01X0012845Y0024147D01*
G01X0012845Y0024147D02*
G01X0012861Y0024163D01*
G01X0012861Y0024163D02*
G01X0012878Y0024177D01*
G01X0012878Y0024177D02*
G01X0012897Y0024188D01*
G01X0012897Y0024188D02*
G01X0012917Y0024198D01*
G01X0012917Y0024198D02*
G01X0012938Y0024205D01*
G01X0012938Y0024205D02*
G01X0012959Y0024210D01*
G01X0012959Y0024210D02*
G01X0012981Y0024213D01*
G01X0012981Y0024213D02*
G01X0013003Y0024213D01*
G01X0013003Y0024213D02*
G01X0013025Y0024210D01*
G01X0013025Y0024210D02*
G01X0013047Y0024205D01*
G01X0013047Y0024205D02*
G01X0013068Y0024198D01*
G01X0013068Y0024198D02*
G01X0013088Y0024188D01*
G01X0013088Y0024188D02*
G01X0013106Y0024177D01*
G01X0013106Y0024177D02*
G01X0013123Y0024163D01*
G01X0013123Y0024163D02*
G01X0013139Y0024147D01*
G01X0013139Y0024147D02*
G01X0013153Y0024130D01*
G01X0013153Y0024130D02*
G01X0013165Y0024111D01*
G01X0013165Y0024111D02*
G01X0013174Y0024091D01*
G01X0013174Y0024091D02*
G01X0013182Y0024070D01*
G01X0013182Y0024070D02*
G01X0013187Y0024049D01*
G01X0013187Y0024049D02*
G01X0013189Y0024027D01*
G01X0013189Y0024027D02*
G01X0013189Y0024005D01*
G01X0013189Y0013375D02*
G01X0013187Y0013353D01*
G01X0013187Y0013353D02*
G01X0013182Y0013331D01*
G01X0013182Y0013331D02*
G01X0013174Y0013310D01*
G01X0013174Y0013310D02*
G01X0013165Y0013290D01*
G01X0013165Y0013290D02*
G01X0013153Y0013272D01*
G01X0013153Y0013272D02*
G01X0013139Y0013254D01*
G01X0013139Y0013254D02*
G01X0013123Y0013239D01*
G01X0013123Y0013239D02*
G01X0013106Y0013225D01*
G01X0013106Y0013225D02*
G01X0013088Y0013213D01*
G01X0013088Y0013213D02*
G01X0013068Y0013204D01*
G01X0013068Y0013204D02*
G01X0013047Y0013196D01*
G01X0013047Y0013196D02*
G01X0013025Y0013191D01*
G01X0013025Y0013191D02*
G01X0013003Y0013189D01*
G01X0013003Y0013189D02*
G01X0012981Y0013189D01*
G01X0012981Y0013189D02*
G01X0012959Y0013191D01*
G01X0012959Y0013191D02*
G01X0012938Y0013196D01*
G01X0012938Y0013196D02*
G01X0012917Y0013204D01*
G01X0012917Y0013204D02*
G01X0012897Y0013213D01*
G01X0012897Y0013213D02*
G01X0012878Y0013225D01*
G01X0012878Y0013225D02*
G01X0012861Y0013239D01*
G01X0012861Y0013239D02*
G01X0012845Y0013254D01*
G01X0012845Y0013254D02*
G01X0012831Y0013272D01*
G01X0012831Y0013272D02*
G01X0012820Y0013290D01*
G01X0012820Y0013290D02*
G01X0012810Y0013310D01*
G01X0012810Y0013310D02*
G01X0012803Y0013331D01*
G01X0012803Y0013331D02*
G01X0012798Y0013353D01*
G01X0012798Y0013353D02*
G01X0012795Y0013375D01*
G01X0012795Y0013375D02*
G01X0012795Y0013397D01*
G01X0012795Y0013397D02*
G01X0012798Y0013419D01*
G01X0012798Y0013419D02*
G01X0012803Y0013440D01*
G01X0012803Y0013440D02*
G01X0012810Y0013461D01*
G01X0012810Y0013461D02*
G01X0012820Y0013481D01*
G01X0012820Y0013481D02*
G01X0012831Y0013500D01*
G01X0012831Y0013500D02*
G01X0012845Y0013517D01*
G01X0012845Y0013517D02*
G01X0012861Y0013533D01*
G01X0012861Y0013533D02*
G01X0012878Y0013547D01*
G01X0012878Y0013547D02*
G01X0012897Y0013558D01*
G01X0012897Y0013558D02*
G01X0012917Y0013568D01*
G01X0012917Y0013568D02*
G01X0012938Y0013575D01*
G01X0012938Y0013575D02*
G01X0012959Y0013580D01*
G01X0012959Y0013580D02*
G01X0012981Y0013583D01*
G01X0012981Y0013583D02*
G01X0013003Y0013583D01*
G01X0013003Y0013583D02*
G01X0013025Y0013580D01*
G01X0013025Y0013580D02*
G01X0013047Y0013575D01*
G01X0013047Y0013575D02*
G01X0013068Y0013568D01*
G01X0013068Y0013568D02*
G01X0013088Y0013558D01*
G01X0013088Y0013558D02*
G01X0013106Y0013547D01*
G01X0013106Y0013547D02*
G01X0013123Y0013533D01*
G01X0013123Y0013533D02*
G01X0013139Y0013517D01*
G01X0013139Y0013517D02*
G01X0013153Y0013500D01*
G01X0013153Y0013500D02*
G01X0013165Y0013481D01*
G01X0013165Y0013481D02*
G01X0013174Y0013461D01*
G01X0013174Y0013461D02*
G01X0013182Y0013440D01*
G01X0013182Y0013440D02*
G01X0013187Y0013419D01*
G01X0013187Y0013419D02*
G01X0013189Y0013397D01*
G01X0013189Y0013397D02*
G01X0013189Y0013375D01*
G01X0029724Y0012194D02*
G01X0029722Y0012172D01*
G01X0029722Y0012172D02*
G01X0029717Y0012150D01*
G01X0029717Y0012150D02*
G01X0029710Y0012129D01*
G01X0029710Y0012129D02*
G01X0029700Y0012109D01*
G01X0029700Y0012109D02*
G01X0029688Y0012091D01*
G01X0029688Y0012091D02*
G01X0029675Y0012073D01*
G01X0029675Y0012073D02*
G01X0029659Y0012058D01*
G01X0029659Y0012058D02*
G01X0029642Y0012044D01*
G01X0029642Y0012044D02*
G01X0029623Y0012032D01*
G01X0029623Y0012032D02*
G01X0029603Y0012023D01*
G01X0029603Y0012023D02*
G01X0029582Y0012015D01*
G01X0029582Y0012015D02*
G01X0029561Y0012010D01*
G01X0029561Y0012010D02*
G01X0029539Y0012008D01*
G01X0029539Y0012008D02*
G01X0029517Y0012008D01*
G01X0029517Y0012008D02*
G01X0029495Y0012010D01*
G01X0029495Y0012010D02*
G01X0029473Y0012015D01*
G01X0029473Y0012015D02*
G01X0029452Y0012023D01*
G01X0029452Y0012023D02*
G01X0029432Y0012032D01*
G01X0029432Y0012032D02*
G01X0029413Y0012044D01*
G01X0029413Y0012044D02*
G01X0029396Y0012058D01*
G01X0029396Y0012058D02*
G01X0029381Y0012073D01*
G01X0029381Y0012073D02*
G01X0029367Y0012091D01*
G01X0029367Y0012091D02*
G01X0029355Y0012109D01*
G01X0029355Y0012109D02*
G01X0029345Y0012129D01*
G01X0029345Y0012129D02*
G01X0029338Y0012150D01*
G01X0029338Y0012150D02*
G01X0029333Y0012172D01*
G01X0029333Y0012172D02*
G01X0029331Y0012194D01*
G01X0029331Y0012194D02*
G01X0029331Y0012216D01*
G01X0029331Y0012216D02*
G01X0029333Y0012238D01*
G01X0029333Y0012238D02*
G01X0029338Y0012259D01*
G01X0029338Y0012259D02*
G01X0029345Y0012280D01*
G01X0029345Y0012280D02*
G01X0029355Y0012300D01*
G01X0029355Y0012300D02*
G01X0029367Y0012319D01*
G01X0029367Y0012319D02*
G01X0029381Y0012336D01*
G01X0029381Y0012336D02*
G01X0029396Y0012352D01*
G01X0029396Y0012352D02*
G01X0029413Y0012366D01*
G01X0029413Y0012366D02*
G01X0029432Y0012377D01*
G01X0029432Y0012377D02*
G01X0029452Y0012387D01*
G01X0029452Y0012387D02*
G01X0029473Y0012394D01*
G01X0029473Y0012394D02*
G01X0029495Y0012399D01*
G01X0029495Y0012399D02*
G01X0029517Y0012402D01*
G01X0029517Y0012402D02*
G01X0029539Y0012402D01*
G01X0029539Y0012402D02*
G01X0029561Y0012399D01*
G01X0029561Y0012399D02*
G01X0029582Y0012394D01*
G01X0029582Y0012394D02*
G01X0029603Y0012387D01*
G01X0029603Y0012387D02*
G01X0029623Y0012377D01*
G01X0029623Y0012377D02*
G01X0029642Y0012366D01*
G01X0029642Y0012366D02*
G01X0029659Y0012352D01*
G01X0029659Y0012352D02*
G01X0029675Y0012336D01*
G01X0029675Y0012336D02*
G01X0029688Y0012319D01*
G01X0029688Y0012319D02*
G01X0029700Y0012300D01*
G01X0029700Y0012300D02*
G01X0029710Y0012280D01*
G01X0029710Y0012280D02*
G01X0029717Y0012259D01*
G01X0029717Y0012259D02*
G01X0029722Y0012238D01*
G01X0029722Y0012238D02*
G01X0029724Y0012216D01*
G01X0029724Y0012216D02*
G01X0029724Y0012194D01*
G01X0029724Y0025580D02*
G01X0029722Y0025558D01*
G01X0029722Y0025558D02*
G01X0029717Y0025536D01*
G01X0029717Y0025536D02*
G01X0029710Y0025515D01*
G01X0029710Y0025515D02*
G01X0029700Y0025495D01*
G01X0029700Y0025495D02*
G01X0029688Y0025476D01*
G01X0029688Y0025476D02*
G01X0029675Y0025459D01*
G01X0029675Y0025459D02*
G01X0029659Y0025444D01*
G01X0029659Y0025444D02*
G01X0029642Y0025430D01*
G01X0029642Y0025430D02*
G01X0029623Y0025418D01*
G01X0029623Y0025418D02*
G01X0029603Y0025408D01*
G01X0029603Y0025408D02*
G01X0029582Y0025401D01*
G01X0029582Y0025401D02*
G01X0029561Y0025396D01*
G01X0029561Y0025396D02*
G01X0029539Y0025394D01*
G01X0029539Y0025394D02*
G01X0029517Y0025394D01*
G01X0029517Y0025394D02*
G01X0029495Y0025396D01*
G01X0029495Y0025396D02*
G01X0029473Y0025401D01*
G01X0029473Y0025401D02*
G01X0029452Y0025408D01*
G01X0029452Y0025408D02*
G01X0029432Y0025418D01*
G01X0029432Y0025418D02*
G01X0029413Y0025430D01*
G01X0029413Y0025430D02*
G01X0029396Y0025444D01*
G01X0029396Y0025444D02*
G01X0029381Y0025459D01*
G01X0029381Y0025459D02*
G01X0029367Y0025476D01*
G01X0029367Y0025476D02*
G01X0029355Y0025495D01*
G01X0029355Y0025495D02*
G01X0029345Y0025515D01*
G01X0029345Y0025515D02*
G01X0029338Y0025536D01*
G01X0029338Y0025536D02*
G01X0029333Y0025558D01*
G01X0029333Y0025558D02*
G01X0029331Y0025580D01*
G01X0029331Y0025580D02*
G01X0029331Y0025602D01*
G01X0029331Y0025602D02*
G01X0029333Y0025624D01*
G01X0029333Y0025624D02*
G01X0029338Y0025645D01*
G01X0029338Y0025645D02*
G01X0029345Y0025666D01*
G01X0029345Y0025666D02*
G01X0029355Y0025686D01*
G01X0029355Y0025686D02*
G01X0029367Y0025705D01*
G01X0029367Y0025705D02*
G01X0029381Y0025722D01*
G01X0029381Y0025722D02*
G01X0029396Y0025738D01*
G01X0029396Y0025738D02*
G01X0029413Y0025751D01*
G01X0029413Y0025751D02*
G01X0029432Y0025763D01*
G01X0029432Y0025763D02*
G01X0029452Y0025773D01*
G01X0029452Y0025773D02*
G01X0029473Y0025780D01*
G01X0029473Y0025780D02*
G01X0029495Y0025785D01*
G01X0029495Y0025785D02*
G01X0029517Y0025787D01*
G01X0029517Y0025787D02*
G01X0029539Y0025787D01*
G01X0029539Y0025787D02*
G01X0029561Y0025785D01*
G01X0029561Y0025785D02*
G01X0029582Y0025780D01*
G01X0029582Y0025780D02*
G01X0029603Y0025773D01*
G01X0029603Y0025773D02*
G01X0029623Y0025763D01*
G01X0029623Y0025763D02*
G01X0029642Y0025751D01*
G01X0029642Y0025751D02*
G01X0029659Y0025738D01*
G01X0029659Y0025738D02*
G01X0029675Y0025722D01*
G01X0029675Y0025722D02*
G01X0029688Y0025705D01*
G01X0029688Y0025705D02*
G01X0029700Y0025686D01*
G01X0029700Y0025686D02*
G01X0029710Y0025666D01*
G01X0029710Y0025666D02*
G01X0029717Y0025645D01*
G01X0029717Y0025645D02*
G01X0029722Y0025624D01*
G01X0029722Y0025624D02*
G01X0029724Y0025602D01*
G01X0029724Y0025602D02*
G01X0029724Y0025580D01*
M02*
