G04 This is an RS-274x file exported by *
G04 gerbv version 2.6A *
G04 More information is available about gerbv at *
G04 http://gerbv.geda-project.org/ *
G04 --End of header info--*
%MOIN*%
%FSLAX34Y34*%
%IPPOS*%
%INBottom Copper Layer*%
G04 --Define apertures--*
%ADD10P,0.0682X8.0000X112.5000*%
%ADD11C,0.0630*%
%ADD12P,0.0682X8.0000X292.5000*%
%ADD13P,0.0563X8.0000X22.5000*%
%ADD14R,0.0394X0.0709*%
%ADD15C,0.0600*%
%ADD16C,0.1700*%
%ADD17C,0.0600*%
%ADD18P,0.0714X8.0000X22.5000*%
%ADD19P,0.0714X8.0000X202.5000*%
%ADD20P,0.0563X8.0000X112.5000*%
%ADD21P,0.0563X8.0000X292.5000*%
%ADD22C,0.0740*%
%ADD23C,0.0640*%
%ADD24C,0.0650*%
%ADD25C,0.0060*%
G04 --Start main section--*
G36*
G01X0030547Y0004400D02*
G01X0030547Y0004400D01*
G01X0030548Y0004400D01*
G01X0030552Y0004401D01*
G01X0030556Y0004402D01*
G01X0030557Y0004402D01*
G01X0030557Y0004402D01*
G01X0030561Y0004404D01*
G01X0030565Y0004406D01*
G01X0030565Y0004407D01*
G01X0030566Y0004407D01*
G01X0030568Y0004410D01*
G01X0030571Y0004413D01*
G01X0030572Y0004414D01*
G01X0030572Y0004414D01*
G01X0030574Y0004418D01*
G01X0030575Y0004422D01*
G01X0030575Y0004423D01*
G01X0030576Y0004423D01*
G01X0030576Y0004430D01*
G01X0030576Y0031066D01*
G01X0030576Y0031067D01*
G01X0030576Y0031068D01*
G01X0030575Y0031072D01*
G01X0030575Y0031076D01*
G01X0030574Y0031076D01*
G01X0030574Y0031077D01*
G01X0030572Y0031081D01*
G01X0030570Y0031084D01*
G01X0030570Y0031085D01*
G01X0030569Y0031085D01*
G01X0030566Y0031088D01*
G01X0030563Y0031091D01*
G01X0030563Y0031091D01*
G01X0030562Y0031092D01*
G01X0030558Y0031093D01*
G01X0030554Y0031095D01*
G01X0030554Y0031095D01*
G01X0030553Y0031095D01*
G01X0030546Y0031096D01*
G01X0011930Y0031096D01*
G01X0011929Y0031096D01*
G01X0011928Y0031096D01*
G01X0011924Y0031095D01*
G01X0011920Y0031094D01*
G01X0011920Y0031094D01*
G01X0011919Y0031094D01*
G01X0011915Y0031092D01*
G01X0011912Y0031090D01*
G01X0011911Y0031089D01*
G01X0011911Y0031089D01*
G01X0011908Y0031086D01*
G01X0011905Y0031083D01*
G01X0011905Y0031082D01*
G01X0011904Y0031082D01*
G01X0011903Y0031078D01*
G01X0011901Y0031074D01*
G01X0011901Y0031073D01*
G01X0011901Y0031073D01*
G01X0011900Y0031066D01*
G01X0011900Y0004430D01*
G01X0011900Y0004429D01*
G01X0011900Y0004428D01*
G01X0011901Y0004424D01*
G01X0011902Y0004420D01*
G01X0011902Y0004420D01*
G01X0011902Y0004419D01*
G01X0011904Y0004415D01*
G01X0011906Y0004412D01*
G01X0011907Y0004411D01*
G01X0011907Y0004411D01*
G01X0011910Y0004408D01*
G01X0011913Y0004405D01*
G01X0011914Y0004405D01*
G01X0011914Y0004404D01*
G01X0011918Y0004403D01*
G01X0011922Y0004401D01*
G01X0011923Y0004401D01*
G01X0011923Y0004401D01*
G01X0011930Y0004400D01*
G01X0030546Y0004400D01*
G01X0030547Y0004400D01*
G37*
%LPC*%
G36*
G01X0026787Y0006590D02*
G01X0026787Y0006590D01*
G01X0026453Y0006729D01*
G01X0026197Y0006985D01*
G01X0026059Y0007319D01*
G01X0026059Y0007681D01*
G01X0026197Y0008015D01*
G01X0026453Y0008271D01*
G01X0026614Y0008338D01*
G01X0026615Y0008339D01*
G01X0026617Y0008340D01*
G01X0026619Y0008342D01*
G01X0026622Y0008343D01*
G01X0026623Y0008345D01*
G01X0026625Y0008346D01*
G01X0026626Y0008348D01*
G01X0026628Y0008351D01*
G01X0026629Y0008352D01*
G01X0026630Y0008354D01*
G01X0026631Y0008357D01*
G01X0026632Y0008360D01*
G01X0026632Y0008361D01*
G01X0026632Y0008363D01*
G01X0026632Y0008366D01*
G01X0026632Y0008369D01*
G01X0026632Y0008371D01*
G01X0026631Y0008373D01*
G01X0026630Y0008376D01*
G01X0026629Y0008379D01*
G01X0026628Y0008380D01*
G01X0026628Y0008382D01*
G01X0026624Y0008386D01*
G01X0026624Y0008387D01*
G01X0026624Y0008387D01*
G01X0026624Y0008387D01*
G01X0026388Y0008622D01*
G01X0026388Y0008623D01*
G01X0026387Y0008623D01*
G01X0026384Y0008625D01*
G01X0026381Y0008628D01*
G01X0026380Y0008628D01*
G01X0026379Y0008628D01*
G01X0026375Y0008629D01*
G01X0026371Y0008631D01*
G01X0026371Y0008631D01*
G01X0026370Y0008631D01*
G01X0026366Y0008630D01*
G01X0026362Y0008630D01*
G01X0026361Y0008630D01*
G01X0026360Y0008630D01*
G01X0026356Y0008628D01*
G01X0026353Y0008627D01*
G01X0026352Y0008627D01*
G01X0026351Y0008626D01*
G01X0026346Y0008622D01*
G01X0026303Y0008579D01*
G01X0025968Y0008440D01*
G01X0025606Y0008440D01*
G01X0025272Y0008579D01*
G01X0025016Y0008835D01*
G01X0024877Y0009169D01*
G01X0024877Y0009380D01*
G01X0024877Y0009380D01*
G01X0024877Y0009380D01*
G01X0024877Y0009381D01*
G01X0024877Y0009381D01*
G01X0024877Y0009382D01*
G01X0024876Y0009386D01*
G01X0024876Y0009390D01*
G01X0024875Y0009390D01*
G01X0024875Y0009391D01*
G01X0024873Y0009395D01*
G01X0024871Y0009398D01*
G01X0024871Y0009399D01*
G01X0024870Y0009399D01*
G01X0024867Y0009402D01*
G01X0024864Y0009405D01*
G01X0024864Y0009405D01*
G01X0024863Y0009406D01*
G01X0024859Y0009407D01*
G01X0024855Y0009409D01*
G01X0024855Y0009409D01*
G01X0024854Y0009409D01*
G01X0024847Y0009410D01*
G01X0018405Y0009410D01*
G01X0018404Y0009410D01*
G01X0018403Y0009410D01*
G01X0018399Y0009409D01*
G01X0018395Y0009408D01*
G01X0018395Y0009408D01*
G01X0018394Y0009408D01*
G01X0018390Y0009406D01*
G01X0018387Y0009404D01*
G01X0018386Y0009403D01*
G01X0018386Y0009403D01*
G01X0018383Y0009400D01*
G01X0018380Y0009397D01*
G01X0018380Y0009396D01*
G01X0018379Y0009396D01*
G01X0018378Y0009392D01*
G01X0018376Y0009388D01*
G01X0018376Y0009387D01*
G01X0018376Y0009387D01*
G01X0018375Y0009380D01*
G01X0018375Y0009345D01*
G01X0018155Y0009125D01*
G01X0018120Y0009125D01*
G01X0018119Y0009125D01*
G01X0018118Y0009125D01*
G01X0018114Y0009124D01*
G01X0018110Y0009123D01*
G01X0018110Y0009123D01*
G01X0018109Y0009123D01*
G01X0018105Y0009121D01*
G01X0018102Y0009119D01*
G01X0018101Y0009118D01*
G01X0018101Y0009118D01*
G01X0018098Y0009115D01*
G01X0018095Y0009112D01*
G01X0018095Y0009111D01*
G01X0018094Y0009111D01*
G01X0018093Y0009107D01*
G01X0018091Y0009103D01*
G01X0018091Y0009102D01*
G01X0018091Y0009102D01*
G01X0018090Y0009095D01*
G01X0018090Y0007405D01*
G01X0018090Y0007404D01*
G01X0018090Y0007403D01*
G01X0018091Y0007399D01*
G01X0018092Y0007395D01*
G01X0018092Y0007395D01*
G01X0018092Y0007394D01*
G01X0018094Y0007390D01*
G01X0018096Y0007387D01*
G01X0018097Y0007386D01*
G01X0018097Y0007386D01*
G01X0018100Y0007383D01*
G01X0018103Y0007380D01*
G01X0018104Y0007380D01*
G01X0018104Y0007379D01*
G01X0018108Y0007378D01*
G01X0018112Y0007376D01*
G01X0018113Y0007376D01*
G01X0018113Y0007376D01*
G01X0018120Y0007375D01*
G01X0018155Y0007375D01*
G01X0018375Y0007155D01*
G01X0018375Y0006845D01*
G01X0018155Y0006625D01*
G01X0017845Y0006625D01*
G01X0017625Y0006845D01*
G01X0017625Y0007155D01*
G01X0017650Y0007180D01*
G01X0017650Y0007181D01*
G01X0017651Y0007181D01*
G01X0017653Y0007185D01*
G01X0017656Y0007188D01*
G01X0017656Y0007189D01*
G01X0017656Y0007190D01*
G01X0017657Y0007194D01*
G01X0017658Y0007197D01*
G01X0017658Y0007198D01*
G01X0017659Y0007199D01*
G01X0017658Y0007203D01*
G01X0017658Y0007207D01*
G01X0017658Y0007208D01*
G01X0017658Y0007209D01*
G01X0017656Y0007212D01*
G01X0017655Y0007216D01*
G01X0017654Y0007217D01*
G01X0017654Y0007218D01*
G01X0017650Y0007223D01*
G01X0016972Y0007901D01*
G01X0016969Y0007903D01*
G01X0016966Y0007906D01*
G01X0016965Y0007906D01*
G01X0016964Y0007907D01*
G01X0016960Y0007908D01*
G01X0016957Y0007909D01*
G01X0016955Y0007909D01*
G01X0016954Y0007910D01*
G01X0016953Y0007910D01*
G01X0016950Y0007910D01*
G01X0014672Y0007910D01*
G01X0014668Y0007909D01*
G01X0014663Y0007909D01*
G01X0014663Y0007908D01*
G01X0014663Y0007908D01*
G01X0014659Y0007906D01*
G01X0014655Y0007904D01*
G01X0014655Y0007904D01*
G01X0014654Y0007904D01*
G01X0014651Y0007901D01*
G01X0014648Y0007897D01*
G01X0014648Y0007897D01*
G01X0014648Y0007897D01*
G01X0014647Y0007896D01*
G01X0014645Y0007891D01*
G01X0014605Y0007796D01*
G01X0014504Y0007695D01*
G01X0014372Y0007640D01*
G01X0013628Y0007640D01*
G01X0013496Y0007695D01*
G01X0013395Y0007796D01*
G01X0013340Y0007928D01*
G01X0013340Y0008072D01*
G01X0013395Y0008204D01*
G01X0013496Y0008305D01*
G01X0013628Y0008360D01*
G01X0014372Y0008360D01*
G01X0014504Y0008305D01*
G01X0014605Y0008204D01*
G01X0014645Y0008109D01*
G01X0014647Y0008105D01*
G01X0014649Y0008101D01*
G01X0014650Y0008101D01*
G01X0014650Y0008100D01*
G01X0014653Y0008097D01*
G01X0014657Y0008094D01*
G01X0014657Y0008094D01*
G01X0014657Y0008094D01*
G01X0014662Y0008092D01*
G01X0014666Y0008091D01*
G01X0014666Y0008091D01*
G01X0014666Y0008091D01*
G01X0014667Y0008091D01*
G01X0014672Y0008090D01*
G01X0017037Y0008090D01*
G01X0017777Y0007350D01*
G01X0017778Y0007350D01*
G01X0017778Y0007349D01*
G01X0017782Y0007347D01*
G01X0017785Y0007344D01*
G01X0017786Y0007344D01*
G01X0017787Y0007344D01*
G01X0017790Y0007343D01*
G01X0017794Y0007342D01*
G01X0017795Y0007342D01*
G01X0017796Y0007341D01*
G01X0017800Y0007342D01*
G01X0017804Y0007342D01*
G01X0017805Y0007342D01*
G01X0017806Y0007342D01*
G01X0017809Y0007344D01*
G01X0017813Y0007345D01*
G01X0017814Y0007346D01*
G01X0017815Y0007346D01*
G01X0017820Y0007350D01*
G01X0017845Y0007375D01*
G01X0017880Y0007375D01*
G01X0017881Y0007375D01*
G01X0017882Y0007375D01*
G01X0017886Y0007376D01*
G01X0017890Y0007377D01*
G01X0017890Y0007377D01*
G01X0017891Y0007377D01*
G01X0017895Y0007379D01*
G01X0017898Y0007381D01*
G01X0017899Y0007382D01*
G01X0017899Y0007382D01*
G01X0017902Y0007385D01*
G01X0017905Y0007388D01*
G01X0017905Y0007389D01*
G01X0017906Y0007389D01*
G01X0017907Y0007393D01*
G01X0017909Y0007397D01*
G01X0017909Y0007398D01*
G01X0017909Y0007398D01*
G01X0017910Y0007405D01*
G01X0017910Y0009095D01*
G01X0017910Y0009096D01*
G01X0017910Y0009097D01*
G01X0017909Y0009101D01*
G01X0017908Y0009105D01*
G01X0017908Y0009105D01*
G01X0017908Y0009106D01*
G01X0017906Y0009110D01*
G01X0017904Y0009113D01*
G01X0017903Y0009114D01*
G01X0017903Y0009114D01*
G01X0017900Y0009117D01*
G01X0017897Y0009120D01*
G01X0017896Y0009120D01*
G01X0017896Y0009121D01*
G01X0017892Y0009122D01*
G01X0017888Y0009124D01*
G01X0017887Y0009124D01*
G01X0017887Y0009124D01*
G01X0017880Y0009125D01*
G01X0017845Y0009125D01*
G01X0017625Y0009345D01*
G01X0017625Y0009380D01*
G01X0017625Y0009380D01*
G01X0017625Y0009380D01*
G01X0017625Y0009381D01*
G01X0017625Y0009381D01*
G01X0017625Y0009382D01*
G01X0017624Y0009386D01*
G01X0017623Y0009390D01*
G01X0017623Y0009390D01*
G01X0017623Y0009391D01*
G01X0017621Y0009395D01*
G01X0017619Y0009398D01*
G01X0017618Y0009399D01*
G01X0017618Y0009399D01*
G01X0017615Y0009402D01*
G01X0017612Y0009405D01*
G01X0017611Y0009405D01*
G01X0017611Y0009406D01*
G01X0017607Y0009407D01*
G01X0017603Y0009409D01*
G01X0017602Y0009409D01*
G01X0017602Y0009409D01*
G01X0017595Y0009410D01*
G01X0017219Y0009410D01*
G01X0017216Y0009409D01*
G01X0017212Y0009409D01*
G01X0017211Y0009409D01*
G01X0017210Y0009408D01*
G01X0017207Y0009407D01*
G01X0017203Y0009405D01*
G01X0017202Y0009404D01*
G01X0017201Y0009404D01*
G01X0017200Y0009403D01*
G01X0017198Y0009401D01*
G01X0016317Y0008520D01*
G01X0013501Y0008520D01*
G01X0013220Y0008801D01*
G01X0013220Y0009199D01*
G01X0014401Y0010380D01*
G01X0014403Y0010383D01*
G01X0014406Y0010386D01*
G01X0014406Y0010387D01*
G01X0014407Y0010388D01*
G01X0014408Y0010391D01*
G01X0014409Y0010395D01*
G01X0014409Y0010396D01*
G01X0014410Y0010397D01*
G01X0014410Y0010398D01*
G01X0014410Y0010401D01*
G01X0014410Y0013580D01*
G01X0014410Y0013581D01*
G01X0014410Y0013582D01*
G01X0014409Y0013586D01*
G01X0014408Y0013590D01*
G01X0014408Y0013590D01*
G01X0014408Y0013591D01*
G01X0014406Y0013595D01*
G01X0014404Y0013598D01*
G01X0014403Y0013599D01*
G01X0014403Y0013599D01*
G01X0014400Y0013602D01*
G01X0014397Y0013605D01*
G01X0014396Y0013605D01*
G01X0014396Y0013606D01*
G01X0014392Y0013607D01*
G01X0014388Y0013609D01*
G01X0014387Y0013609D01*
G01X0014387Y0013609D01*
G01X0014380Y0013610D01*
G01X0014338Y0013610D01*
G01X0014110Y0013838D01*
G01X0014110Y0014162D01*
G01X0014338Y0014390D01*
G01X0014662Y0014390D01*
G01X0014890Y0014162D01*
G01X0014890Y0013838D01*
G01X0014662Y0013610D01*
G01X0014620Y0013610D01*
G01X0014619Y0013610D01*
G01X0014618Y0013610D01*
G01X0014614Y0013609D01*
G01X0014610Y0013608D01*
G01X0014610Y0013608D01*
G01X0014609Y0013608D01*
G01X0014605Y0013606D01*
G01X0014602Y0013604D01*
G01X0014601Y0013603D01*
G01X0014601Y0013603D01*
G01X0014598Y0013600D01*
G01X0014595Y0013597D01*
G01X0014595Y0013596D01*
G01X0014594Y0013596D01*
G01X0014593Y0013592D01*
G01X0014591Y0013588D01*
G01X0014591Y0013587D01*
G01X0014591Y0013587D01*
G01X0014590Y0013580D01*
G01X0014590Y0010314D01*
G01X0014529Y0010253D01*
G01X0013687Y0009411D01*
G01X0013685Y0009409D01*
G01X0013683Y0009407D01*
G01X0013682Y0009405D01*
G01X0013681Y0009403D01*
G01X0013680Y0009401D01*
G01X0013679Y0009398D01*
G01X0013679Y0009396D01*
G01X0013678Y0009394D01*
G01X0013679Y0009391D01*
G01X0013678Y0009388D01*
G01X0013679Y0009386D01*
G01X0013679Y0009384D01*
G01X0013680Y0009382D01*
G01X0013680Y0009379D01*
G01X0013681Y0009377D01*
G01X0013682Y0009375D01*
G01X0013684Y0009373D01*
G01X0013685Y0009371D01*
G01X0013687Y0009369D01*
G01X0013688Y0009368D01*
G01X0013690Y0009366D01*
G01X0013693Y0009364D01*
G01X0013694Y0009364D01*
G01X0013696Y0009362D01*
G01X0013699Y0009362D01*
G01X0013702Y0009361D01*
G01X0013704Y0009360D01*
G01X0013706Y0009360D01*
G01X0013707Y0009360D01*
G01X0013708Y0009360D01*
G01X0014372Y0009360D01*
G01X0014504Y0009305D01*
G01X0014605Y0009204D01*
G01X0014645Y0009109D01*
G01X0014647Y0009105D01*
G01X0014649Y0009101D01*
G01X0014650Y0009101D01*
G01X0014650Y0009100D01*
G01X0014653Y0009097D01*
G01X0014657Y0009094D01*
G01X0014657Y0009094D01*
G01X0014657Y0009094D01*
G01X0014662Y0009092D01*
G01X0014666Y0009091D01*
G01X0014666Y0009091D01*
G01X0014666Y0009091D01*
G01X0014667Y0009091D01*
G01X0014672Y0009090D01*
G01X0015663Y0009090D01*
G01X0015666Y0009091D01*
G01X0015670Y0009091D01*
G01X0015671Y0009091D01*
G01X0015672Y0009092D01*
G01X0015676Y0009093D01*
G01X0015679Y0009095D01*
G01X0015680Y0009096D01*
G01X0015681Y0009096D01*
G01X0015682Y0009097D01*
G01X0015684Y0009099D01*
G01X0017175Y0010590D01*
G01X0017611Y0010590D01*
G01X0017616Y0010591D01*
G01X0017620Y0010591D01*
G01X0017621Y0010592D01*
G01X0017621Y0010592D01*
G01X0017625Y0010594D01*
G01X0017629Y0010596D01*
G01X0017629Y0010596D01*
G01X0017629Y0010596D01*
G01X0017633Y0010599D01*
G01X0017636Y0010603D01*
G01X0017636Y0010603D01*
G01X0017636Y0010603D01*
G01X0017636Y0010604D01*
G01X0017639Y0010609D01*
G01X0017682Y0010712D01*
G01X0017705Y0010735D01*
G01X0017706Y0010736D01*
G01X0017706Y0010737D01*
G01X0017708Y0010740D01*
G01X0017711Y0010743D01*
G01X0017711Y0010744D01*
G01X0017711Y0010745D01*
G01X0017712Y0010749D01*
G01X0017714Y0010753D01*
G01X0017714Y0010753D01*
G01X0017714Y0010754D01*
G01X0017713Y0010758D01*
G01X0017713Y0010762D01*
G01X0017713Y0010763D01*
G01X0017713Y0010764D01*
G01X0017711Y0010768D01*
G01X0017710Y0010771D01*
G01X0017710Y0010772D01*
G01X0017709Y0010773D01*
G01X0017705Y0010778D01*
G01X0017260Y0011223D01*
G01X0017260Y0011735D01*
G01X0017260Y0011738D01*
G01X0017259Y0011741D01*
G01X0017259Y0011743D01*
G01X0017258Y0011745D01*
G01X0017257Y0011747D01*
G01X0017256Y0011750D01*
G01X0017255Y0011751D01*
G01X0017254Y0011753D01*
G01X0017252Y0011755D01*
G01X0017250Y0011757D01*
G01X0017248Y0011758D01*
G01X0017247Y0011760D01*
G01X0017244Y0011761D01*
G01X0017242Y0011763D01*
G01X0017240Y0011763D01*
G01X0017238Y0011764D01*
G01X0017235Y0011764D01*
G01X0017233Y0011765D01*
G01X0017231Y0011765D01*
G01X0017228Y0011765D01*
G01X0017226Y0011764D01*
G01X0017223Y0011764D01*
G01X0017221Y0011763D01*
G01X0017219Y0011763D01*
G01X0017217Y0011761D01*
G01X0017214Y0011760D01*
G01X0017212Y0011759D01*
G01X0017211Y0011758D01*
G01X0017210Y0011757D01*
G01X0017209Y0011756D01*
G01X0017133Y0011680D01*
G01X0016867Y0011680D01*
G01X0016680Y0011867D01*
G01X0016680Y0012133D01*
G01X0016689Y0012141D01*
G01X0016689Y0012142D01*
G01X0016690Y0012143D01*
G01X0016692Y0012146D01*
G01X0016695Y0012149D01*
G01X0016695Y0012150D01*
G01X0016695Y0012151D01*
G01X0016696Y0012155D01*
G01X0016697Y0012159D01*
G01X0016697Y0012159D01*
G01X0016698Y0012160D01*
G01X0016697Y0012164D01*
G01X0016697Y0012168D01*
G01X0016697Y0012169D01*
G01X0016697Y0012170D01*
G01X0016695Y0012174D01*
G01X0016694Y0012177D01*
G01X0016693Y0012178D01*
G01X0016693Y0012179D01*
G01X0016689Y0012184D01*
G01X0015472Y0013401D01*
G01X0015410Y0013463D01*
G01X0015410Y0013580D01*
G01X0015410Y0013581D01*
G01X0015410Y0013582D01*
G01X0015409Y0013586D01*
G01X0015408Y0013590D01*
G01X0015408Y0013590D01*
G01X0015408Y0013591D01*
G01X0015406Y0013595D01*
G01X0015404Y0013598D01*
G01X0015403Y0013599D01*
G01X0015403Y0013599D01*
G01X0015400Y0013602D01*
G01X0015397Y0013605D01*
G01X0015396Y0013605D01*
G01X0015396Y0013606D01*
G01X0015392Y0013607D01*
G01X0015388Y0013609D01*
G01X0015387Y0013609D01*
G01X0015387Y0013609D01*
G01X0015380Y0013610D01*
G01X0015338Y0013610D01*
G01X0015110Y0013838D01*
G01X0015110Y0014162D01*
G01X0015338Y0014390D01*
G01X0015662Y0014390D01*
G01X0015890Y0014162D01*
G01X0015890Y0013838D01*
G01X0015662Y0013610D01*
G01X0015620Y0013610D01*
G01X0015619Y0013610D01*
G01X0015618Y0013610D01*
G01X0015614Y0013609D01*
G01X0015610Y0013608D01*
G01X0015610Y0013608D01*
G01X0015609Y0013608D01*
G01X0015605Y0013606D01*
G01X0015602Y0013604D01*
G01X0015601Y0013603D01*
G01X0015601Y0013603D01*
G01X0015598Y0013600D01*
G01X0015595Y0013597D01*
G01X0015595Y0013596D01*
G01X0015594Y0013596D01*
G01X0015593Y0013592D01*
G01X0015591Y0013588D01*
G01X0015591Y0013587D01*
G01X0015591Y0013587D01*
G01X0015590Y0013580D01*
G01X0015590Y0013550D01*
G01X0015591Y0013546D01*
G01X0015591Y0013543D01*
G01X0015591Y0013541D01*
G01X0015592Y0013540D01*
G01X0015593Y0013537D01*
G01X0015595Y0013534D01*
G01X0015596Y0013532D01*
G01X0015596Y0013532D01*
G01X0015597Y0013531D01*
G01X0015599Y0013529D01*
G01X0016816Y0012311D01*
G01X0016817Y0012311D01*
G01X0016817Y0012310D01*
G01X0016821Y0012308D01*
G01X0016824Y0012305D01*
G01X0016825Y0012305D01*
G01X0016825Y0012305D01*
G01X0016829Y0012304D01*
G01X0016833Y0012303D01*
G01X0016834Y0012303D01*
G01X0016835Y0012302D01*
G01X0016839Y0012303D01*
G01X0016843Y0012303D01*
G01X0016844Y0012303D01*
G01X0016844Y0012303D01*
G01X0016848Y0012305D01*
G01X0016852Y0012306D01*
G01X0016853Y0012307D01*
G01X0016853Y0012307D01*
G01X0016859Y0012311D01*
G01X0016867Y0012320D01*
G01X0016975Y0012320D01*
G01X0016978Y0012320D01*
G01X0016981Y0012321D01*
G01X0016983Y0012321D01*
G01X0016985Y0012322D01*
G01X0016987Y0012323D01*
G01X0016990Y0012324D01*
G01X0016992Y0012325D01*
G01X0016993Y0012326D01*
G01X0016995Y0012328D01*
G01X0016998Y0012330D01*
G01X0016999Y0012332D01*
G01X0017000Y0012333D01*
G01X0017001Y0012336D01*
G01X0017003Y0012338D01*
G01X0017003Y0012340D01*
G01X0017004Y0012342D01*
G01X0017004Y0012345D01*
G01X0017005Y0012347D01*
G01X0017005Y0012349D01*
G01X0017005Y0012352D01*
G01X0017005Y0012354D01*
G01X0017004Y0012357D01*
G01X0017004Y0012359D01*
G01X0017003Y0012361D01*
G01X0017002Y0012363D01*
G01X0017001Y0012366D01*
G01X0016999Y0012368D01*
G01X0016998Y0012369D01*
G01X0016998Y0012370D01*
G01X0016996Y0012371D01*
G01X0016910Y0012458D01*
G01X0016910Y0014650D01*
G01X0016910Y0014651D01*
G01X0016910Y0014652D01*
G01X0016909Y0014656D01*
G01X0016908Y0014660D01*
G01X0016908Y0014660D01*
G01X0016908Y0014661D01*
G01X0016906Y0014665D01*
G01X0016904Y0014668D01*
G01X0016903Y0014669D01*
G01X0016903Y0014669D01*
G01X0016900Y0014672D01*
G01X0016897Y0014675D01*
G01X0016896Y0014675D01*
G01X0016896Y0014676D01*
G01X0016892Y0014677D01*
G01X0016888Y0014679D01*
G01X0016887Y0014679D01*
G01X0016887Y0014679D01*
G01X0016880Y0014680D01*
G01X0016867Y0014680D01*
G01X0016680Y0014867D01*
G01X0016680Y0015133D01*
G01X0016867Y0015320D01*
G01X0017133Y0015320D01*
G01X0017320Y0015133D01*
G01X0017320Y0014867D01*
G01X0017133Y0014680D01*
G01X0017120Y0014680D01*
G01X0017119Y0014680D01*
G01X0017118Y0014680D01*
G01X0017114Y0014679D01*
G01X0017110Y0014678D01*
G01X0017110Y0014678D01*
G01X0017109Y0014678D01*
G01X0017105Y0014676D01*
G01X0017102Y0014674D01*
G01X0017101Y0014673D01*
G01X0017101Y0014673D01*
G01X0017098Y0014670D01*
G01X0017095Y0014667D01*
G01X0017095Y0014666D01*
G01X0017094Y0014666D01*
G01X0017093Y0014662D01*
G01X0017091Y0014658D01*
G01X0017091Y0014657D01*
G01X0017091Y0014657D01*
G01X0017090Y0014650D01*
G01X0017090Y0012545D01*
G01X0017091Y0012541D01*
G01X0017091Y0012538D01*
G01X0017091Y0012536D01*
G01X0017092Y0012535D01*
G01X0017093Y0012532D01*
G01X0017095Y0012529D01*
G01X0017096Y0012527D01*
G01X0017096Y0012527D01*
G01X0017097Y0012526D01*
G01X0017099Y0012523D01*
G01X0017440Y0012182D01*
G01X0017440Y0011310D01*
G01X0017441Y0011306D01*
G01X0017441Y0011303D01*
G01X0017441Y0011302D01*
G01X0017442Y0011300D01*
G01X0017443Y0011297D01*
G01X0017445Y0011294D01*
G01X0017446Y0011293D01*
G01X0017446Y0011292D01*
G01X0017447Y0011291D01*
G01X0017449Y0011289D01*
G01X0017867Y0010871D01*
G01X0017871Y0010868D01*
G01X0017874Y0010865D01*
G01X0017874Y0010865D01*
G01X0017875Y0010865D01*
G01X0017879Y0010864D01*
G01X0017883Y0010862D01*
G01X0017884Y0010862D01*
G01X0017884Y0010862D01*
G01X0017888Y0010862D01*
G01X0017893Y0010862D01*
G01X0017893Y0010863D01*
G01X0017894Y0010863D01*
G01X0017894Y0010863D01*
G01X0017899Y0010864D01*
G01X0017925Y0010875D01*
G01X0018075Y0010875D01*
G01X0018212Y0010818D01*
G01X0018318Y0010712D01*
G01X0018361Y0010609D01*
G01X0018363Y0010605D01*
G01X0018366Y0010601D01*
G01X0018366Y0010601D01*
G01X0018366Y0010600D01*
G01X0018370Y0010597D01*
G01X0018373Y0010594D01*
G01X0018373Y0010594D01*
G01X0018374Y0010594D01*
G01X0018378Y0010592D01*
G01X0018382Y0010591D01*
G01X0018382Y0010591D01*
G01X0018383Y0010591D01*
G01X0018383Y0010591D01*
G01X0018389Y0010590D01*
G01X0021950Y0010590D01*
G01X0021954Y0010591D01*
G01X0021957Y0010591D01*
G01X0021959Y0010591D01*
G01X0021960Y0010592D01*
G01X0021963Y0010593D01*
G01X0021966Y0010595D01*
G01X0021968Y0010596D01*
G01X0021968Y0010596D01*
G01X0021969Y0010597D01*
G01X0021972Y0010599D01*
G01X0023689Y0012316D01*
G01X0023689Y0012317D01*
G01X0023690Y0012317D01*
G01X0023692Y0012321D01*
G01X0023695Y0012324D01*
G01X0023695Y0012325D01*
G01X0023695Y0012325D01*
G01X0023696Y0012329D01*
G01X0023697Y0012333D01*
G01X0023697Y0012334D01*
G01X0023698Y0012335D01*
G01X0023697Y0012339D01*
G01X0023697Y0012343D01*
G01X0023697Y0012344D01*
G01X0023697Y0012344D01*
G01X0023695Y0012348D01*
G01X0023694Y0012352D01*
G01X0023693Y0012353D01*
G01X0023693Y0012353D01*
G01X0023689Y0012359D01*
G01X0023680Y0012367D01*
G01X0023680Y0012633D01*
G01X0023867Y0012820D01*
G01X0024133Y0012820D01*
G01X0024320Y0012633D01*
G01X0024320Y0012620D01*
G01X0024320Y0012619D01*
G01X0024320Y0012618D01*
G01X0024321Y0012614D01*
G01X0024322Y0012610D01*
G01X0024322Y0012610D01*
G01X0024322Y0012609D01*
G01X0024324Y0012605D01*
G01X0024326Y0012602D01*
G01X0024327Y0012601D01*
G01X0024327Y0012601D01*
G01X0024330Y0012598D01*
G01X0024333Y0012595D01*
G01X0024334Y0012595D01*
G01X0024334Y0012594D01*
G01X0024338Y0012593D01*
G01X0024342Y0012591D01*
G01X0024343Y0012591D01*
G01X0024343Y0012591D01*
G01X0024350Y0012590D01*
G01X0026950Y0012590D01*
G01X0026954Y0012591D01*
G01X0026957Y0012591D01*
G01X0026959Y0012591D01*
G01X0026960Y0012592D01*
G01X0026963Y0012593D01*
G01X0026966Y0012595D01*
G01X0026968Y0012596D01*
G01X0026968Y0012596D01*
G01X0026969Y0012597D01*
G01X0026972Y0012599D01*
G01X0029015Y0014642D01*
G01X0029016Y0014644D01*
G01X0029017Y0014645D01*
G01X0029019Y0014648D01*
G01X0029021Y0014650D01*
G01X0029021Y0014652D01*
G01X0029022Y0014653D01*
G01X0029022Y0014656D01*
G01X0029023Y0014659D01*
G01X0029023Y0014661D01*
G01X0029024Y0014663D01*
G01X0029023Y0014666D01*
G01X0029023Y0014669D01*
G01X0029022Y0014671D01*
G01X0029022Y0014672D01*
G01X0029021Y0014675D01*
G01X0029020Y0014678D01*
G01X0029019Y0014679D01*
G01X0029018Y0014681D01*
G01X0029016Y0014683D01*
G01X0029014Y0014686D01*
G01X0029012Y0014687D01*
G01X0029011Y0014688D01*
G01X0029006Y0014690D01*
G01X0029006Y0014691D01*
G01X0029005Y0014691D01*
G01X0029005Y0014691D01*
G01X0028996Y0014695D01*
G01X0028895Y0014796D01*
G01X0028855Y0014891D01*
G01X0028853Y0014895D01*
G01X0028851Y0014899D01*
G01X0028850Y0014899D01*
G01X0028850Y0014900D01*
G01X0028847Y0014903D01*
G01X0028843Y0014906D01*
G01X0028843Y0014906D01*
G01X0028843Y0014906D01*
G01X0028838Y0014908D01*
G01X0028834Y0014909D01*
G01X0028834Y0014909D01*
G01X0028834Y0014909D01*
G01X0028833Y0014909D01*
G01X0028828Y0014910D01*
G01X0028050Y0014910D01*
G01X0028046Y0014909D01*
G01X0028043Y0014909D01*
G01X0028041Y0014909D01*
G01X0028040Y0014908D01*
G01X0028037Y0014907D01*
G01X0028034Y0014905D01*
G01X0028032Y0014904D01*
G01X0028032Y0014904D01*
G01X0028031Y0014903D01*
G01X0028029Y0014901D01*
G01X0027327Y0014200D01*
G01X0027324Y0014196D01*
G01X0027322Y0014192D01*
G01X0027321Y0014192D01*
G01X0027321Y0014192D01*
G01X0027320Y0014187D01*
G01X0027319Y0014183D01*
G01X0027319Y0014183D01*
G01X0027318Y0014183D01*
G01X0027319Y0014178D01*
G01X0027319Y0014176D01*
G01X0027319Y0014176D01*
G01X0027319Y0014176D01*
G01X0027319Y0014173D01*
G01X0027319Y0014173D01*
G01X0027319Y0014173D01*
G01X0027319Y0014172D01*
G01X0027320Y0014167D01*
G01X0027360Y0014072D01*
G01X0027360Y0013928D01*
G01X0027305Y0013796D01*
G01X0027204Y0013695D01*
G01X0027072Y0013640D01*
G01X0026928Y0013640D01*
G01X0026796Y0013695D01*
G01X0026695Y0013796D01*
G01X0026640Y0013928D01*
G01X0026640Y0014072D01*
G01X0026695Y0014204D01*
G01X0026796Y0014305D01*
G01X0026928Y0014360D01*
G01X0027072Y0014360D01*
G01X0027167Y0014320D01*
G01X0027171Y0014319D01*
G01X0027176Y0014318D01*
G01X0027176Y0014318D01*
G01X0027176Y0014318D01*
G01X0027181Y0014319D01*
G01X0027186Y0014319D01*
G01X0027186Y0014319D01*
G01X0027186Y0014319D01*
G01X0027190Y0014321D01*
G01X0027195Y0014323D01*
G01X0027195Y0014323D01*
G01X0027195Y0014323D01*
G01X0027196Y0014324D01*
G01X0027200Y0014327D01*
G01X0027901Y0015029D01*
G01X0027963Y0015090D01*
G01X0028828Y0015090D01*
G01X0028832Y0015091D01*
G01X0028837Y0015091D01*
G01X0028837Y0015092D01*
G01X0028837Y0015092D01*
G01X0028841Y0015094D01*
G01X0028845Y0015096D01*
G01X0028845Y0015096D01*
G01X0028846Y0015096D01*
G01X0028849Y0015099D01*
G01X0028852Y0015103D01*
G01X0028852Y0015103D01*
G01X0028852Y0015103D01*
G01X0028853Y0015104D01*
G01X0028855Y0015109D01*
G01X0028895Y0015204D01*
G01X0028996Y0015305D01*
G01X0029128Y0015360D01*
G01X0029572Y0015360D01*
G01X0029575Y0015361D01*
G01X0029579Y0015361D01*
G01X0029580Y0015361D01*
G01X0029581Y0015362D01*
G01X0029585Y0015363D01*
G01X0029588Y0015365D01*
G01X0029589Y0015366D01*
G01X0029590Y0015366D01*
G01X0029591Y0015367D01*
G01X0029593Y0015369D01*
G01X0029773Y0015549D01*
G01X0029775Y0015551D01*
G01X0029777Y0015553D01*
G01X0029778Y0015555D01*
G01X0029779Y0015557D01*
G01X0029780Y0015559D01*
G01X0029781Y0015562D01*
G01X0029781Y0015564D01*
G01X0029782Y0015566D01*
G01X0029781Y0015569D01*
G01X0029782Y0015572D01*
G01X0029781Y0015574D01*
G01X0029781Y0015576D01*
G01X0029780Y0015578D01*
G01X0029780Y0015581D01*
G01X0029779Y0015583D01*
G01X0029778Y0015585D01*
G01X0029776Y0015587D01*
G01X0029775Y0015589D01*
G01X0029773Y0015591D01*
G01X0029772Y0015592D01*
G01X0029770Y0015594D01*
G01X0029767Y0015596D01*
G01X0029766Y0015596D01*
G01X0029764Y0015598D01*
G01X0029761Y0015598D01*
G01X0029758Y0015599D01*
G01X0029756Y0015600D01*
G01X0029754Y0015600D01*
G01X0029753Y0015600D01*
G01X0029752Y0015600D01*
G01X0029560Y0015600D01*
G01X0029560Y0015970D01*
G01X0029560Y0015971D01*
G01X0029560Y0015972D01*
G01X0029559Y0015976D01*
G01X0029558Y0015980D01*
G01X0029558Y0015980D01*
G01X0029558Y0015981D01*
G01X0029556Y0015985D01*
G01X0029554Y0015988D01*
G01X0029553Y0015989D01*
G01X0029553Y0015989D01*
G01X0029550Y0015992D01*
G01X0029547Y0015995D01*
G01X0029546Y0015995D01*
G01X0029546Y0015996D01*
G01X0029542Y0015997D01*
G01X0029538Y0015999D01*
G01X0029537Y0015999D01*
G01X0029537Y0015999D01*
G01X0029530Y0016000D01*
G01X0029500Y0016000D01*
G01X0029500Y0016000D01*
G01X0029530Y0016000D01*
G01X0029531Y0016000D01*
G01X0029532Y0016000D01*
G01X0029536Y0016001D01*
G01X0029540Y0016002D01*
G01X0029540Y0016002D01*
G01X0029541Y0016002D01*
G01X0029545Y0016004D01*
G01X0029548Y0016006D01*
G01X0029549Y0016007D01*
G01X0029549Y0016007D01*
G01X0029552Y0016010D01*
G01X0029555Y0016013D01*
G01X0029555Y0016014D01*
G01X0029556Y0016014D01*
G01X0029557Y0016018D01*
G01X0029559Y0016022D01*
G01X0029559Y0016023D01*
G01X0029559Y0016023D01*
G01X0029560Y0016030D01*
G01X0029560Y0016400D01*
G01X0029831Y0016400D01*
G01X0029894Y0016390D01*
G01X0029954Y0016371D01*
G01X0030010Y0016342D01*
G01X0030052Y0016311D01*
G01X0030053Y0016311D01*
G01X0030053Y0016311D01*
G01X0030057Y0016309D01*
G01X0030061Y0016307D01*
G01X0030061Y0016307D01*
G01X0030062Y0016306D01*
G01X0030066Y0016306D01*
G01X0030071Y0016305D01*
G01X0030071Y0016305D01*
G01X0030072Y0016305D01*
G01X0030076Y0016306D01*
G01X0030080Y0016307D01*
G01X0030081Y0016307D01*
G01X0030081Y0016307D01*
G01X0030085Y0016310D01*
G01X0030089Y0016312D01*
G01X0030089Y0016312D01*
G01X0030089Y0016312D01*
G01X0030092Y0016316D01*
G01X0030095Y0016319D01*
G01X0030095Y0016319D01*
G01X0030096Y0016320D01*
G01X0030097Y0016324D01*
G01X0030099Y0016328D01*
G01X0030099Y0016328D01*
G01X0030099Y0016329D01*
G01X0030100Y0016335D01*
G01X0030100Y0016718D01*
G01X0030100Y0016721D01*
G01X0030099Y0016724D01*
G01X0030099Y0016726D01*
G01X0030098Y0016728D01*
G01X0030097Y0016731D01*
G01X0030096Y0016733D01*
G01X0030095Y0016735D01*
G01X0030094Y0016737D01*
G01X0030092Y0016739D01*
G01X0030090Y0016741D01*
G01X0030088Y0016742D01*
G01X0030087Y0016743D01*
G01X0030084Y0016744D01*
G01X0030082Y0016746D01*
G01X0030080Y0016746D01*
G01X0030078Y0016747D01*
G01X0030075Y0016748D01*
G01X0030073Y0016748D01*
G01X0030071Y0016748D01*
G01X0030068Y0016748D01*
G01X0030066Y0016748D01*
G01X0030063Y0016748D01*
G01X0030061Y0016747D01*
G01X0030059Y0016746D01*
G01X0030057Y0016745D01*
G01X0030054Y0016744D01*
G01X0030052Y0016742D01*
G01X0030051Y0016741D01*
G01X0030050Y0016741D01*
G01X0030049Y0016740D01*
G01X0030004Y0016695D01*
G01X0029872Y0016640D01*
G01X0029128Y0016640D01*
G01X0028996Y0016695D01*
G01X0028895Y0016796D01*
G01X0028855Y0016891D01*
G01X0028853Y0016895D01*
G01X0028851Y0016899D01*
G01X0028850Y0016899D01*
G01X0028850Y0016900D01*
G01X0028847Y0016903D01*
G01X0028843Y0016906D01*
G01X0028843Y0016906D01*
G01X0028843Y0016906D01*
G01X0028838Y0016908D01*
G01X0028834Y0016909D01*
G01X0028834Y0016909D01*
G01X0028834Y0016909D01*
G01X0028833Y0016909D01*
G01X0028828Y0016910D01*
G01X0024850Y0016910D01*
G01X0024849Y0016910D01*
G01X0024848Y0016910D01*
G01X0024844Y0016909D01*
G01X0024840Y0016908D01*
G01X0024840Y0016908D01*
G01X0024839Y0016908D01*
G01X0024835Y0016906D01*
G01X0024832Y0016904D01*
G01X0024831Y0016903D01*
G01X0024831Y0016903D01*
G01X0024828Y0016900D01*
G01X0024825Y0016897D01*
G01X0024825Y0016896D01*
G01X0024824Y0016896D01*
G01X0024823Y0016892D01*
G01X0024821Y0016888D01*
G01X0024821Y0016887D01*
G01X0024821Y0016887D01*
G01X0024820Y0016880D01*
G01X0024820Y0016867D01*
G01X0024633Y0016680D01*
G01X0024367Y0016680D01*
G01X0024180Y0016867D01*
G01X0024180Y0017133D01*
G01X0024367Y0017320D01*
G01X0024633Y0017320D01*
G01X0024820Y0017133D01*
G01X0024820Y0017120D01*
G01X0024820Y0017119D01*
G01X0024820Y0017118D01*
G01X0024821Y0017114D01*
G01X0024822Y0017110D01*
G01X0024822Y0017110D01*
G01X0024822Y0017109D01*
G01X0024824Y0017105D01*
G01X0024826Y0017102D01*
G01X0024827Y0017101D01*
G01X0024827Y0017101D01*
G01X0024830Y0017098D01*
G01X0024833Y0017095D01*
G01X0024834Y0017095D01*
G01X0024834Y0017094D01*
G01X0024838Y0017093D01*
G01X0024842Y0017091D01*
G01X0024843Y0017091D01*
G01X0024843Y0017091D01*
G01X0024850Y0017090D01*
G01X0028828Y0017090D01*
G01X0028832Y0017091D01*
G01X0028837Y0017091D01*
G01X0028837Y0017092D01*
G01X0028837Y0017092D01*
G01X0028841Y0017094D01*
G01X0028845Y0017096D01*
G01X0028845Y0017096D01*
G01X0028846Y0017096D01*
G01X0028849Y0017099D01*
G01X0028852Y0017103D01*
G01X0028852Y0017103D01*
G01X0028852Y0017103D01*
G01X0028853Y0017104D01*
G01X0028855Y0017109D01*
G01X0028895Y0017204D01*
G01X0028996Y0017305D01*
G01X0029128Y0017360D01*
G01X0029872Y0017360D01*
G01X0030004Y0017305D01*
G01X0030049Y0017260D01*
G01X0030051Y0017259D01*
G01X0030053Y0017257D01*
G01X0030055Y0017256D01*
G01X0030057Y0017255D01*
G01X0030059Y0017254D01*
G01X0030062Y0017253D01*
G01X0030064Y0017252D01*
G01X0030066Y0017252D01*
G01X0030069Y0017252D01*
G01X0030072Y0017252D01*
G01X0030074Y0017252D01*
G01X0030076Y0017252D01*
G01X0030078Y0017253D01*
G01X0030081Y0017254D01*
G01X0030083Y0017255D01*
G01X0030085Y0017255D01*
G01X0030087Y0017257D01*
G01X0030089Y0017259D01*
G01X0030091Y0017260D01*
G01X0030092Y0017261D01*
G01X0030094Y0017264D01*
G01X0030096Y0017266D01*
G01X0030096Y0017268D01*
G01X0030098Y0017270D01*
G01X0030098Y0017272D01*
G01X0030099Y0017275D01*
G01X0030100Y0017278D01*
G01X0030100Y0017279D01*
G01X0030100Y0017280D01*
G01X0030100Y0017282D01*
G01X0030100Y0017718D01*
G01X0030100Y0017721D01*
G01X0030099Y0017724D01*
G01X0030099Y0017726D01*
G01X0030098Y0017728D01*
G01X0030097Y0017731D01*
G01X0030096Y0017733D01*
G01X0030095Y0017735D01*
G01X0030094Y0017737D01*
G01X0030092Y0017739D01*
G01X0030090Y0017741D01*
G01X0030088Y0017742D01*
G01X0030087Y0017743D01*
G01X0030084Y0017744D01*
G01X0030082Y0017746D01*
G01X0030080Y0017746D01*
G01X0030078Y0017747D01*
G01X0030075Y0017748D01*
G01X0030073Y0017748D01*
G01X0030071Y0017748D01*
G01X0030068Y0017748D01*
G01X0030066Y0017748D01*
G01X0030063Y0017748D01*
G01X0030061Y0017747D01*
G01X0030059Y0017746D01*
G01X0030057Y0017745D01*
G01X0030054Y0017744D01*
G01X0030052Y0017742D01*
G01X0030051Y0017741D01*
G01X0030050Y0017741D01*
G01X0030049Y0017740D01*
G01X0030004Y0017695D01*
G01X0029872Y0017640D01*
G01X0029128Y0017640D01*
G01X0028996Y0017695D01*
G01X0028895Y0017796D01*
G01X0028855Y0017891D01*
G01X0028853Y0017895D01*
G01X0028851Y0017899D01*
G01X0028850Y0017899D01*
G01X0028850Y0017900D01*
G01X0028847Y0017903D01*
G01X0028843Y0017906D01*
G01X0028843Y0017906D01*
G01X0028843Y0017906D01*
G01X0028838Y0017908D01*
G01X0028834Y0017909D01*
G01X0028834Y0017909D01*
G01X0028834Y0017909D01*
G01X0028833Y0017909D01*
G01X0028828Y0017910D01*
G01X0021894Y0017910D01*
G01X0021890Y0017909D01*
G01X0021885Y0017909D01*
G01X0021885Y0017908D01*
G01X0021885Y0017908D01*
G01X0021880Y0017906D01*
G01X0021876Y0017904D01*
G01X0021876Y0017904D01*
G01X0021876Y0017904D01*
G01X0021873Y0017901D01*
G01X0021870Y0017897D01*
G01X0021869Y0017897D01*
G01X0021869Y0017897D01*
G01X0021869Y0017896D01*
G01X0021866Y0017891D01*
G01X0021822Y0017785D01*
G01X0021715Y0017678D01*
G01X0021576Y0017620D01*
G01X0021424Y0017620D01*
G01X0021285Y0017678D01*
G01X0021178Y0017785D01*
G01X0021120Y0017924D01*
G01X0021120Y0018076D01*
G01X0021178Y0018215D01*
G01X0021285Y0018322D01*
G01X0021424Y0018380D01*
G01X0021576Y0018380D01*
G01X0021715Y0018322D01*
G01X0021822Y0018215D01*
G01X0021866Y0018109D01*
G01X0021869Y0018105D01*
G01X0021871Y0018101D01*
G01X0021871Y0018101D01*
G01X0021871Y0018100D01*
G01X0021875Y0018097D01*
G01X0021878Y0018094D01*
G01X0021879Y0018094D01*
G01X0021879Y0018094D01*
G01X0021883Y0018092D01*
G01X0021887Y0018091D01*
G01X0021888Y0018091D01*
G01X0021888Y0018091D01*
G01X0021889Y0018091D01*
G01X0021894Y0018090D01*
G01X0028828Y0018090D01*
G01X0028832Y0018091D01*
G01X0028837Y0018091D01*
G01X0028837Y0018092D01*
G01X0028837Y0018092D01*
G01X0028841Y0018094D01*
G01X0028845Y0018096D01*
G01X0028845Y0018096D01*
G01X0028846Y0018096D01*
G01X0028849Y0018099D01*
G01X0028852Y0018103D01*
G01X0028852Y0018103D01*
G01X0028852Y0018103D01*
G01X0028853Y0018104D01*
G01X0028855Y0018109D01*
G01X0028895Y0018204D01*
G01X0028996Y0018305D01*
G01X0029128Y0018360D01*
G01X0029872Y0018360D01*
G01X0030004Y0018305D01*
G01X0030049Y0018260D01*
G01X0030051Y0018259D01*
G01X0030053Y0018257D01*
G01X0030055Y0018256D01*
G01X0030057Y0018255D01*
G01X0030059Y0018254D01*
G01X0030062Y0018253D01*
G01X0030064Y0018252D01*
G01X0030066Y0018252D01*
G01X0030069Y0018252D01*
G01X0030072Y0018252D01*
G01X0030074Y0018252D01*
G01X0030076Y0018252D01*
G01X0030078Y0018253D01*
G01X0030081Y0018254D01*
G01X0030083Y0018255D01*
G01X0030085Y0018255D01*
G01X0030087Y0018257D01*
G01X0030089Y0018259D01*
G01X0030091Y0018260D01*
G01X0030092Y0018261D01*
G01X0030094Y0018264D01*
G01X0030096Y0018266D01*
G01X0030096Y0018268D01*
G01X0030098Y0018270D01*
G01X0030098Y0018272D01*
G01X0030099Y0018275D01*
G01X0030100Y0018278D01*
G01X0030100Y0018279D01*
G01X0030100Y0018280D01*
G01X0030100Y0018282D01*
G01X0030100Y0018718D01*
G01X0030100Y0018721D01*
G01X0030099Y0018724D01*
G01X0030099Y0018726D01*
G01X0030098Y0018728D01*
G01X0030097Y0018731D01*
G01X0030096Y0018733D01*
G01X0030095Y0018735D01*
G01X0030094Y0018737D01*
G01X0030092Y0018739D01*
G01X0030090Y0018741D01*
G01X0030088Y0018742D01*
G01X0030087Y0018743D01*
G01X0030084Y0018744D01*
G01X0030082Y0018746D01*
G01X0030080Y0018746D01*
G01X0030078Y0018747D01*
G01X0030075Y0018748D01*
G01X0030073Y0018748D01*
G01X0030071Y0018748D01*
G01X0030068Y0018748D01*
G01X0030066Y0018748D01*
G01X0030063Y0018748D01*
G01X0030061Y0018747D01*
G01X0030059Y0018746D01*
G01X0030057Y0018745D01*
G01X0030054Y0018744D01*
G01X0030052Y0018742D01*
G01X0030051Y0018741D01*
G01X0030050Y0018741D01*
G01X0030049Y0018740D01*
G01X0030004Y0018695D01*
G01X0029872Y0018640D01*
G01X0029128Y0018640D01*
G01X0028996Y0018695D01*
G01X0028895Y0018796D01*
G01X0028855Y0018891D01*
G01X0028853Y0018895D01*
G01X0028851Y0018899D01*
G01X0028850Y0018899D01*
G01X0028850Y0018900D01*
G01X0028847Y0018903D01*
G01X0028843Y0018906D01*
G01X0028843Y0018906D01*
G01X0028843Y0018906D01*
G01X0028838Y0018908D01*
G01X0028834Y0018909D01*
G01X0028834Y0018909D01*
G01X0028834Y0018909D01*
G01X0028833Y0018909D01*
G01X0028828Y0018910D01*
G01X0021894Y0018910D01*
G01X0021890Y0018909D01*
G01X0021885Y0018909D01*
G01X0021885Y0018908D01*
G01X0021885Y0018908D01*
G01X0021880Y0018906D01*
G01X0021876Y0018904D01*
G01X0021876Y0018904D01*
G01X0021876Y0018904D01*
G01X0021873Y0018901D01*
G01X0021870Y0018897D01*
G01X0021869Y0018897D01*
G01X0021869Y0018897D01*
G01X0021869Y0018896D01*
G01X0021866Y0018891D01*
G01X0021822Y0018785D01*
G01X0021715Y0018678D01*
G01X0021576Y0018620D01*
G01X0021424Y0018620D01*
G01X0021285Y0018678D01*
G01X0021178Y0018785D01*
G01X0021120Y0018924D01*
G01X0021120Y0019076D01*
G01X0021178Y0019215D01*
G01X0021285Y0019322D01*
G01X0021424Y0019380D01*
G01X0021576Y0019380D01*
G01X0021715Y0019322D01*
G01X0021822Y0019215D01*
G01X0021866Y0019109D01*
G01X0021869Y0019105D01*
G01X0021871Y0019101D01*
G01X0021871Y0019101D01*
G01X0021871Y0019100D01*
G01X0021875Y0019097D01*
G01X0021878Y0019094D01*
G01X0021879Y0019094D01*
G01X0021879Y0019094D01*
G01X0021883Y0019092D01*
G01X0021887Y0019091D01*
G01X0021888Y0019091D01*
G01X0021888Y0019091D01*
G01X0021889Y0019091D01*
G01X0021894Y0019090D01*
G01X0028828Y0019090D01*
G01X0028832Y0019091D01*
G01X0028837Y0019091D01*
G01X0028837Y0019092D01*
G01X0028837Y0019092D01*
G01X0028841Y0019094D01*
G01X0028845Y0019096D01*
G01X0028845Y0019096D01*
G01X0028846Y0019096D01*
G01X0028849Y0019099D01*
G01X0028852Y0019103D01*
G01X0028852Y0019103D01*
G01X0028852Y0019103D01*
G01X0028853Y0019104D01*
G01X0028855Y0019109D01*
G01X0028895Y0019204D01*
G01X0028996Y0019305D01*
G01X0029128Y0019360D01*
G01X0029872Y0019360D01*
G01X0030004Y0019305D01*
G01X0030049Y0019260D01*
G01X0030051Y0019259D01*
G01X0030053Y0019257D01*
G01X0030055Y0019256D01*
G01X0030057Y0019255D01*
G01X0030059Y0019254D01*
G01X0030062Y0019253D01*
G01X0030064Y0019252D01*
G01X0030066Y0019252D01*
G01X0030069Y0019252D01*
G01X0030072Y0019252D01*
G01X0030074Y0019252D01*
G01X0030076Y0019252D01*
G01X0030078Y0019253D01*
G01X0030081Y0019254D01*
G01X0030083Y0019255D01*
G01X0030085Y0019255D01*
G01X0030087Y0019257D01*
G01X0030089Y0019259D01*
G01X0030091Y0019260D01*
G01X0030092Y0019261D01*
G01X0030094Y0019264D01*
G01X0030096Y0019266D01*
G01X0030096Y0019268D01*
G01X0030098Y0019270D01*
G01X0030098Y0019272D01*
G01X0030099Y0019275D01*
G01X0030100Y0019278D01*
G01X0030100Y0019279D01*
G01X0030100Y0019280D01*
G01X0030100Y0019282D01*
G01X0030100Y0019718D01*
G01X0030100Y0019721D01*
G01X0030099Y0019724D01*
G01X0030099Y0019726D01*
G01X0030098Y0019728D01*
G01X0030097Y0019731D01*
G01X0030096Y0019733D01*
G01X0030095Y0019735D01*
G01X0030094Y0019737D01*
G01X0030092Y0019739D01*
G01X0030090Y0019741D01*
G01X0030088Y0019742D01*
G01X0030087Y0019743D01*
G01X0030084Y0019744D01*
G01X0030082Y0019746D01*
G01X0030080Y0019746D01*
G01X0030078Y0019747D01*
G01X0030075Y0019748D01*
G01X0030073Y0019748D01*
G01X0030071Y0019748D01*
G01X0030068Y0019748D01*
G01X0030066Y0019748D01*
G01X0030063Y0019748D01*
G01X0030061Y0019747D01*
G01X0030059Y0019746D01*
G01X0030057Y0019745D01*
G01X0030054Y0019744D01*
G01X0030052Y0019742D01*
G01X0030051Y0019741D01*
G01X0030050Y0019741D01*
G01X0030049Y0019740D01*
G01X0030004Y0019695D01*
G01X0029872Y0019640D01*
G01X0029128Y0019640D01*
G01X0028996Y0019695D01*
G01X0028895Y0019796D01*
G01X0028855Y0019891D01*
G01X0028853Y0019895D01*
G01X0028851Y0019899D01*
G01X0028850Y0019899D01*
G01X0028850Y0019900D01*
G01X0028847Y0019903D01*
G01X0028843Y0019906D01*
G01X0028843Y0019906D01*
G01X0028843Y0019906D01*
G01X0028838Y0019908D01*
G01X0028834Y0019909D01*
G01X0028834Y0019909D01*
G01X0028834Y0019909D01*
G01X0028833Y0019909D01*
G01X0028828Y0019910D01*
G01X0021894Y0019910D01*
G01X0021890Y0019909D01*
G01X0021885Y0019909D01*
G01X0021885Y0019908D01*
G01X0021885Y0019908D01*
G01X0021880Y0019906D01*
G01X0021876Y0019904D01*
G01X0021876Y0019904D01*
G01X0021876Y0019904D01*
G01X0021873Y0019901D01*
G01X0021870Y0019897D01*
G01X0021869Y0019897D01*
G01X0021869Y0019897D01*
G01X0021869Y0019896D01*
G01X0021866Y0019891D01*
G01X0021822Y0019785D01*
G01X0021715Y0019678D01*
G01X0021576Y0019620D01*
G01X0021424Y0019620D01*
G01X0021285Y0019678D01*
G01X0021178Y0019785D01*
G01X0021120Y0019924D01*
G01X0021120Y0020076D01*
G01X0021178Y0020215D01*
G01X0021285Y0020322D01*
G01X0021424Y0020380D01*
G01X0021576Y0020380D01*
G01X0021715Y0020322D01*
G01X0021822Y0020215D01*
G01X0021866Y0020109D01*
G01X0021869Y0020105D01*
G01X0021871Y0020101D01*
G01X0021871Y0020101D01*
G01X0021871Y0020100D01*
G01X0021875Y0020097D01*
G01X0021878Y0020094D01*
G01X0021879Y0020094D01*
G01X0021879Y0020094D01*
G01X0021883Y0020092D01*
G01X0021887Y0020091D01*
G01X0021888Y0020091D01*
G01X0021888Y0020091D01*
G01X0021889Y0020091D01*
G01X0021894Y0020090D01*
G01X0028828Y0020090D01*
G01X0028832Y0020091D01*
G01X0028837Y0020091D01*
G01X0028837Y0020092D01*
G01X0028837Y0020092D01*
G01X0028841Y0020094D01*
G01X0028845Y0020096D01*
G01X0028845Y0020096D01*
G01X0028846Y0020096D01*
G01X0028849Y0020099D01*
G01X0028852Y0020103D01*
G01X0028852Y0020103D01*
G01X0028852Y0020103D01*
G01X0028853Y0020104D01*
G01X0028855Y0020109D01*
G01X0028895Y0020204D01*
G01X0028996Y0020305D01*
G01X0029128Y0020360D01*
G01X0029872Y0020360D01*
G01X0030004Y0020305D01*
G01X0030049Y0020260D01*
G01X0030051Y0020259D01*
G01X0030053Y0020257D01*
G01X0030055Y0020256D01*
G01X0030057Y0020255D01*
G01X0030059Y0020254D01*
G01X0030062Y0020253D01*
G01X0030064Y0020252D01*
G01X0030066Y0020252D01*
G01X0030069Y0020252D01*
G01X0030072Y0020252D01*
G01X0030074Y0020252D01*
G01X0030076Y0020252D01*
G01X0030078Y0020253D01*
G01X0030081Y0020254D01*
G01X0030083Y0020255D01*
G01X0030085Y0020255D01*
G01X0030087Y0020257D01*
G01X0030089Y0020259D01*
G01X0030091Y0020260D01*
G01X0030092Y0020261D01*
G01X0030094Y0020264D01*
G01X0030096Y0020266D01*
G01X0030096Y0020268D01*
G01X0030098Y0020270D01*
G01X0030098Y0020272D01*
G01X0030099Y0020275D01*
G01X0030100Y0020278D01*
G01X0030100Y0020279D01*
G01X0030100Y0020280D01*
G01X0030100Y0020282D01*
G01X0030100Y0020718D01*
G01X0030100Y0020721D01*
G01X0030099Y0020724D01*
G01X0030099Y0020726D01*
G01X0030098Y0020728D01*
G01X0030097Y0020731D01*
G01X0030096Y0020733D01*
G01X0030095Y0020735D01*
G01X0030094Y0020737D01*
G01X0030092Y0020739D01*
G01X0030090Y0020741D01*
G01X0030088Y0020742D01*
G01X0030087Y0020743D01*
G01X0030084Y0020744D01*
G01X0030082Y0020746D01*
G01X0030080Y0020746D01*
G01X0030078Y0020747D01*
G01X0030075Y0020748D01*
G01X0030073Y0020748D01*
G01X0030071Y0020748D01*
G01X0030068Y0020748D01*
G01X0030066Y0020748D01*
G01X0030063Y0020748D01*
G01X0030061Y0020747D01*
G01X0030059Y0020746D01*
G01X0030057Y0020745D01*
G01X0030054Y0020744D01*
G01X0030052Y0020742D01*
G01X0030051Y0020741D01*
G01X0030050Y0020741D01*
G01X0030049Y0020740D01*
G01X0030004Y0020695D01*
G01X0029872Y0020640D01*
G01X0029128Y0020640D01*
G01X0028996Y0020695D01*
G01X0028895Y0020796D01*
G01X0028855Y0020891D01*
G01X0028853Y0020895D01*
G01X0028851Y0020899D01*
G01X0028850Y0020899D01*
G01X0028850Y0020900D01*
G01X0028847Y0020903D01*
G01X0028843Y0020906D01*
G01X0028843Y0020906D01*
G01X0028843Y0020906D01*
G01X0028838Y0020908D01*
G01X0028834Y0020909D01*
G01X0028834Y0020909D01*
G01X0028834Y0020909D01*
G01X0028833Y0020909D01*
G01X0028828Y0020910D01*
G01X0021894Y0020910D01*
G01X0021890Y0020909D01*
G01X0021885Y0020909D01*
G01X0021885Y0020908D01*
G01X0021885Y0020908D01*
G01X0021880Y0020906D01*
G01X0021876Y0020904D01*
G01X0021876Y0020904D01*
G01X0021876Y0020904D01*
G01X0021873Y0020901D01*
G01X0021870Y0020897D01*
G01X0021869Y0020897D01*
G01X0021869Y0020897D01*
G01X0021869Y0020896D01*
G01X0021866Y0020891D01*
G01X0021822Y0020785D01*
G01X0021715Y0020678D01*
G01X0021576Y0020620D01*
G01X0021424Y0020620D01*
G01X0021285Y0020678D01*
G01X0021178Y0020785D01*
G01X0021120Y0020924D01*
G01X0021120Y0021076D01*
G01X0021178Y0021215D01*
G01X0021285Y0021322D01*
G01X0021424Y0021380D01*
G01X0021576Y0021380D01*
G01X0021715Y0021322D01*
G01X0021822Y0021215D01*
G01X0021866Y0021109D01*
G01X0021869Y0021105D01*
G01X0021871Y0021101D01*
G01X0021871Y0021101D01*
G01X0021871Y0021100D01*
G01X0021875Y0021097D01*
G01X0021878Y0021094D01*
G01X0021879Y0021094D01*
G01X0021879Y0021094D01*
G01X0021883Y0021092D01*
G01X0021887Y0021091D01*
G01X0021888Y0021091D01*
G01X0021888Y0021091D01*
G01X0021889Y0021091D01*
G01X0021894Y0021090D01*
G01X0028828Y0021090D01*
G01X0028832Y0021091D01*
G01X0028837Y0021091D01*
G01X0028837Y0021092D01*
G01X0028837Y0021092D01*
G01X0028841Y0021094D01*
G01X0028845Y0021096D01*
G01X0028845Y0021096D01*
G01X0028846Y0021096D01*
G01X0028849Y0021099D01*
G01X0028852Y0021103D01*
G01X0028852Y0021103D01*
G01X0028852Y0021103D01*
G01X0028853Y0021104D01*
G01X0028855Y0021109D01*
G01X0028895Y0021204D01*
G01X0028996Y0021305D01*
G01X0029128Y0021360D01*
G01X0029872Y0021360D01*
G01X0030004Y0021305D01*
G01X0030049Y0021260D01*
G01X0030051Y0021259D01*
G01X0030053Y0021257D01*
G01X0030055Y0021256D01*
G01X0030057Y0021255D01*
G01X0030059Y0021254D01*
G01X0030062Y0021253D01*
G01X0030064Y0021252D01*
G01X0030066Y0021252D01*
G01X0030069Y0021252D01*
G01X0030072Y0021252D01*
G01X0030074Y0021252D01*
G01X0030076Y0021252D01*
G01X0030078Y0021253D01*
G01X0030081Y0021254D01*
G01X0030083Y0021255D01*
G01X0030085Y0021255D01*
G01X0030087Y0021257D01*
G01X0030089Y0021259D01*
G01X0030091Y0021260D01*
G01X0030092Y0021261D01*
G01X0030094Y0021264D01*
G01X0030096Y0021266D01*
G01X0030096Y0021268D01*
G01X0030098Y0021270D01*
G01X0030098Y0021272D01*
G01X0030099Y0021275D01*
G01X0030100Y0021278D01*
G01X0030100Y0021279D01*
G01X0030100Y0021280D01*
G01X0030100Y0021282D01*
G01X0030100Y0021718D01*
G01X0030100Y0021721D01*
G01X0030099Y0021724D01*
G01X0030099Y0021726D01*
G01X0030098Y0021728D01*
G01X0030097Y0021731D01*
G01X0030096Y0021733D01*
G01X0030095Y0021735D01*
G01X0030094Y0021737D01*
G01X0030092Y0021739D01*
G01X0030090Y0021741D01*
G01X0030088Y0021742D01*
G01X0030087Y0021743D01*
G01X0030084Y0021744D01*
G01X0030082Y0021746D01*
G01X0030080Y0021746D01*
G01X0030078Y0021747D01*
G01X0030075Y0021748D01*
G01X0030073Y0021748D01*
G01X0030071Y0021748D01*
G01X0030068Y0021748D01*
G01X0030066Y0021748D01*
G01X0030063Y0021748D01*
G01X0030061Y0021747D01*
G01X0030059Y0021746D01*
G01X0030057Y0021745D01*
G01X0030054Y0021744D01*
G01X0030052Y0021742D01*
G01X0030051Y0021741D01*
G01X0030050Y0021741D01*
G01X0030049Y0021740D01*
G01X0030004Y0021695D01*
G01X0029872Y0021640D01*
G01X0029128Y0021640D01*
G01X0028996Y0021695D01*
G01X0028895Y0021796D01*
G01X0028855Y0021891D01*
G01X0028853Y0021895D01*
G01X0028851Y0021899D01*
G01X0028850Y0021899D01*
G01X0028850Y0021900D01*
G01X0028847Y0021903D01*
G01X0028843Y0021906D01*
G01X0028843Y0021906D01*
G01X0028843Y0021906D01*
G01X0028838Y0021908D01*
G01X0028834Y0021909D01*
G01X0028834Y0021909D01*
G01X0028834Y0021909D01*
G01X0028833Y0021909D01*
G01X0028828Y0021910D01*
G01X0021894Y0021910D01*
G01X0021890Y0021909D01*
G01X0021885Y0021909D01*
G01X0021885Y0021908D01*
G01X0021885Y0021908D01*
G01X0021880Y0021906D01*
G01X0021876Y0021904D01*
G01X0021876Y0021904D01*
G01X0021876Y0021904D01*
G01X0021873Y0021901D01*
G01X0021870Y0021897D01*
G01X0021869Y0021897D01*
G01X0021869Y0021897D01*
G01X0021869Y0021896D01*
G01X0021866Y0021891D01*
G01X0021822Y0021785D01*
G01X0021715Y0021678D01*
G01X0021576Y0021620D01*
G01X0021424Y0021620D01*
G01X0021285Y0021678D01*
G01X0021178Y0021785D01*
G01X0021120Y0021924D01*
G01X0021120Y0022076D01*
G01X0021178Y0022215D01*
G01X0021285Y0022322D01*
G01X0021424Y0022380D01*
G01X0021576Y0022380D01*
G01X0021715Y0022322D01*
G01X0021822Y0022215D01*
G01X0021866Y0022109D01*
G01X0021869Y0022105D01*
G01X0021871Y0022101D01*
G01X0021871Y0022101D01*
G01X0021871Y0022100D01*
G01X0021875Y0022097D01*
G01X0021878Y0022094D01*
G01X0021879Y0022094D01*
G01X0021879Y0022094D01*
G01X0021883Y0022092D01*
G01X0021887Y0022091D01*
G01X0021888Y0022091D01*
G01X0021888Y0022091D01*
G01X0021889Y0022091D01*
G01X0021894Y0022090D01*
G01X0028828Y0022090D01*
G01X0028832Y0022091D01*
G01X0028837Y0022091D01*
G01X0028837Y0022092D01*
G01X0028837Y0022092D01*
G01X0028841Y0022094D01*
G01X0028845Y0022096D01*
G01X0028845Y0022096D01*
G01X0028846Y0022096D01*
G01X0028849Y0022099D01*
G01X0028852Y0022103D01*
G01X0028852Y0022103D01*
G01X0028852Y0022103D01*
G01X0028853Y0022104D01*
G01X0028855Y0022109D01*
G01X0028895Y0022204D01*
G01X0028996Y0022305D01*
G01X0029128Y0022360D01*
G01X0029792Y0022360D01*
G01X0029795Y0022360D01*
G01X0029797Y0022361D01*
G01X0029799Y0022361D01*
G01X0029801Y0022362D01*
G01X0029804Y0022363D01*
G01X0029807Y0022364D01*
G01X0029808Y0022365D01*
G01X0029810Y0022366D01*
G01X0029812Y0022368D01*
G01X0029814Y0022370D01*
G01X0029815Y0022372D01*
G01X0029817Y0022373D01*
G01X0029818Y0022376D01*
G01X0029819Y0022378D01*
G01X0029820Y0022380D01*
G01X0029821Y0022382D01*
G01X0029821Y0022385D01*
G01X0029822Y0022387D01*
G01X0029822Y0022389D01*
G01X0029822Y0022392D01*
G01X0029821Y0022394D01*
G01X0029821Y0022397D01*
G01X0029820Y0022399D01*
G01X0029820Y0022401D01*
G01X0029818Y0022403D01*
G01X0029817Y0022406D01*
G01X0029815Y0022408D01*
G01X0029815Y0022409D01*
G01X0029814Y0022410D01*
G01X0029813Y0022411D01*
G01X0029593Y0022631D01*
G01X0029590Y0022633D01*
G01X0029587Y0022636D01*
G01X0029586Y0022636D01*
G01X0029585Y0022637D01*
G01X0029582Y0022638D01*
G01X0029578Y0022639D01*
G01X0029577Y0022639D01*
G01X0029576Y0022640D01*
G01X0029575Y0022640D01*
G01X0029572Y0022640D01*
G01X0029128Y0022640D01*
G01X0028996Y0022695D01*
G01X0028895Y0022796D01*
G01X0028855Y0022891D01*
G01X0028853Y0022895D01*
G01X0028851Y0022899D01*
G01X0028850Y0022899D01*
G01X0028850Y0022900D01*
G01X0028847Y0022903D01*
G01X0028843Y0022906D01*
G01X0028843Y0022906D01*
G01X0028843Y0022906D01*
G01X0028838Y0022908D01*
G01X0028834Y0022909D01*
G01X0028834Y0022909D01*
G01X0028834Y0022909D01*
G01X0028833Y0022909D01*
G01X0028828Y0022910D01*
G01X0021894Y0022910D01*
G01X0021890Y0022909D01*
G01X0021885Y0022909D01*
G01X0021885Y0022908D01*
G01X0021885Y0022908D01*
G01X0021880Y0022906D01*
G01X0021876Y0022904D01*
G01X0021876Y0022904D01*
G01X0021876Y0022904D01*
G01X0021873Y0022901D01*
G01X0021870Y0022897D01*
G01X0021869Y0022897D01*
G01X0021869Y0022897D01*
G01X0021869Y0022896D01*
G01X0021866Y0022891D01*
G01X0021822Y0022785D01*
G01X0021715Y0022678D01*
G01X0021576Y0022620D01*
G01X0021424Y0022620D01*
G01X0021285Y0022678D01*
G01X0021178Y0022785D01*
G01X0021120Y0022924D01*
G01X0021120Y0023076D01*
G01X0021164Y0023182D01*
G01X0021165Y0023187D01*
G01X0021166Y0023191D01*
G01X0021166Y0023192D01*
G01X0021166Y0023192D01*
G01X0021166Y0023196D01*
G01X0021166Y0023201D01*
G01X0021166Y0023201D01*
G01X0021166Y0023201D01*
G01X0021164Y0023206D01*
G01X0021162Y0023210D01*
G01X0021162Y0023210D01*
G01X0021162Y0023210D01*
G01X0021161Y0023211D01*
G01X0021158Y0023215D01*
G01X0020471Y0023901D01*
G01X0020469Y0023903D01*
G01X0020466Y0023906D01*
G01X0020465Y0023906D01*
G01X0020464Y0023907D01*
G01X0020460Y0023908D01*
G01X0020457Y0023909D01*
G01X0020455Y0023909D01*
G01X0020454Y0023910D01*
G01X0020453Y0023910D01*
G01X0020450Y0023910D01*
G01X0018894Y0023910D01*
G01X0018890Y0023909D01*
G01X0018885Y0023909D01*
G01X0018885Y0023908D01*
G01X0018885Y0023908D01*
G01X0018880Y0023906D01*
G01X0018876Y0023904D01*
G01X0018876Y0023904D01*
G01X0018876Y0023904D01*
G01X0018873Y0023901D01*
G01X0018870Y0023897D01*
G01X0018869Y0023897D01*
G01X0018869Y0023897D01*
G01X0018869Y0023896D01*
G01X0018866Y0023891D01*
G01X0018822Y0023785D01*
G01X0018715Y0023678D01*
G01X0018576Y0023620D01*
G01X0018424Y0023620D01*
G01X0018285Y0023678D01*
G01X0018178Y0023785D01*
G01X0018120Y0023924D01*
G01X0018120Y0024076D01*
G01X0018178Y0024215D01*
G01X0018285Y0024322D01*
G01X0018391Y0024366D01*
G01X0018395Y0024369D01*
G01X0018399Y0024371D01*
G01X0018399Y0024371D01*
G01X0018400Y0024371D01*
G01X0018403Y0024375D01*
G01X0018406Y0024378D01*
G01X0018406Y0024379D01*
G01X0018406Y0024379D01*
G01X0018408Y0024383D01*
G01X0018409Y0024387D01*
G01X0018409Y0024388D01*
G01X0018409Y0024388D01*
G01X0018409Y0024389D01*
G01X0018410Y0024394D01*
G01X0018410Y0024606D01*
G01X0018409Y0024610D01*
G01X0018409Y0024615D01*
G01X0018408Y0024615D01*
G01X0018408Y0024615D01*
G01X0018406Y0024620D01*
G01X0018404Y0024624D01*
G01X0018404Y0024624D01*
G01X0018404Y0024624D01*
G01X0018401Y0024627D01*
G01X0018397Y0024630D01*
G01X0018397Y0024631D01*
G01X0018397Y0024631D01*
G01X0018396Y0024631D01*
G01X0018391Y0024634D01*
G01X0018285Y0024678D01*
G01X0018178Y0024785D01*
G01X0018120Y0024924D01*
G01X0018120Y0025076D01*
G01X0018178Y0025215D01*
G01X0018285Y0025322D01*
G01X0018424Y0025380D01*
G01X0018576Y0025380D01*
G01X0018715Y0025322D01*
G01X0018822Y0025215D01*
G01X0018880Y0025076D01*
G01X0018880Y0024924D01*
G01X0018822Y0024785D01*
G01X0018715Y0024678D01*
G01X0018609Y0024634D01*
G01X0018605Y0024631D01*
G01X0018601Y0024629D01*
G01X0018601Y0024629D01*
G01X0018600Y0024629D01*
G01X0018597Y0024625D01*
G01X0018594Y0024622D01*
G01X0018594Y0024621D01*
G01X0018594Y0024621D01*
G01X0018592Y0024617D01*
G01X0018591Y0024613D01*
G01X0018591Y0024612D01*
G01X0018591Y0024612D01*
G01X0018591Y0024611D01*
G01X0018590Y0024606D01*
G01X0018590Y0024394D01*
G01X0018591Y0024390D01*
G01X0018591Y0024385D01*
G01X0018592Y0024385D01*
G01X0018592Y0024385D01*
G01X0018594Y0024380D01*
G01X0018596Y0024376D01*
G01X0018596Y0024376D01*
G01X0018596Y0024376D01*
G01X0018599Y0024373D01*
G01X0018603Y0024370D01*
G01X0018603Y0024369D01*
G01X0018603Y0024369D01*
G01X0018604Y0024369D01*
G01X0018609Y0024366D01*
G01X0018715Y0024322D01*
G01X0018822Y0024215D01*
G01X0018866Y0024109D01*
G01X0018869Y0024105D01*
G01X0018871Y0024101D01*
G01X0018871Y0024101D01*
G01X0018871Y0024100D01*
G01X0018875Y0024097D01*
G01X0018878Y0024094D01*
G01X0018879Y0024094D01*
G01X0018879Y0024094D01*
G01X0018883Y0024092D01*
G01X0018887Y0024091D01*
G01X0018888Y0024091D01*
G01X0018888Y0024091D01*
G01X0018889Y0024091D01*
G01X0018894Y0024090D01*
G01X0020537Y0024090D01*
G01X0021285Y0023342D01*
G01X0021289Y0023340D01*
G01X0021292Y0023337D01*
G01X0021293Y0023337D01*
G01X0021293Y0023337D01*
G01X0021297Y0023335D01*
G01X0021302Y0023334D01*
G01X0021302Y0023334D01*
G01X0021302Y0023334D01*
G01X0021307Y0023334D01*
G01X0021311Y0023334D01*
G01X0021312Y0023334D01*
G01X0021312Y0023334D01*
G01X0021313Y0023334D01*
G01X0021318Y0023336D01*
G01X0021424Y0023380D01*
G01X0021576Y0023380D01*
G01X0021715Y0023322D01*
G01X0021822Y0023215D01*
G01X0021866Y0023109D01*
G01X0021869Y0023105D01*
G01X0021871Y0023101D01*
G01X0021871Y0023101D01*
G01X0021871Y0023100D01*
G01X0021875Y0023097D01*
G01X0021878Y0023094D01*
G01X0021879Y0023094D01*
G01X0021879Y0023094D01*
G01X0021883Y0023092D01*
G01X0021887Y0023091D01*
G01X0021888Y0023091D01*
G01X0021888Y0023091D01*
G01X0021889Y0023091D01*
G01X0021894Y0023090D01*
G01X0028828Y0023090D01*
G01X0028832Y0023091D01*
G01X0028837Y0023091D01*
G01X0028837Y0023092D01*
G01X0028837Y0023092D01*
G01X0028841Y0023094D01*
G01X0028845Y0023096D01*
G01X0028845Y0023096D01*
G01X0028846Y0023096D01*
G01X0028849Y0023099D01*
G01X0028852Y0023103D01*
G01X0028852Y0023103D01*
G01X0028852Y0023103D01*
G01X0028853Y0023104D01*
G01X0028855Y0023109D01*
G01X0028895Y0023204D01*
G01X0028996Y0023305D01*
G01X0029128Y0023360D01*
G01X0029872Y0023360D01*
G01X0030004Y0023305D01*
G01X0030105Y0023204D01*
G01X0030160Y0023072D01*
G01X0030160Y0022928D01*
G01X0030105Y0022796D01*
G01X0030004Y0022695D01*
G01X0029890Y0022648D01*
G01X0029888Y0022647D01*
G01X0029887Y0022646D01*
G01X0029884Y0022644D01*
G01X0029882Y0022642D01*
G01X0029881Y0022641D01*
G01X0029879Y0022640D01*
G01X0029877Y0022637D01*
G01X0029876Y0022635D01*
G01X0029875Y0022633D01*
G01X0029874Y0022632D01*
G01X0029873Y0022629D01*
G01X0029872Y0022626D01*
G01X0029872Y0022624D01*
G01X0029872Y0022622D01*
G01X0029872Y0022619D01*
G01X0029872Y0022616D01*
G01X0029872Y0022615D01*
G01X0029872Y0022613D01*
G01X0029873Y0022610D01*
G01X0029874Y0022607D01*
G01X0029875Y0022606D01*
G01X0029876Y0022604D01*
G01X0029879Y0022600D01*
G01X0029880Y0022599D01*
G01X0029880Y0022599D01*
G01X0029880Y0022599D01*
G01X0030280Y0022199D01*
G01X0030280Y0015801D01*
G01X0029880Y0015401D01*
G01X0029879Y0015400D01*
G01X0029878Y0015399D01*
G01X0029876Y0015396D01*
G01X0029875Y0015393D01*
G01X0029874Y0015392D01*
G01X0029873Y0015390D01*
G01X0029873Y0015387D01*
G01X0029872Y0015384D01*
G01X0029872Y0015382D01*
G01X0029871Y0015381D01*
G01X0029872Y0015378D01*
G01X0029872Y0015375D01*
G01X0029873Y0015373D01*
G01X0029873Y0015371D01*
G01X0029874Y0015368D01*
G01X0029875Y0015365D01*
G01X0029876Y0015364D01*
G01X0029877Y0015362D01*
G01X0029879Y0015360D01*
G01X0029881Y0015358D01*
G01X0029883Y0015357D01*
G01X0029884Y0015356D01*
G01X0029889Y0015353D01*
G01X0029889Y0015353D01*
G01X0029890Y0015353D01*
G01X0029890Y0015352D01*
G01X0030004Y0015305D01*
G01X0030105Y0015204D01*
G01X0030160Y0015072D01*
G01X0030160Y0014928D01*
G01X0030105Y0014796D01*
G01X0030004Y0014695D01*
G01X0029872Y0014640D01*
G01X0029280Y0014640D01*
G01X0029276Y0014639D01*
G01X0029273Y0014639D01*
G01X0029271Y0014639D01*
G01X0029270Y0014638D01*
G01X0029267Y0014637D01*
G01X0029264Y0014635D01*
G01X0029262Y0014634D01*
G01X0029262Y0014634D01*
G01X0029261Y0014633D01*
G01X0029259Y0014631D01*
G01X0027099Y0012472D01*
G01X0027037Y0012410D01*
G01X0024350Y0012410D01*
G01X0024349Y0012410D01*
G01X0024348Y0012410D01*
G01X0024344Y0012409D01*
G01X0024340Y0012408D01*
G01X0024340Y0012408D01*
G01X0024339Y0012408D01*
G01X0024335Y0012406D01*
G01X0024332Y0012404D01*
G01X0024331Y0012403D01*
G01X0024331Y0012403D01*
G01X0024328Y0012400D01*
G01X0024325Y0012397D01*
G01X0024325Y0012396D01*
G01X0024324Y0012396D01*
G01X0024323Y0012392D01*
G01X0024321Y0012388D01*
G01X0024321Y0012387D01*
G01X0024321Y0012387D01*
G01X0024320Y0012380D01*
G01X0024320Y0012367D01*
G01X0024133Y0012180D01*
G01X0023867Y0012180D01*
G01X0023859Y0012189D01*
G01X0023858Y0012189D01*
G01X0023857Y0012190D01*
G01X0023854Y0012192D01*
G01X0023851Y0012195D01*
G01X0023850Y0012195D01*
G01X0023849Y0012195D01*
G01X0023845Y0012196D01*
G01X0023841Y0012197D01*
G01X0023841Y0012197D01*
G01X0023840Y0012198D01*
G01X0023836Y0012197D01*
G01X0023832Y0012197D01*
G01X0023831Y0012197D01*
G01X0023830Y0012197D01*
G01X0023827Y0012195D01*
G01X0023823Y0012194D01*
G01X0023822Y0012193D01*
G01X0023821Y0012193D01*
G01X0023816Y0012189D01*
G01X0022099Y0010472D01*
G01X0022037Y0010410D01*
G01X0018389Y0010410D01*
G01X0018384Y0010409D01*
G01X0018380Y0010409D01*
G01X0018379Y0010408D01*
G01X0018379Y0010408D01*
G01X0018375Y0010406D01*
G01X0018371Y0010404D01*
G01X0018371Y0010404D01*
G01X0018371Y0010404D01*
G01X0018367Y0010401D01*
G01X0018364Y0010397D01*
G01X0018364Y0010397D01*
G01X0018364Y0010397D01*
G01X0018364Y0010396D01*
G01X0018361Y0010391D01*
G01X0018318Y0010288D01*
G01X0018212Y0010182D01*
G01X0018075Y0010125D01*
G01X0017925Y0010125D01*
G01X0017788Y0010182D01*
G01X0017682Y0010288D01*
G01X0017639Y0010391D01*
G01X0017637Y0010395D01*
G01X0017634Y0010399D01*
G01X0017634Y0010399D01*
G01X0017634Y0010400D01*
G01X0017630Y0010403D01*
G01X0017627Y0010406D01*
G01X0017627Y0010406D01*
G01X0017626Y0010406D01*
G01X0017622Y0010408D01*
G01X0017618Y0010409D01*
G01X0017618Y0010409D01*
G01X0017617Y0010409D01*
G01X0017617Y0010409D01*
G01X0017611Y0010410D01*
G01X0017262Y0010410D01*
G01X0017259Y0010409D01*
G01X0017255Y0010409D01*
G01X0017254Y0010409D01*
G01X0017253Y0010408D01*
G01X0017250Y0010407D01*
G01X0017246Y0010405D01*
G01X0017245Y0010404D01*
G01X0017244Y0010404D01*
G01X0017243Y0010403D01*
G01X0017241Y0010401D01*
G01X0015750Y0008910D01*
G01X0014672Y0008910D01*
G01X0014668Y0008909D01*
G01X0014663Y0008909D01*
G01X0014663Y0008908D01*
G01X0014663Y0008908D01*
G01X0014659Y0008906D01*
G01X0014655Y0008904D01*
G01X0014655Y0008904D01*
G01X0014654Y0008904D01*
G01X0014651Y0008901D01*
G01X0014648Y0008897D01*
G01X0014648Y0008897D01*
G01X0014648Y0008897D01*
G01X0014647Y0008896D01*
G01X0014645Y0008891D01*
G01X0014605Y0008796D01*
G01X0014560Y0008751D01*
G01X0014559Y0008749D01*
G01X0014557Y0008747D01*
G01X0014556Y0008745D01*
G01X0014555Y0008743D01*
G01X0014554Y0008741D01*
G01X0014553Y0008738D01*
G01X0014552Y0008736D01*
G01X0014552Y0008734D01*
G01X0014552Y0008731D01*
G01X0014552Y0008728D01*
G01X0014552Y0008726D01*
G01X0014552Y0008724D01*
G01X0014553Y0008722D01*
G01X0014554Y0008719D01*
G01X0014555Y0008717D01*
G01X0014555Y0008715D01*
G01X0014557Y0008713D01*
G01X0014559Y0008711D01*
G01X0014560Y0008709D01*
G01X0014561Y0008708D01*
G01X0014564Y0008706D01*
G01X0014566Y0008704D01*
G01X0014568Y0008704D01*
G01X0014570Y0008702D01*
G01X0014572Y0008702D01*
G01X0014575Y0008701D01*
G01X0014578Y0008700D01*
G01X0014579Y0008700D01*
G01X0014580Y0008700D01*
G01X0014582Y0008700D01*
G01X0016230Y0008700D01*
G01X0016234Y0008701D01*
G01X0016237Y0008701D01*
G01X0016238Y0008701D01*
G01X0016240Y0008702D01*
G01X0016243Y0008703D01*
G01X0016246Y0008705D01*
G01X0016247Y0008706D01*
G01X0016248Y0008706D01*
G01X0016249Y0008707D01*
G01X0016251Y0008709D01*
G01X0017132Y0009590D01*
G01X0017595Y0009590D01*
G01X0017596Y0009590D01*
G01X0017597Y0009590D01*
G01X0017601Y0009591D01*
G01X0017605Y0009592D01*
G01X0017605Y0009592D01*
G01X0017606Y0009592D01*
G01X0017610Y0009594D01*
G01X0017613Y0009596D01*
G01X0017614Y0009597D01*
G01X0017614Y0009597D01*
G01X0017617Y0009600D01*
G01X0017620Y0009603D01*
G01X0017620Y0009604D01*
G01X0017621Y0009604D01*
G01X0017622Y0009608D01*
G01X0017624Y0009612D01*
G01X0017624Y0009613D01*
G01X0017624Y0009613D01*
G01X0017625Y0009620D01*
G01X0017625Y0009655D01*
G01X0017845Y0009875D01*
G01X0018155Y0009875D01*
G01X0018375Y0009655D01*
G01X0018375Y0009620D01*
G01X0018375Y0009619D01*
G01X0018375Y0009618D01*
G01X0018376Y0009614D01*
G01X0018377Y0009610D01*
G01X0018377Y0009610D01*
G01X0018377Y0009609D01*
G01X0018379Y0009605D01*
G01X0018381Y0009602D01*
G01X0018382Y0009601D01*
G01X0018382Y0009601D01*
G01X0018385Y0009598D01*
G01X0018388Y0009595D01*
G01X0018389Y0009595D01*
G01X0018389Y0009594D01*
G01X0018393Y0009593D01*
G01X0018397Y0009591D01*
G01X0018398Y0009591D01*
G01X0018398Y0009591D01*
G01X0018405Y0009590D01*
G01X0024882Y0009590D01*
G01X0024886Y0009591D01*
G01X0024891Y0009591D01*
G01X0024891Y0009592D01*
G01X0024891Y0009592D01*
G01X0024895Y0009594D01*
G01X0024899Y0009596D01*
G01X0024900Y0009596D01*
G01X0024900Y0009596D01*
G01X0024903Y0009599D01*
G01X0024906Y0009603D01*
G01X0024906Y0009603D01*
G01X0024906Y0009603D01*
G01X0024907Y0009604D01*
G01X0024909Y0009609D01*
G01X0025016Y0009866D01*
G01X0025272Y0010122D01*
G01X0025606Y0010260D01*
G01X0025968Y0010260D01*
G01X0026303Y0010122D01*
G01X0026559Y0009866D01*
G01X0026697Y0009531D01*
G01X0026697Y0009169D01*
G01X0026559Y0008835D01*
G01X0026516Y0008792D01*
G01X0026515Y0008791D01*
G01X0026515Y0008791D01*
G01X0026512Y0008787D01*
G01X0026510Y0008784D01*
G01X0026510Y0008783D01*
G01X0026509Y0008783D01*
G01X0026508Y0008779D01*
G01X0026507Y0008775D01*
G01X0026507Y0008774D01*
G01X0026507Y0008773D01*
G01X0026507Y0008769D01*
G01X0026507Y0008765D01*
G01X0026508Y0008764D01*
G01X0026508Y0008763D01*
G01X0026509Y0008760D01*
G01X0026511Y0008756D01*
G01X0026511Y0008755D01*
G01X0026512Y0008755D01*
G01X0026516Y0008749D01*
G01X0026846Y0008419D01*
G01X0026849Y0008417D01*
G01X0026852Y0008414D01*
G01X0026853Y0008414D01*
G01X0026854Y0008413D01*
G01X0026858Y0008412D01*
G01X0026861Y0008411D01*
G01X0026863Y0008411D01*
G01X0026863Y0008410D01*
G01X0026865Y0008410D01*
G01X0026868Y0008410D01*
G01X0027150Y0008410D01*
G01X0027484Y0008271D01*
G01X0027740Y0008015D01*
G01X0027879Y0007681D01*
G01X0027879Y0007319D01*
G01X0027740Y0006985D01*
G01X0027484Y0006729D01*
G01X0027150Y0006590D01*
G01X0026787Y0006590D01*
G37*
G36*
G01X0020804Y0011790D02*
G01X0020804Y0011790D01*
G01X0020646Y0011855D01*
G01X0020525Y0011976D01*
G01X0020460Y0012134D01*
G01X0020460Y0012306D01*
G01X0020525Y0012464D01*
G01X0020646Y0012585D01*
G01X0020804Y0012650D01*
G01X0020976Y0012650D01*
G01X0020990Y0012644D01*
G01X0020995Y0012643D01*
G01X0020999Y0012642D01*
G01X0021000Y0012642D01*
G01X0021000Y0012642D01*
G01X0021004Y0012642D01*
G01X0021009Y0012642D01*
G01X0021009Y0012643D01*
G01X0021009Y0012643D01*
G01X0021014Y0012644D01*
G01X0021018Y0012646D01*
G01X0021018Y0012646D01*
G01X0021018Y0012646D01*
G01X0021019Y0012647D01*
G01X0021023Y0012650D01*
G01X0023689Y0015316D01*
G01X0023689Y0015317D01*
G01X0023690Y0015317D01*
G01X0023692Y0015321D01*
G01X0023695Y0015324D01*
G01X0023695Y0015325D01*
G01X0023695Y0015325D01*
G01X0023696Y0015329D01*
G01X0023697Y0015333D01*
G01X0023697Y0015334D01*
G01X0023698Y0015335D01*
G01X0023697Y0015339D01*
G01X0023697Y0015343D01*
G01X0023697Y0015344D01*
G01X0023697Y0015344D01*
G01X0023695Y0015348D01*
G01X0023694Y0015352D01*
G01X0023693Y0015353D01*
G01X0023693Y0015353D01*
G01X0023689Y0015359D01*
G01X0023680Y0015367D01*
G01X0023680Y0015633D01*
G01X0023867Y0015820D01*
G01X0023880Y0015820D01*
G01X0023881Y0015820D01*
G01X0023882Y0015820D01*
G01X0023886Y0015821D01*
G01X0023890Y0015822D01*
G01X0023890Y0015822D01*
G01X0023891Y0015822D01*
G01X0023895Y0015824D01*
G01X0023898Y0015826D01*
G01X0023899Y0015827D01*
G01X0023899Y0015827D01*
G01X0023902Y0015830D01*
G01X0023905Y0015833D01*
G01X0023905Y0015834D01*
G01X0023906Y0015834D01*
G01X0023907Y0015838D01*
G01X0023909Y0015842D01*
G01X0023909Y0015843D01*
G01X0023909Y0015843D01*
G01X0023910Y0015850D01*
G01X0023910Y0016450D01*
G01X0023909Y0016454D01*
G01X0023909Y0016457D01*
G01X0023909Y0016459D01*
G01X0023908Y0016460D01*
G01X0023907Y0016463D01*
G01X0023905Y0016466D01*
G01X0023904Y0016468D01*
G01X0023904Y0016468D01*
G01X0023903Y0016469D01*
G01X0023901Y0016472D01*
G01X0023684Y0016689D01*
G01X0023683Y0016689D01*
G01X0023683Y0016690D01*
G01X0023680Y0016692D01*
G01X0023679Y0016693D01*
G01X0023678Y0016693D01*
G01X0023676Y0016695D01*
G01X0023675Y0016695D01*
G01X0023675Y0016695D01*
G01X0023671Y0016696D01*
G01X0023667Y0016697D01*
G01X0023666Y0016697D01*
G01X0023665Y0016698D01*
G01X0023661Y0016697D01*
G01X0023657Y0016697D01*
G01X0023656Y0016697D01*
G01X0023656Y0016697D01*
G01X0023652Y0016695D01*
G01X0023648Y0016694D01*
G01X0023647Y0016693D01*
G01X0023647Y0016693D01*
G01X0023644Y0016691D01*
G01X0023644Y0016691D01*
G01X0023643Y0016691D01*
G01X0023641Y0016689D01*
G01X0023633Y0016680D01*
G01X0023367Y0016680D01*
G01X0023180Y0016867D01*
G01X0023180Y0016880D01*
G01X0023180Y0016881D01*
G01X0023180Y0016882D01*
G01X0023179Y0016886D01*
G01X0023178Y0016890D01*
G01X0023178Y0016890D01*
G01X0023178Y0016891D01*
G01X0023176Y0016895D01*
G01X0023174Y0016898D01*
G01X0023173Y0016899D01*
G01X0023173Y0016899D01*
G01X0023170Y0016902D01*
G01X0023167Y0016905D01*
G01X0023166Y0016905D01*
G01X0023166Y0016906D01*
G01X0023162Y0016907D01*
G01X0023158Y0016909D01*
G01X0023157Y0016909D01*
G01X0023157Y0016909D01*
G01X0023150Y0016910D01*
G01X0021894Y0016910D01*
G01X0021890Y0016909D01*
G01X0021885Y0016909D01*
G01X0021885Y0016908D01*
G01X0021885Y0016908D01*
G01X0021880Y0016906D01*
G01X0021876Y0016904D01*
G01X0021876Y0016904D01*
G01X0021876Y0016904D01*
G01X0021873Y0016901D01*
G01X0021870Y0016897D01*
G01X0021869Y0016897D01*
G01X0021869Y0016897D01*
G01X0021869Y0016896D01*
G01X0021866Y0016891D01*
G01X0021822Y0016785D01*
G01X0021715Y0016678D01*
G01X0021576Y0016620D01*
G01X0021424Y0016620D01*
G01X0021285Y0016678D01*
G01X0021178Y0016785D01*
G01X0021120Y0016924D01*
G01X0021120Y0017076D01*
G01X0021178Y0017215D01*
G01X0021285Y0017322D01*
G01X0021424Y0017380D01*
G01X0021576Y0017380D01*
G01X0021715Y0017322D01*
G01X0021822Y0017215D01*
G01X0021866Y0017109D01*
G01X0021869Y0017105D01*
G01X0021871Y0017101D01*
G01X0021871Y0017101D01*
G01X0021871Y0017100D01*
G01X0021875Y0017097D01*
G01X0021878Y0017094D01*
G01X0021879Y0017094D01*
G01X0021879Y0017094D01*
G01X0021883Y0017092D01*
G01X0021887Y0017091D01*
G01X0021888Y0017091D01*
G01X0021888Y0017091D01*
G01X0021889Y0017091D01*
G01X0021894Y0017090D01*
G01X0023150Y0017090D01*
G01X0023151Y0017090D01*
G01X0023152Y0017090D01*
G01X0023156Y0017091D01*
G01X0023160Y0017092D01*
G01X0023160Y0017092D01*
G01X0023161Y0017092D01*
G01X0023165Y0017094D01*
G01X0023168Y0017096D01*
G01X0023169Y0017097D01*
G01X0023169Y0017097D01*
G01X0023172Y0017100D01*
G01X0023175Y0017103D01*
G01X0023175Y0017104D01*
G01X0023176Y0017104D01*
G01X0023177Y0017108D01*
G01X0023179Y0017112D01*
G01X0023179Y0017113D01*
G01X0023179Y0017113D01*
G01X0023180Y0017120D01*
G01X0023180Y0017133D01*
G01X0023367Y0017320D01*
G01X0023633Y0017320D01*
G01X0023820Y0017133D01*
G01X0023820Y0016867D01*
G01X0023811Y0016859D01*
G01X0023811Y0016858D01*
G01X0023810Y0016857D01*
G01X0023808Y0016854D01*
G01X0023805Y0016851D01*
G01X0023805Y0016850D01*
G01X0023805Y0016849D01*
G01X0023804Y0016845D01*
G01X0023803Y0016841D01*
G01X0023803Y0016841D01*
G01X0023802Y0016840D01*
G01X0023803Y0016836D01*
G01X0023803Y0016832D01*
G01X0023803Y0016831D01*
G01X0023803Y0016830D01*
G01X0023805Y0016827D01*
G01X0023806Y0016823D01*
G01X0023807Y0016822D01*
G01X0023807Y0016821D01*
G01X0023811Y0016816D01*
G01X0024029Y0016599D01*
G01X0024090Y0016537D01*
G01X0024090Y0015850D01*
G01X0024090Y0015849D01*
G01X0024090Y0015848D01*
G01X0024091Y0015844D01*
G01X0024092Y0015840D01*
G01X0024092Y0015840D01*
G01X0024092Y0015839D01*
G01X0024094Y0015835D01*
G01X0024096Y0015832D01*
G01X0024097Y0015831D01*
G01X0024097Y0015831D01*
G01X0024100Y0015828D01*
G01X0024103Y0015825D01*
G01X0024104Y0015825D01*
G01X0024104Y0015824D01*
G01X0024108Y0015823D01*
G01X0024112Y0015821D01*
G01X0024113Y0015821D01*
G01X0024113Y0015821D01*
G01X0024120Y0015820D01*
G01X0024133Y0015820D01*
G01X0024141Y0015811D01*
G01X0024142Y0015811D01*
G01X0024143Y0015810D01*
G01X0024146Y0015808D01*
G01X0024149Y0015805D01*
G01X0024150Y0015805D01*
G01X0024151Y0015805D01*
G01X0024155Y0015804D01*
G01X0024159Y0015803D01*
G01X0024159Y0015803D01*
G01X0024160Y0015802D01*
G01X0024164Y0015803D01*
G01X0024168Y0015803D01*
G01X0024169Y0015803D01*
G01X0024170Y0015803D01*
G01X0024174Y0015805D01*
G01X0024177Y0015806D01*
G01X0024178Y0015807D01*
G01X0024179Y0015807D01*
G01X0024184Y0015811D01*
G01X0024401Y0016029D01*
G01X0024463Y0016090D01*
G01X0026628Y0016090D01*
G01X0026632Y0016091D01*
G01X0026637Y0016091D01*
G01X0026637Y0016092D01*
G01X0026637Y0016092D01*
G01X0026641Y0016094D01*
G01X0026645Y0016096D01*
G01X0026645Y0016096D01*
G01X0026646Y0016096D01*
G01X0026649Y0016099D01*
G01X0026652Y0016103D01*
G01X0026652Y0016103D01*
G01X0026652Y0016103D01*
G01X0026653Y0016104D01*
G01X0026655Y0016109D01*
G01X0026695Y0016204D01*
G01X0026796Y0016305D01*
G01X0026928Y0016360D01*
G01X0027072Y0016360D01*
G01X0027204Y0016305D01*
G01X0027305Y0016204D01*
G01X0027360Y0016072D01*
G01X0027360Y0015928D01*
G01X0027305Y0015796D01*
G01X0027204Y0015695D01*
G01X0027072Y0015640D01*
G01X0026928Y0015640D01*
G01X0026796Y0015695D01*
G01X0026695Y0015796D01*
G01X0026655Y0015891D01*
G01X0026653Y0015895D01*
G01X0026651Y0015899D01*
G01X0026650Y0015899D01*
G01X0026650Y0015900D01*
G01X0026647Y0015903D01*
G01X0026643Y0015906D01*
G01X0026643Y0015906D01*
G01X0026643Y0015906D01*
G01X0026638Y0015908D01*
G01X0026634Y0015909D01*
G01X0026634Y0015909D01*
G01X0026634Y0015909D01*
G01X0026633Y0015909D01*
G01X0026628Y0015910D01*
G01X0024550Y0015910D01*
G01X0024546Y0015909D01*
G01X0024543Y0015909D01*
G01X0024541Y0015909D01*
G01X0024540Y0015908D01*
G01X0024537Y0015907D01*
G01X0024534Y0015905D01*
G01X0024532Y0015904D01*
G01X0024532Y0015904D01*
G01X0024531Y0015903D01*
G01X0024529Y0015901D01*
G01X0024311Y0015684D01*
G01X0024311Y0015683D01*
G01X0024310Y0015683D01*
G01X0024308Y0015679D01*
G01X0024305Y0015676D01*
G01X0024305Y0015675D01*
G01X0024305Y0015675D01*
G01X0024304Y0015671D01*
G01X0024303Y0015667D01*
G01X0024303Y0015666D01*
G01X0024302Y0015665D01*
G01X0024303Y0015661D01*
G01X0024303Y0015657D01*
G01X0024303Y0015656D01*
G01X0024303Y0015656D01*
G01X0024305Y0015652D01*
G01X0024306Y0015648D01*
G01X0024307Y0015647D01*
G01X0024307Y0015647D01*
G01X0024311Y0015641D01*
G01X0024320Y0015633D01*
G01X0024320Y0015367D01*
G01X0024133Y0015180D01*
G01X0023867Y0015180D01*
G01X0023859Y0015189D01*
G01X0023858Y0015189D01*
G01X0023857Y0015190D01*
G01X0023855Y0015192D01*
G01X0023853Y0015193D01*
G01X0023852Y0015193D01*
G01X0023851Y0015195D01*
G01X0023850Y0015195D01*
G01X0023849Y0015195D01*
G01X0023845Y0015196D01*
G01X0023844Y0015197D01*
G01X0023844Y0015197D01*
G01X0023841Y0015197D01*
G01X0023841Y0015197D01*
G01X0023840Y0015198D01*
G01X0023837Y0015197D01*
G01X0023837Y0015197D01*
G01X0023837Y0015197D01*
G01X0023836Y0015197D01*
G01X0023832Y0015197D01*
G01X0023831Y0015197D01*
G01X0023830Y0015197D01*
G01X0023828Y0015196D01*
G01X0023828Y0015196D01*
G01X0023826Y0015195D01*
G01X0023823Y0015194D01*
G01X0023822Y0015193D01*
G01X0023821Y0015193D01*
G01X0023820Y0015192D01*
G01X0023819Y0015191D01*
G01X0023818Y0015191D01*
G01X0023816Y0015189D01*
G01X0021194Y0012567D01*
G01X0021193Y0012566D01*
G01X0021193Y0012566D01*
G01X0021191Y0012562D01*
G01X0021188Y0012559D01*
G01X0021188Y0012558D01*
G01X0021188Y0012557D01*
G01X0021187Y0012553D01*
G01X0021185Y0012550D01*
G01X0021185Y0012549D01*
G01X0021185Y0012548D01*
G01X0021186Y0012544D01*
G01X0021186Y0012540D01*
G01X0021186Y0012539D01*
G01X0021186Y0012538D01*
G01X0021188Y0012535D01*
G01X0021189Y0012531D01*
G01X0021189Y0012530D01*
G01X0021190Y0012529D01*
G01X0021194Y0012524D01*
G01X0021255Y0012464D01*
G01X0021320Y0012306D01*
G01X0021320Y0012134D01*
G01X0021255Y0011976D01*
G01X0021134Y0011855D01*
G01X0020976Y0011790D01*
G01X0020804Y0011790D01*
G37*
G36*
G01X0021829Y0005586D02*
G01X0021829Y0005586D01*
G01X0021794Y0005621D01*
G01X0021794Y0006379D01*
G01X0021829Y0006414D01*
G01X0022273Y0006414D01*
G01X0022308Y0006379D01*
G01X0022308Y0006120D01*
G01X0022308Y0006119D01*
G01X0022308Y0006118D01*
G01X0022309Y0006114D01*
G01X0022310Y0006110D01*
G01X0022310Y0006110D01*
G01X0022310Y0006109D01*
G01X0022312Y0006105D01*
G01X0022314Y0006102D01*
G01X0022315Y0006101D01*
G01X0022315Y0006101D01*
G01X0022318Y0006098D01*
G01X0022321Y0006095D01*
G01X0022322Y0006095D01*
G01X0022322Y0006094D01*
G01X0022326Y0006093D01*
G01X0022330Y0006091D01*
G01X0022331Y0006091D01*
G01X0022331Y0006091D01*
G01X0022338Y0006090D01*
G01X0023057Y0006090D01*
G01X0023060Y0006091D01*
G01X0023064Y0006091D01*
G01X0023065Y0006091D01*
G01X0023066Y0006092D01*
G01X0023069Y0006093D01*
G01X0023073Y0006095D01*
G01X0023074Y0006096D01*
G01X0023075Y0006096D01*
G01X0023076Y0006097D01*
G01X0023078Y0006099D01*
G01X0023878Y0006899D01*
G01X0023878Y0006900D01*
G01X0023879Y0006900D01*
G01X0023880Y0006902D01*
G01X0023881Y0006903D01*
G01X0023881Y0006904D01*
G01X0023881Y0006904D01*
G01X0023884Y0006907D01*
G01X0023884Y0006908D01*
G01X0023884Y0006908D01*
G01X0023885Y0006912D01*
G01X0023886Y0006916D01*
G01X0023886Y0006917D01*
G01X0023887Y0006918D01*
G01X0023886Y0006922D01*
G01X0023886Y0006926D01*
G01X0023886Y0006927D01*
G01X0023886Y0006927D01*
G01X0023884Y0006931D01*
G01X0023883Y0006935D01*
G01X0023882Y0006935D01*
G01X0023882Y0006936D01*
G01X0023878Y0006941D01*
G01X0023835Y0006985D01*
G01X0023696Y0007319D01*
G01X0023696Y0007681D01*
G01X0023835Y0008015D01*
G01X0024091Y0008271D01*
G01X0024425Y0008410D01*
G01X0024787Y0008410D01*
G01X0025122Y0008271D01*
G01X0025378Y0008015D01*
G01X0025516Y0007681D01*
G01X0025516Y0007319D01*
G01X0025378Y0006985D01*
G01X0025122Y0006729D01*
G01X0024787Y0006590D01*
G01X0024425Y0006590D01*
G01X0024091Y0006729D01*
G01X0024048Y0006772D01*
G01X0024047Y0006772D01*
G01X0024047Y0006773D01*
G01X0024043Y0006775D01*
G01X0024040Y0006777D01*
G01X0024039Y0006778D01*
G01X0024038Y0006778D01*
G01X0024034Y0006779D01*
G01X0024031Y0006780D01*
G01X0024030Y0006780D01*
G01X0024029Y0006780D01*
G01X0024025Y0006780D01*
G01X0024021Y0006780D01*
G01X0024020Y0006780D01*
G01X0024019Y0006780D01*
G01X0024016Y0006778D01*
G01X0024012Y0006777D01*
G01X0024011Y0006776D01*
G01X0024010Y0006776D01*
G01X0024005Y0006772D01*
G01X0023205Y0005972D01*
G01X0023144Y0005910D01*
G01X0022338Y0005910D01*
G01X0022337Y0005910D01*
G01X0022336Y0005910D01*
G01X0022333Y0005909D01*
G01X0022328Y0005908D01*
G01X0022328Y0005908D01*
G01X0022327Y0005908D01*
G01X0022324Y0005906D01*
G01X0022320Y0005904D01*
G01X0022319Y0005903D01*
G01X0022319Y0005903D01*
G01X0022316Y0005900D01*
G01X0022313Y0005897D01*
G01X0022313Y0005896D01*
G01X0022312Y0005896D01*
G01X0022311Y0005892D01*
G01X0022309Y0005888D01*
G01X0022309Y0005887D01*
G01X0022309Y0005887D01*
G01X0022308Y0005880D01*
G01X0022308Y0005621D01*
G01X0022273Y0005586D01*
G01X0021829Y0005586D01*
G37*
G36*
G01X0020727Y0005586D02*
G01X0020727Y0005586D01*
G01X0020692Y0005621D01*
G01X0020692Y0005880D01*
G01X0020692Y0005881D01*
G01X0020692Y0005882D01*
G01X0020691Y0005886D01*
G01X0020690Y0005890D01*
G01X0020690Y0005890D01*
G01X0020690Y0005891D01*
G01X0020688Y0005895D01*
G01X0020686Y0005898D01*
G01X0020685Y0005899D01*
G01X0020685Y0005899D01*
G01X0020682Y0005902D01*
G01X0020679Y0005905D01*
G01X0020678Y0005905D01*
G01X0020678Y0005906D01*
G01X0020674Y0005907D01*
G01X0020670Y0005909D01*
G01X0020669Y0005909D01*
G01X0020669Y0005909D01*
G01X0020662Y0005910D01*
G01X0018389Y0005910D01*
G01X0018384Y0005909D01*
G01X0018380Y0005909D01*
G01X0018379Y0005908D01*
G01X0018379Y0005908D01*
G01X0018375Y0005906D01*
G01X0018371Y0005904D01*
G01X0018371Y0005904D01*
G01X0018371Y0005904D01*
G01X0018367Y0005901D01*
G01X0018364Y0005897D01*
G01X0018364Y0005897D01*
G01X0018364Y0005897D01*
G01X0018364Y0005896D01*
G01X0018361Y0005891D01*
G01X0018318Y0005788D01*
G01X0018212Y0005682D01*
G01X0018075Y0005625D01*
G01X0017925Y0005625D01*
G01X0017788Y0005682D01*
G01X0017682Y0005788D01*
G01X0017639Y0005891D01*
G01X0017637Y0005895D01*
G01X0017634Y0005899D01*
G01X0017634Y0005899D01*
G01X0017634Y0005900D01*
G01X0017630Y0005903D01*
G01X0017627Y0005906D01*
G01X0017627Y0005906D01*
G01X0017626Y0005906D01*
G01X0017622Y0005908D01*
G01X0017618Y0005909D01*
G01X0017618Y0005909D01*
G01X0017617Y0005909D01*
G01X0017617Y0005909D01*
G01X0017611Y0005910D01*
G01X0014963Y0005910D01*
G01X0014242Y0006631D01*
G01X0014239Y0006633D01*
G01X0014236Y0006636D01*
G01X0014235Y0006636D01*
G01X0014234Y0006637D01*
G01X0014230Y0006638D01*
G01X0014227Y0006639D01*
G01X0014225Y0006639D01*
G01X0014224Y0006640D01*
G01X0014223Y0006640D01*
G01X0014220Y0006640D01*
G01X0013628Y0006640D01*
G01X0013496Y0006695D01*
G01X0013395Y0006796D01*
G01X0013340Y0006928D01*
G01X0013340Y0007072D01*
G01X0013395Y0007204D01*
G01X0013496Y0007305D01*
G01X0013628Y0007360D01*
G01X0014372Y0007360D01*
G01X0014504Y0007305D01*
G01X0014605Y0007204D01*
G01X0014660Y0007072D01*
G01X0014660Y0006928D01*
G01X0014605Y0006796D01*
G01X0014504Y0006695D01*
G01X0014495Y0006691D01*
G01X0014493Y0006690D01*
G01X0014492Y0006689D01*
G01X0014489Y0006688D01*
G01X0014487Y0006686D01*
G01X0014486Y0006685D01*
G01X0014484Y0006683D01*
G01X0014482Y0006681D01*
G01X0014480Y0006678D01*
G01X0014480Y0006677D01*
G01X0014479Y0006675D01*
G01X0014478Y0006672D01*
G01X0014477Y0006669D01*
G01X0014477Y0006668D01*
G01X0014476Y0006666D01*
G01X0014477Y0006663D01*
G01X0014477Y0006660D01*
G01X0014477Y0006658D01*
G01X0014477Y0006656D01*
G01X0014478Y0006653D01*
G01X0014479Y0006650D01*
G01X0014480Y0006649D01*
G01X0014481Y0006647D01*
G01X0014484Y0006643D01*
G01X0014485Y0006643D01*
G01X0014485Y0006642D01*
G01X0014485Y0006642D01*
G01X0015029Y0006099D01*
G01X0015031Y0006097D01*
G01X0015034Y0006094D01*
G01X0015035Y0006094D01*
G01X0015036Y0006093D01*
G01X0015040Y0006092D01*
G01X0015043Y0006091D01*
G01X0015045Y0006091D01*
G01X0015046Y0006090D01*
G01X0015047Y0006090D01*
G01X0015050Y0006090D01*
G01X0017611Y0006090D01*
G01X0017616Y0006091D01*
G01X0017620Y0006091D01*
G01X0017621Y0006092D01*
G01X0017621Y0006092D01*
G01X0017625Y0006094D01*
G01X0017629Y0006096D01*
G01X0017629Y0006096D01*
G01X0017629Y0006096D01*
G01X0017633Y0006099D01*
G01X0017636Y0006103D01*
G01X0017636Y0006103D01*
G01X0017636Y0006103D01*
G01X0017636Y0006104D01*
G01X0017639Y0006109D01*
G01X0017682Y0006212D01*
G01X0017788Y0006318D01*
G01X0017925Y0006375D01*
G01X0018075Y0006375D01*
G01X0018212Y0006318D01*
G01X0018318Y0006212D01*
G01X0018361Y0006109D01*
G01X0018363Y0006105D01*
G01X0018366Y0006101D01*
G01X0018366Y0006101D01*
G01X0018366Y0006100D01*
G01X0018370Y0006097D01*
G01X0018373Y0006094D01*
G01X0018373Y0006094D01*
G01X0018374Y0006094D01*
G01X0018378Y0006092D01*
G01X0018382Y0006091D01*
G01X0018382Y0006091D01*
G01X0018383Y0006091D01*
G01X0018383Y0006091D01*
G01X0018389Y0006090D01*
G01X0020662Y0006090D01*
G01X0020663Y0006090D01*
G01X0020664Y0006090D01*
G01X0020668Y0006091D01*
G01X0020672Y0006092D01*
G01X0020672Y0006092D01*
G01X0020673Y0006092D01*
G01X0020676Y0006094D01*
G01X0020680Y0006096D01*
G01X0020681Y0006097D01*
G01X0020681Y0006097D01*
G01X0020684Y0006100D01*
G01X0020687Y0006103D01*
G01X0020687Y0006104D01*
G01X0020688Y0006104D01*
G01X0020689Y0006108D01*
G01X0020691Y0006112D01*
G01X0020691Y0006113D01*
G01X0020691Y0006113D01*
G01X0020692Y0006120D01*
G01X0020692Y0006379D01*
G01X0020727Y0006414D01*
G01X0021171Y0006414D01*
G01X0021206Y0006379D01*
G01X0021206Y0005621D01*
G01X0021171Y0005586D01*
G01X0020727Y0005586D01*
G37*
G36*
G01X0021424Y0026620D02*
G01X0021424Y0026620D01*
G01X0021285Y0026678D01*
G01X0021178Y0026785D01*
G01X0021120Y0026924D01*
G01X0021120Y0027076D01*
G01X0021178Y0027215D01*
G01X0021285Y0027322D01*
G01X0021424Y0027380D01*
G01X0021576Y0027380D01*
G01X0021715Y0027322D01*
G01X0021822Y0027215D01*
G01X0021866Y0027109D01*
G01X0021869Y0027105D01*
G01X0021871Y0027101D01*
G01X0021871Y0027101D01*
G01X0021871Y0027100D01*
G01X0021875Y0027097D01*
G01X0021878Y0027094D01*
G01X0021879Y0027094D01*
G01X0021879Y0027094D01*
G01X0021883Y0027092D01*
G01X0021887Y0027091D01*
G01X0021888Y0027091D01*
G01X0021888Y0027091D01*
G01X0021889Y0027091D01*
G01X0021894Y0027090D01*
G01X0028540Y0027090D01*
G01X0028545Y0027091D01*
G01X0028549Y0027091D01*
G01X0028549Y0027092D01*
G01X0028550Y0027092D01*
G01X0028554Y0027094D01*
G01X0028558Y0027096D01*
G01X0028558Y0027096D01*
G01X0028558Y0027096D01*
G01X0028561Y0027099D01*
G01X0028565Y0027103D01*
G01X0028565Y0027103D01*
G01X0028565Y0027103D01*
G01X0028565Y0027104D01*
G01X0028568Y0027109D01*
G01X0028607Y0027204D01*
G01X0028709Y0027305D01*
G01X0028841Y0027360D01*
G01X0029584Y0027360D01*
G01X0029717Y0027305D01*
G01X0029818Y0027204D01*
G01X0029873Y0027072D01*
G01X0029873Y0026928D01*
G01X0029818Y0026796D01*
G01X0029717Y0026695D01*
G01X0029584Y0026640D01*
G01X0028841Y0026640D01*
G01X0028709Y0026695D01*
G01X0028607Y0026796D01*
G01X0028568Y0026891D01*
G01X0028565Y0026895D01*
G01X0028563Y0026899D01*
G01X0028563Y0026899D01*
G01X0028563Y0026900D01*
G01X0028559Y0026903D01*
G01X0028556Y0026906D01*
G01X0028556Y0026906D01*
G01X0028555Y0026906D01*
G01X0028551Y0026908D01*
G01X0028547Y0026909D01*
G01X0028546Y0026909D01*
G01X0028546Y0026909D01*
G01X0028546Y0026909D01*
G01X0028540Y0026910D01*
G01X0021894Y0026910D01*
G01X0021890Y0026909D01*
G01X0021885Y0026909D01*
G01X0021885Y0026908D01*
G01X0021885Y0026908D01*
G01X0021880Y0026906D01*
G01X0021876Y0026904D01*
G01X0021876Y0026904D01*
G01X0021876Y0026904D01*
G01X0021873Y0026901D01*
G01X0021870Y0026897D01*
G01X0021869Y0026897D01*
G01X0021869Y0026897D01*
G01X0021869Y0026896D01*
G01X0021866Y0026891D01*
G01X0021822Y0026785D01*
G01X0021715Y0026678D01*
G01X0021576Y0026620D01*
G01X0021424Y0026620D01*
G37*
G36*
G01X0021424Y0029620D02*
G01X0021424Y0029620D01*
G01X0021285Y0029678D01*
G01X0021178Y0029785D01*
G01X0021120Y0029924D01*
G01X0021120Y0030076D01*
G01X0021178Y0030215D01*
G01X0021285Y0030322D01*
G01X0021424Y0030380D01*
G01X0021576Y0030380D01*
G01X0021715Y0030322D01*
G01X0021822Y0030215D01*
G01X0021866Y0030109D01*
G01X0021869Y0030105D01*
G01X0021871Y0030101D01*
G01X0021871Y0030101D01*
G01X0021871Y0030100D01*
G01X0021875Y0030097D01*
G01X0021878Y0030094D01*
G01X0021879Y0030094D01*
G01X0021879Y0030094D01*
G01X0021883Y0030092D01*
G01X0021887Y0030091D01*
G01X0021888Y0030091D01*
G01X0021888Y0030091D01*
G01X0021889Y0030091D01*
G01X0021894Y0030090D01*
G01X0028540Y0030090D01*
G01X0028545Y0030091D01*
G01X0028549Y0030091D01*
G01X0028549Y0030092D01*
G01X0028550Y0030092D01*
G01X0028554Y0030094D01*
G01X0028558Y0030096D01*
G01X0028558Y0030096D01*
G01X0028558Y0030096D01*
G01X0028561Y0030099D01*
G01X0028565Y0030103D01*
G01X0028565Y0030103D01*
G01X0028565Y0030103D01*
G01X0028565Y0030104D01*
G01X0028568Y0030109D01*
G01X0028607Y0030204D01*
G01X0028709Y0030305D01*
G01X0028841Y0030360D01*
G01X0029584Y0030360D01*
G01X0029717Y0030305D01*
G01X0029818Y0030204D01*
G01X0029873Y0030072D01*
G01X0029873Y0029928D01*
G01X0029818Y0029796D01*
G01X0029717Y0029695D01*
G01X0029584Y0029640D01*
G01X0028841Y0029640D01*
G01X0028709Y0029695D01*
G01X0028607Y0029796D01*
G01X0028568Y0029891D01*
G01X0028565Y0029895D01*
G01X0028563Y0029899D01*
G01X0028563Y0029899D01*
G01X0028563Y0029900D01*
G01X0028559Y0029903D01*
G01X0028556Y0029906D01*
G01X0028556Y0029906D01*
G01X0028555Y0029906D01*
G01X0028551Y0029908D01*
G01X0028547Y0029909D01*
G01X0028546Y0029909D01*
G01X0028546Y0029909D01*
G01X0028546Y0029909D01*
G01X0028540Y0029910D01*
G01X0021894Y0029910D01*
G01X0021890Y0029909D01*
G01X0021885Y0029909D01*
G01X0021885Y0029908D01*
G01X0021885Y0029908D01*
G01X0021880Y0029906D01*
G01X0021876Y0029904D01*
G01X0021876Y0029904D01*
G01X0021876Y0029904D01*
G01X0021873Y0029901D01*
G01X0021870Y0029897D01*
G01X0021869Y0029897D01*
G01X0021869Y0029897D01*
G01X0021869Y0029896D01*
G01X0021866Y0029891D01*
G01X0021822Y0029785D01*
G01X0021715Y0029678D01*
G01X0021576Y0029620D01*
G01X0021424Y0029620D01*
G37*
G36*
G01X0021424Y0028620D02*
G01X0021424Y0028620D01*
G01X0021285Y0028678D01*
G01X0021178Y0028785D01*
G01X0021120Y0028924D01*
G01X0021120Y0029076D01*
G01X0021178Y0029215D01*
G01X0021285Y0029322D01*
G01X0021424Y0029380D01*
G01X0021576Y0029380D01*
G01X0021715Y0029322D01*
G01X0021822Y0029215D01*
G01X0021866Y0029109D01*
G01X0021869Y0029105D01*
G01X0021871Y0029101D01*
G01X0021871Y0029101D01*
G01X0021871Y0029100D01*
G01X0021875Y0029097D01*
G01X0021878Y0029094D01*
G01X0021879Y0029094D01*
G01X0021879Y0029094D01*
G01X0021883Y0029092D01*
G01X0021887Y0029091D01*
G01X0021888Y0029091D01*
G01X0021888Y0029091D01*
G01X0021889Y0029091D01*
G01X0021894Y0029090D01*
G01X0028540Y0029090D01*
G01X0028545Y0029091D01*
G01X0028549Y0029091D01*
G01X0028549Y0029092D01*
G01X0028550Y0029092D01*
G01X0028554Y0029094D01*
G01X0028558Y0029096D01*
G01X0028558Y0029096D01*
G01X0028558Y0029096D01*
G01X0028561Y0029099D01*
G01X0028565Y0029103D01*
G01X0028565Y0029103D01*
G01X0028565Y0029103D01*
G01X0028565Y0029104D01*
G01X0028568Y0029109D01*
G01X0028607Y0029204D01*
G01X0028709Y0029305D01*
G01X0028841Y0029360D01*
G01X0029584Y0029360D01*
G01X0029717Y0029305D01*
G01X0029818Y0029204D01*
G01X0029873Y0029072D01*
G01X0029873Y0028928D01*
G01X0029818Y0028796D01*
G01X0029717Y0028695D01*
G01X0029584Y0028640D01*
G01X0028841Y0028640D01*
G01X0028709Y0028695D01*
G01X0028607Y0028796D01*
G01X0028568Y0028891D01*
G01X0028565Y0028895D01*
G01X0028563Y0028899D01*
G01X0028563Y0028899D01*
G01X0028563Y0028900D01*
G01X0028559Y0028903D01*
G01X0028556Y0028906D01*
G01X0028556Y0028906D01*
G01X0028555Y0028906D01*
G01X0028551Y0028908D01*
G01X0028547Y0028909D01*
G01X0028546Y0028909D01*
G01X0028546Y0028909D01*
G01X0028546Y0028909D01*
G01X0028540Y0028910D01*
G01X0021894Y0028910D01*
G01X0021890Y0028909D01*
G01X0021885Y0028909D01*
G01X0021885Y0028908D01*
G01X0021885Y0028908D01*
G01X0021880Y0028906D01*
G01X0021876Y0028904D01*
G01X0021876Y0028904D01*
G01X0021876Y0028904D01*
G01X0021873Y0028901D01*
G01X0021870Y0028897D01*
G01X0021869Y0028897D01*
G01X0021869Y0028897D01*
G01X0021869Y0028896D01*
G01X0021866Y0028891D01*
G01X0021822Y0028785D01*
G01X0021715Y0028678D01*
G01X0021576Y0028620D01*
G01X0021424Y0028620D01*
G37*
G36*
G01X0021424Y0027620D02*
G01X0021424Y0027620D01*
G01X0021285Y0027678D01*
G01X0021178Y0027785D01*
G01X0021120Y0027924D01*
G01X0021120Y0028076D01*
G01X0021178Y0028215D01*
G01X0021285Y0028322D01*
G01X0021424Y0028380D01*
G01X0021576Y0028380D01*
G01X0021715Y0028322D01*
G01X0021822Y0028215D01*
G01X0021866Y0028109D01*
G01X0021869Y0028105D01*
G01X0021871Y0028101D01*
G01X0021871Y0028101D01*
G01X0021871Y0028100D01*
G01X0021875Y0028097D01*
G01X0021878Y0028094D01*
G01X0021879Y0028094D01*
G01X0021879Y0028094D01*
G01X0021883Y0028092D01*
G01X0021887Y0028091D01*
G01X0021888Y0028091D01*
G01X0021888Y0028091D01*
G01X0021889Y0028091D01*
G01X0021894Y0028090D01*
G01X0028540Y0028090D01*
G01X0028545Y0028091D01*
G01X0028549Y0028091D01*
G01X0028549Y0028092D01*
G01X0028550Y0028092D01*
G01X0028554Y0028094D01*
G01X0028558Y0028096D01*
G01X0028558Y0028096D01*
G01X0028558Y0028096D01*
G01X0028561Y0028099D01*
G01X0028565Y0028103D01*
G01X0028565Y0028103D01*
G01X0028565Y0028103D01*
G01X0028565Y0028104D01*
G01X0028568Y0028109D01*
G01X0028607Y0028204D01*
G01X0028709Y0028305D01*
G01X0028841Y0028360D01*
G01X0029584Y0028360D01*
G01X0029717Y0028305D01*
G01X0029818Y0028204D01*
G01X0029873Y0028072D01*
G01X0029873Y0027928D01*
G01X0029818Y0027796D01*
G01X0029717Y0027695D01*
G01X0029584Y0027640D01*
G01X0028841Y0027640D01*
G01X0028709Y0027695D01*
G01X0028607Y0027796D01*
G01X0028568Y0027891D01*
G01X0028565Y0027895D01*
G01X0028563Y0027899D01*
G01X0028563Y0027899D01*
G01X0028563Y0027900D01*
G01X0028559Y0027903D01*
G01X0028556Y0027906D01*
G01X0028556Y0027906D01*
G01X0028555Y0027906D01*
G01X0028551Y0027908D01*
G01X0028547Y0027909D01*
G01X0028546Y0027909D01*
G01X0028546Y0027909D01*
G01X0028546Y0027909D01*
G01X0028540Y0027910D01*
G01X0021894Y0027910D01*
G01X0021890Y0027909D01*
G01X0021885Y0027909D01*
G01X0021885Y0027908D01*
G01X0021885Y0027908D01*
G01X0021880Y0027906D01*
G01X0021876Y0027904D01*
G01X0021876Y0027904D01*
G01X0021876Y0027904D01*
G01X0021873Y0027901D01*
G01X0021870Y0027897D01*
G01X0021869Y0027897D01*
G01X0021869Y0027897D01*
G01X0021869Y0027896D01*
G01X0021866Y0027891D01*
G01X0021822Y0027785D01*
G01X0021715Y0027678D01*
G01X0021576Y0027620D01*
G01X0021424Y0027620D01*
G37*
G36*
G01X0018424Y0025620D02*
G01X0018424Y0025620D01*
G01X0018285Y0025678D01*
G01X0018178Y0025785D01*
G01X0018134Y0025891D01*
G01X0018131Y0025895D01*
G01X0018129Y0025899D01*
G01X0018129Y0025899D01*
G01X0018129Y0025900D01*
G01X0018125Y0025903D01*
G01X0018122Y0025906D01*
G01X0018121Y0025906D01*
G01X0018121Y0025906D01*
G01X0018117Y0025908D01*
G01X0018113Y0025909D01*
G01X0018112Y0025909D01*
G01X0018112Y0025909D01*
G01X0018111Y0025909D01*
G01X0018106Y0025910D01*
G01X0017350Y0025910D01*
G01X0017349Y0025910D01*
G01X0017348Y0025910D01*
G01X0017344Y0025909D01*
G01X0017340Y0025908D01*
G01X0017340Y0025908D01*
G01X0017339Y0025908D01*
G01X0017335Y0025906D01*
G01X0017332Y0025904D01*
G01X0017331Y0025903D01*
G01X0017331Y0025903D01*
G01X0017328Y0025900D01*
G01X0017325Y0025897D01*
G01X0017325Y0025896D01*
G01X0017324Y0025896D01*
G01X0017323Y0025892D01*
G01X0017321Y0025888D01*
G01X0017321Y0025887D01*
G01X0017321Y0025887D01*
G01X0017320Y0025880D01*
G01X0017320Y0025867D01*
G01X0017133Y0025680D01*
G01X0016867Y0025680D01*
G01X0016680Y0025867D01*
G01X0016680Y0025880D01*
G01X0016680Y0025881D01*
G01X0016680Y0025882D01*
G01X0016679Y0025886D01*
G01X0016678Y0025890D01*
G01X0016678Y0025890D01*
G01X0016678Y0025891D01*
G01X0016676Y0025895D01*
G01X0016674Y0025898D01*
G01X0016673Y0025899D01*
G01X0016673Y0025899D01*
G01X0016670Y0025902D01*
G01X0016667Y0025905D01*
G01X0016666Y0025905D01*
G01X0016666Y0025906D01*
G01X0016662Y0025907D01*
G01X0016658Y0025909D01*
G01X0016657Y0025909D01*
G01X0016657Y0025909D01*
G01X0016650Y0025910D01*
G01X0013672Y0025910D01*
G01X0013668Y0025909D01*
G01X0013663Y0025909D01*
G01X0013663Y0025908D01*
G01X0013663Y0025908D01*
G01X0013659Y0025906D01*
G01X0013655Y0025904D01*
G01X0013655Y0025904D01*
G01X0013654Y0025904D01*
G01X0013651Y0025901D01*
G01X0013648Y0025897D01*
G01X0013648Y0025897D01*
G01X0013648Y0025897D01*
G01X0013647Y0025896D01*
G01X0013645Y0025891D01*
G01X0013605Y0025796D01*
G01X0013504Y0025695D01*
G01X0013372Y0025640D01*
G01X0012628Y0025640D01*
G01X0012496Y0025695D01*
G01X0012395Y0025796D01*
G01X0012340Y0025928D01*
G01X0012340Y0026072D01*
G01X0012395Y0026204D01*
G01X0012496Y0026305D01*
G01X0012628Y0026360D01*
G01X0013372Y0026360D01*
G01X0013504Y0026305D01*
G01X0013605Y0026204D01*
G01X0013645Y0026109D01*
G01X0013647Y0026105D01*
G01X0013649Y0026101D01*
G01X0013650Y0026101D01*
G01X0013650Y0026100D01*
G01X0013653Y0026097D01*
G01X0013657Y0026094D01*
G01X0013657Y0026094D01*
G01X0013657Y0026094D01*
G01X0013662Y0026092D01*
G01X0013666Y0026091D01*
G01X0013666Y0026091D01*
G01X0013666Y0026091D01*
G01X0013667Y0026091D01*
G01X0013672Y0026090D01*
G01X0016650Y0026090D01*
G01X0016651Y0026090D01*
G01X0016652Y0026090D01*
G01X0016656Y0026091D01*
G01X0016660Y0026092D01*
G01X0016660Y0026092D01*
G01X0016661Y0026092D01*
G01X0016665Y0026094D01*
G01X0016668Y0026096D01*
G01X0016669Y0026097D01*
G01X0016669Y0026097D01*
G01X0016672Y0026100D01*
G01X0016675Y0026103D01*
G01X0016675Y0026104D01*
G01X0016676Y0026104D01*
G01X0016677Y0026108D01*
G01X0016679Y0026112D01*
G01X0016679Y0026113D01*
G01X0016679Y0026113D01*
G01X0016680Y0026120D01*
G01X0016680Y0026133D01*
G01X0016867Y0026320D01*
G01X0017133Y0026320D01*
G01X0017320Y0026133D01*
G01X0017320Y0026120D01*
G01X0017320Y0026119D01*
G01X0017320Y0026118D01*
G01X0017321Y0026114D01*
G01X0017322Y0026110D01*
G01X0017322Y0026110D01*
G01X0017322Y0026109D01*
G01X0017324Y0026105D01*
G01X0017326Y0026102D01*
G01X0017327Y0026101D01*
G01X0017327Y0026101D01*
G01X0017330Y0026098D01*
G01X0017333Y0026095D01*
G01X0017334Y0026095D01*
G01X0017334Y0026094D01*
G01X0017338Y0026093D01*
G01X0017342Y0026091D01*
G01X0017343Y0026091D01*
G01X0017343Y0026091D01*
G01X0017350Y0026090D01*
G01X0018106Y0026090D01*
G01X0018110Y0026091D01*
G01X0018115Y0026091D01*
G01X0018115Y0026092D01*
G01X0018115Y0026092D01*
G01X0018120Y0026094D01*
G01X0018124Y0026096D01*
G01X0018124Y0026096D01*
G01X0018124Y0026096D01*
G01X0018127Y0026099D01*
G01X0018130Y0026103D01*
G01X0018131Y0026103D01*
G01X0018131Y0026103D01*
G01X0018131Y0026104D01*
G01X0018134Y0026109D01*
G01X0018178Y0026215D01*
G01X0018285Y0026322D01*
G01X0018424Y0026380D01*
G01X0018576Y0026380D01*
G01X0018715Y0026322D01*
G01X0018822Y0026215D01*
G01X0018880Y0026076D01*
G01X0018880Y0025924D01*
G01X0018822Y0025785D01*
G01X0018715Y0025678D01*
G01X0018576Y0025620D01*
G01X0018424Y0025620D01*
G37*
G36*
G01X0018424Y0026620D02*
G01X0018424Y0026620D01*
G01X0018285Y0026678D01*
G01X0018178Y0026785D01*
G01X0018134Y0026891D01*
G01X0018131Y0026895D01*
G01X0018129Y0026899D01*
G01X0018129Y0026899D01*
G01X0018129Y0026900D01*
G01X0018125Y0026903D01*
G01X0018122Y0026906D01*
G01X0018121Y0026906D01*
G01X0018121Y0026906D01*
G01X0018117Y0026908D01*
G01X0018113Y0026909D01*
G01X0018112Y0026909D01*
G01X0018112Y0026909D01*
G01X0018111Y0026909D01*
G01X0018106Y0026910D01*
G01X0013672Y0026910D01*
G01X0013668Y0026909D01*
G01X0013663Y0026909D01*
G01X0013663Y0026908D01*
G01X0013663Y0026908D01*
G01X0013659Y0026906D01*
G01X0013655Y0026904D01*
G01X0013655Y0026904D01*
G01X0013654Y0026904D01*
G01X0013651Y0026901D01*
G01X0013648Y0026897D01*
G01X0013648Y0026897D01*
G01X0013648Y0026897D01*
G01X0013647Y0026896D01*
G01X0013645Y0026891D01*
G01X0013605Y0026796D01*
G01X0013504Y0026695D01*
G01X0013372Y0026640D01*
G01X0012628Y0026640D01*
G01X0012496Y0026695D01*
G01X0012395Y0026796D01*
G01X0012340Y0026928D01*
G01X0012340Y0027072D01*
G01X0012395Y0027204D01*
G01X0012496Y0027305D01*
G01X0012628Y0027360D01*
G01X0013372Y0027360D01*
G01X0013504Y0027305D01*
G01X0013605Y0027204D01*
G01X0013645Y0027109D01*
G01X0013647Y0027105D01*
G01X0013649Y0027101D01*
G01X0013650Y0027101D01*
G01X0013650Y0027100D01*
G01X0013653Y0027097D01*
G01X0013657Y0027094D01*
G01X0013657Y0027094D01*
G01X0013657Y0027094D01*
G01X0013662Y0027092D01*
G01X0013666Y0027091D01*
G01X0013666Y0027091D01*
G01X0013666Y0027091D01*
G01X0013667Y0027091D01*
G01X0013672Y0027090D01*
G01X0018106Y0027090D01*
G01X0018110Y0027091D01*
G01X0018115Y0027091D01*
G01X0018115Y0027092D01*
G01X0018115Y0027092D01*
G01X0018120Y0027094D01*
G01X0018124Y0027096D01*
G01X0018124Y0027096D01*
G01X0018124Y0027096D01*
G01X0018127Y0027099D01*
G01X0018130Y0027103D01*
G01X0018131Y0027103D01*
G01X0018131Y0027103D01*
G01X0018131Y0027104D01*
G01X0018134Y0027109D01*
G01X0018178Y0027215D01*
G01X0018285Y0027322D01*
G01X0018424Y0027380D01*
G01X0018576Y0027380D01*
G01X0018715Y0027322D01*
G01X0018822Y0027215D01*
G01X0018880Y0027076D01*
G01X0018880Y0026924D01*
G01X0018822Y0026785D01*
G01X0018715Y0026678D01*
G01X0018576Y0026620D01*
G01X0018424Y0026620D01*
G37*
G36*
G01X0018424Y0029620D02*
G01X0018424Y0029620D01*
G01X0018285Y0029678D01*
G01X0018178Y0029785D01*
G01X0018134Y0029891D01*
G01X0018131Y0029895D01*
G01X0018129Y0029899D01*
G01X0018129Y0029899D01*
G01X0018129Y0029900D01*
G01X0018125Y0029903D01*
G01X0018122Y0029906D01*
G01X0018121Y0029906D01*
G01X0018121Y0029906D01*
G01X0018117Y0029908D01*
G01X0018113Y0029909D01*
G01X0018112Y0029909D01*
G01X0018112Y0029909D01*
G01X0018111Y0029909D01*
G01X0018106Y0029910D01*
G01X0013672Y0029910D01*
G01X0013668Y0029909D01*
G01X0013663Y0029909D01*
G01X0013663Y0029908D01*
G01X0013663Y0029908D01*
G01X0013659Y0029906D01*
G01X0013655Y0029904D01*
G01X0013655Y0029904D01*
G01X0013654Y0029904D01*
G01X0013651Y0029901D01*
G01X0013648Y0029897D01*
G01X0013648Y0029897D01*
G01X0013648Y0029897D01*
G01X0013647Y0029896D01*
G01X0013645Y0029891D01*
G01X0013605Y0029796D01*
G01X0013504Y0029695D01*
G01X0013372Y0029640D01*
G01X0012628Y0029640D01*
G01X0012496Y0029695D01*
G01X0012395Y0029796D01*
G01X0012340Y0029928D01*
G01X0012340Y0030072D01*
G01X0012395Y0030204D01*
G01X0012496Y0030305D01*
G01X0012628Y0030360D01*
G01X0013372Y0030360D01*
G01X0013504Y0030305D01*
G01X0013605Y0030204D01*
G01X0013645Y0030109D01*
G01X0013647Y0030105D01*
G01X0013649Y0030101D01*
G01X0013650Y0030101D01*
G01X0013650Y0030100D01*
G01X0013653Y0030097D01*
G01X0013657Y0030094D01*
G01X0013657Y0030094D01*
G01X0013657Y0030094D01*
G01X0013662Y0030092D01*
G01X0013666Y0030091D01*
G01X0013666Y0030091D01*
G01X0013666Y0030091D01*
G01X0013667Y0030091D01*
G01X0013672Y0030090D01*
G01X0018106Y0030090D01*
G01X0018110Y0030091D01*
G01X0018115Y0030091D01*
G01X0018115Y0030092D01*
G01X0018115Y0030092D01*
G01X0018120Y0030094D01*
G01X0018124Y0030096D01*
G01X0018124Y0030096D01*
G01X0018124Y0030096D01*
G01X0018127Y0030099D01*
G01X0018130Y0030103D01*
G01X0018131Y0030103D01*
G01X0018131Y0030103D01*
G01X0018131Y0030104D01*
G01X0018134Y0030109D01*
G01X0018178Y0030215D01*
G01X0018285Y0030322D01*
G01X0018424Y0030380D01*
G01X0018576Y0030380D01*
G01X0018715Y0030322D01*
G01X0018822Y0030215D01*
G01X0018880Y0030076D01*
G01X0018880Y0029924D01*
G01X0018822Y0029785D01*
G01X0018715Y0029678D01*
G01X0018576Y0029620D01*
G01X0018424Y0029620D01*
G37*
G36*
G01X0018424Y0028620D02*
G01X0018424Y0028620D01*
G01X0018285Y0028678D01*
G01X0018178Y0028785D01*
G01X0018134Y0028891D01*
G01X0018131Y0028895D01*
G01X0018129Y0028899D01*
G01X0018129Y0028899D01*
G01X0018129Y0028900D01*
G01X0018125Y0028903D01*
G01X0018122Y0028906D01*
G01X0018121Y0028906D01*
G01X0018121Y0028906D01*
G01X0018117Y0028908D01*
G01X0018113Y0028909D01*
G01X0018112Y0028909D01*
G01X0018112Y0028909D01*
G01X0018111Y0028909D01*
G01X0018106Y0028910D01*
G01X0013672Y0028910D01*
G01X0013668Y0028909D01*
G01X0013663Y0028909D01*
G01X0013663Y0028908D01*
G01X0013663Y0028908D01*
G01X0013659Y0028906D01*
G01X0013655Y0028904D01*
G01X0013655Y0028904D01*
G01X0013654Y0028904D01*
G01X0013651Y0028901D01*
G01X0013648Y0028897D01*
G01X0013648Y0028897D01*
G01X0013648Y0028897D01*
G01X0013647Y0028896D01*
G01X0013645Y0028891D01*
G01X0013605Y0028796D01*
G01X0013504Y0028695D01*
G01X0013372Y0028640D01*
G01X0012628Y0028640D01*
G01X0012496Y0028695D01*
G01X0012395Y0028796D01*
G01X0012340Y0028928D01*
G01X0012340Y0029072D01*
G01X0012395Y0029204D01*
G01X0012496Y0029305D01*
G01X0012628Y0029360D01*
G01X0013372Y0029360D01*
G01X0013504Y0029305D01*
G01X0013605Y0029204D01*
G01X0013645Y0029109D01*
G01X0013647Y0029105D01*
G01X0013649Y0029101D01*
G01X0013650Y0029101D01*
G01X0013650Y0029100D01*
G01X0013653Y0029097D01*
G01X0013657Y0029094D01*
G01X0013657Y0029094D01*
G01X0013657Y0029094D01*
G01X0013662Y0029092D01*
G01X0013666Y0029091D01*
G01X0013666Y0029091D01*
G01X0013666Y0029091D01*
G01X0013667Y0029091D01*
G01X0013672Y0029090D01*
G01X0018106Y0029090D01*
G01X0018110Y0029091D01*
G01X0018115Y0029091D01*
G01X0018115Y0029092D01*
G01X0018115Y0029092D01*
G01X0018120Y0029094D01*
G01X0018124Y0029096D01*
G01X0018124Y0029096D01*
G01X0018124Y0029096D01*
G01X0018127Y0029099D01*
G01X0018130Y0029103D01*
G01X0018131Y0029103D01*
G01X0018131Y0029103D01*
G01X0018131Y0029104D01*
G01X0018134Y0029109D01*
G01X0018178Y0029215D01*
G01X0018285Y0029322D01*
G01X0018424Y0029380D01*
G01X0018576Y0029380D01*
G01X0018715Y0029322D01*
G01X0018822Y0029215D01*
G01X0018880Y0029076D01*
G01X0018880Y0028924D01*
G01X0018822Y0028785D01*
G01X0018715Y0028678D01*
G01X0018576Y0028620D01*
G01X0018424Y0028620D01*
G37*
G36*
G01X0018424Y0027620D02*
G01X0018424Y0027620D01*
G01X0018285Y0027678D01*
G01X0018178Y0027785D01*
G01X0018134Y0027891D01*
G01X0018131Y0027895D01*
G01X0018129Y0027899D01*
G01X0018129Y0027899D01*
G01X0018129Y0027900D01*
G01X0018125Y0027903D01*
G01X0018122Y0027906D01*
G01X0018121Y0027906D01*
G01X0018121Y0027906D01*
G01X0018117Y0027908D01*
G01X0018113Y0027909D01*
G01X0018112Y0027909D01*
G01X0018112Y0027909D01*
G01X0018111Y0027909D01*
G01X0018106Y0027910D01*
G01X0013672Y0027910D01*
G01X0013668Y0027909D01*
G01X0013663Y0027909D01*
G01X0013663Y0027908D01*
G01X0013663Y0027908D01*
G01X0013659Y0027906D01*
G01X0013655Y0027904D01*
G01X0013655Y0027904D01*
G01X0013654Y0027904D01*
G01X0013651Y0027901D01*
G01X0013648Y0027897D01*
G01X0013648Y0027897D01*
G01X0013648Y0027897D01*
G01X0013647Y0027896D01*
G01X0013645Y0027891D01*
G01X0013605Y0027796D01*
G01X0013504Y0027695D01*
G01X0013372Y0027640D01*
G01X0012628Y0027640D01*
G01X0012496Y0027695D01*
G01X0012395Y0027796D01*
G01X0012340Y0027928D01*
G01X0012340Y0028072D01*
G01X0012395Y0028204D01*
G01X0012496Y0028305D01*
G01X0012628Y0028360D01*
G01X0013372Y0028360D01*
G01X0013504Y0028305D01*
G01X0013605Y0028204D01*
G01X0013645Y0028109D01*
G01X0013647Y0028105D01*
G01X0013649Y0028101D01*
G01X0013650Y0028101D01*
G01X0013650Y0028100D01*
G01X0013653Y0028097D01*
G01X0013657Y0028094D01*
G01X0013657Y0028094D01*
G01X0013657Y0028094D01*
G01X0013662Y0028092D01*
G01X0013666Y0028091D01*
G01X0013666Y0028091D01*
G01X0013666Y0028091D01*
G01X0013667Y0028091D01*
G01X0013672Y0028090D01*
G01X0018106Y0028090D01*
G01X0018110Y0028091D01*
G01X0018115Y0028091D01*
G01X0018115Y0028092D01*
G01X0018115Y0028092D01*
G01X0018120Y0028094D01*
G01X0018124Y0028096D01*
G01X0018124Y0028096D01*
G01X0018124Y0028096D01*
G01X0018127Y0028099D01*
G01X0018130Y0028103D01*
G01X0018131Y0028103D01*
G01X0018131Y0028103D01*
G01X0018131Y0028104D01*
G01X0018134Y0028109D01*
G01X0018178Y0028215D01*
G01X0018285Y0028322D01*
G01X0018424Y0028380D01*
G01X0018576Y0028380D01*
G01X0018715Y0028322D01*
G01X0018822Y0028215D01*
G01X0018880Y0028076D01*
G01X0018880Y0027924D01*
G01X0018822Y0027785D01*
G01X0018715Y0027678D01*
G01X0018576Y0027620D01*
G01X0018424Y0027620D01*
G37*
G36*
G01X0018424Y0020620D02*
G01X0018424Y0020620D01*
G01X0018285Y0020678D01*
G01X0018178Y0020785D01*
G01X0018134Y0020891D01*
G01X0018131Y0020895D01*
G01X0018129Y0020899D01*
G01X0018129Y0020899D01*
G01X0018129Y0020900D01*
G01X0018125Y0020903D01*
G01X0018122Y0020906D01*
G01X0018121Y0020906D01*
G01X0018121Y0020906D01*
G01X0018117Y0020908D01*
G01X0018113Y0020909D01*
G01X0018112Y0020909D01*
G01X0018112Y0020909D01*
G01X0018111Y0020909D01*
G01X0018106Y0020910D01*
G01X0013672Y0020910D01*
G01X0013668Y0020909D01*
G01X0013663Y0020909D01*
G01X0013663Y0020908D01*
G01X0013663Y0020908D01*
G01X0013659Y0020906D01*
G01X0013655Y0020904D01*
G01X0013655Y0020904D01*
G01X0013654Y0020904D01*
G01X0013651Y0020901D01*
G01X0013648Y0020897D01*
G01X0013648Y0020897D01*
G01X0013648Y0020897D01*
G01X0013647Y0020896D01*
G01X0013645Y0020891D01*
G01X0013605Y0020796D01*
G01X0013504Y0020695D01*
G01X0013372Y0020640D01*
G01X0012628Y0020640D01*
G01X0012496Y0020695D01*
G01X0012395Y0020796D01*
G01X0012340Y0020928D01*
G01X0012340Y0021072D01*
G01X0012395Y0021204D01*
G01X0012496Y0021305D01*
G01X0012628Y0021360D01*
G01X0013372Y0021360D01*
G01X0013504Y0021305D01*
G01X0013605Y0021204D01*
G01X0013645Y0021109D01*
G01X0013647Y0021105D01*
G01X0013649Y0021101D01*
G01X0013650Y0021101D01*
G01X0013650Y0021100D01*
G01X0013653Y0021097D01*
G01X0013657Y0021094D01*
G01X0013657Y0021094D01*
G01X0013657Y0021094D01*
G01X0013662Y0021092D01*
G01X0013666Y0021091D01*
G01X0013666Y0021091D01*
G01X0013666Y0021091D01*
G01X0013667Y0021091D01*
G01X0013672Y0021090D01*
G01X0018106Y0021090D01*
G01X0018110Y0021091D01*
G01X0018115Y0021091D01*
G01X0018115Y0021092D01*
G01X0018115Y0021092D01*
G01X0018120Y0021094D01*
G01X0018124Y0021096D01*
G01X0018124Y0021096D01*
G01X0018124Y0021096D01*
G01X0018127Y0021099D01*
G01X0018130Y0021103D01*
G01X0018131Y0021103D01*
G01X0018131Y0021103D01*
G01X0018131Y0021104D01*
G01X0018134Y0021109D01*
G01X0018178Y0021215D01*
G01X0018285Y0021322D01*
G01X0018424Y0021380D01*
G01X0018576Y0021380D01*
G01X0018715Y0021322D01*
G01X0018822Y0021215D01*
G01X0018880Y0021076D01*
G01X0018880Y0020924D01*
G01X0018822Y0020785D01*
G01X0018715Y0020678D01*
G01X0018576Y0020620D01*
G01X0018424Y0020620D01*
G37*
G36*
G01X0018424Y0021620D02*
G01X0018424Y0021620D01*
G01X0018285Y0021678D01*
G01X0018178Y0021785D01*
G01X0018134Y0021891D01*
G01X0018131Y0021895D01*
G01X0018129Y0021899D01*
G01X0018129Y0021899D01*
G01X0018129Y0021900D01*
G01X0018125Y0021903D01*
G01X0018122Y0021906D01*
G01X0018121Y0021906D01*
G01X0018121Y0021906D01*
G01X0018117Y0021908D01*
G01X0018113Y0021909D01*
G01X0018112Y0021909D01*
G01X0018112Y0021909D01*
G01X0018111Y0021909D01*
G01X0018106Y0021910D01*
G01X0013672Y0021910D01*
G01X0013668Y0021909D01*
G01X0013663Y0021909D01*
G01X0013663Y0021908D01*
G01X0013663Y0021908D01*
G01X0013659Y0021906D01*
G01X0013655Y0021904D01*
G01X0013655Y0021904D01*
G01X0013654Y0021904D01*
G01X0013651Y0021901D01*
G01X0013648Y0021897D01*
G01X0013648Y0021897D01*
G01X0013648Y0021897D01*
G01X0013647Y0021896D01*
G01X0013645Y0021891D01*
G01X0013605Y0021796D01*
G01X0013504Y0021695D01*
G01X0013372Y0021640D01*
G01X0012628Y0021640D01*
G01X0012496Y0021695D01*
G01X0012395Y0021796D01*
G01X0012340Y0021928D01*
G01X0012340Y0022072D01*
G01X0012395Y0022204D01*
G01X0012496Y0022305D01*
G01X0012628Y0022360D01*
G01X0013372Y0022360D01*
G01X0013504Y0022305D01*
G01X0013605Y0022204D01*
G01X0013645Y0022109D01*
G01X0013647Y0022105D01*
G01X0013649Y0022101D01*
G01X0013650Y0022101D01*
G01X0013650Y0022100D01*
G01X0013653Y0022097D01*
G01X0013657Y0022094D01*
G01X0013657Y0022094D01*
G01X0013657Y0022094D01*
G01X0013662Y0022092D01*
G01X0013666Y0022091D01*
G01X0013666Y0022091D01*
G01X0013666Y0022091D01*
G01X0013667Y0022091D01*
G01X0013672Y0022090D01*
G01X0018106Y0022090D01*
G01X0018110Y0022091D01*
G01X0018115Y0022091D01*
G01X0018115Y0022092D01*
G01X0018115Y0022092D01*
G01X0018120Y0022094D01*
G01X0018124Y0022096D01*
G01X0018124Y0022096D01*
G01X0018124Y0022096D01*
G01X0018127Y0022099D01*
G01X0018130Y0022103D01*
G01X0018131Y0022103D01*
G01X0018131Y0022103D01*
G01X0018131Y0022104D01*
G01X0018134Y0022109D01*
G01X0018178Y0022215D01*
G01X0018285Y0022322D01*
G01X0018424Y0022380D01*
G01X0018576Y0022380D01*
G01X0018715Y0022322D01*
G01X0018822Y0022215D01*
G01X0018880Y0022076D01*
G01X0018880Y0021924D01*
G01X0018822Y0021785D01*
G01X0018715Y0021678D01*
G01X0018576Y0021620D01*
G01X0018424Y0021620D01*
G37*
G36*
G01X0018424Y0016620D02*
G01X0018424Y0016620D01*
G01X0018285Y0016678D01*
G01X0018178Y0016785D01*
G01X0018134Y0016891D01*
G01X0018131Y0016895D01*
G01X0018129Y0016899D01*
G01X0018129Y0016899D01*
G01X0018129Y0016900D01*
G01X0018125Y0016903D01*
G01X0018122Y0016906D01*
G01X0018121Y0016906D01*
G01X0018121Y0016906D01*
G01X0018117Y0016908D01*
G01X0018113Y0016909D01*
G01X0018112Y0016909D01*
G01X0018112Y0016909D01*
G01X0018111Y0016909D01*
G01X0018106Y0016910D01*
G01X0013672Y0016910D01*
G01X0013668Y0016909D01*
G01X0013663Y0016909D01*
G01X0013663Y0016908D01*
G01X0013663Y0016908D01*
G01X0013659Y0016906D01*
G01X0013655Y0016904D01*
G01X0013655Y0016904D01*
G01X0013654Y0016904D01*
G01X0013651Y0016901D01*
G01X0013648Y0016897D01*
G01X0013648Y0016897D01*
G01X0013648Y0016897D01*
G01X0013647Y0016896D01*
G01X0013645Y0016891D01*
G01X0013605Y0016796D01*
G01X0013504Y0016695D01*
G01X0013372Y0016640D01*
G01X0012628Y0016640D01*
G01X0012496Y0016695D01*
G01X0012395Y0016796D01*
G01X0012340Y0016928D01*
G01X0012340Y0017072D01*
G01X0012395Y0017204D01*
G01X0012496Y0017305D01*
G01X0012628Y0017360D01*
G01X0013372Y0017360D01*
G01X0013504Y0017305D01*
G01X0013605Y0017204D01*
G01X0013645Y0017109D01*
G01X0013647Y0017105D01*
G01X0013649Y0017101D01*
G01X0013650Y0017101D01*
G01X0013650Y0017100D01*
G01X0013653Y0017097D01*
G01X0013657Y0017094D01*
G01X0013657Y0017094D01*
G01X0013657Y0017094D01*
G01X0013662Y0017092D01*
G01X0013666Y0017091D01*
G01X0013666Y0017091D01*
G01X0013666Y0017091D01*
G01X0013667Y0017091D01*
G01X0013672Y0017090D01*
G01X0018106Y0017090D01*
G01X0018110Y0017091D01*
G01X0018115Y0017091D01*
G01X0018115Y0017092D01*
G01X0018115Y0017092D01*
G01X0018120Y0017094D01*
G01X0018124Y0017096D01*
G01X0018124Y0017096D01*
G01X0018124Y0017096D01*
G01X0018127Y0017099D01*
G01X0018130Y0017103D01*
G01X0018131Y0017103D01*
G01X0018131Y0017103D01*
G01X0018131Y0017104D01*
G01X0018134Y0017109D01*
G01X0018178Y0017215D01*
G01X0018285Y0017322D01*
G01X0018424Y0017380D01*
G01X0018576Y0017380D01*
G01X0018715Y0017322D01*
G01X0018822Y0017215D01*
G01X0018880Y0017076D01*
G01X0018880Y0016924D01*
G01X0018822Y0016785D01*
G01X0018715Y0016678D01*
G01X0018576Y0016620D01*
G01X0018424Y0016620D01*
G37*
G36*
G01X0018424Y0017620D02*
G01X0018424Y0017620D01*
G01X0018285Y0017678D01*
G01X0018178Y0017785D01*
G01X0018134Y0017891D01*
G01X0018131Y0017895D01*
G01X0018129Y0017899D01*
G01X0018129Y0017899D01*
G01X0018129Y0017900D01*
G01X0018125Y0017903D01*
G01X0018122Y0017906D01*
G01X0018121Y0017906D01*
G01X0018121Y0017906D01*
G01X0018117Y0017908D01*
G01X0018113Y0017909D01*
G01X0018112Y0017909D01*
G01X0018112Y0017909D01*
G01X0018111Y0017909D01*
G01X0018106Y0017910D01*
G01X0013672Y0017910D01*
G01X0013668Y0017909D01*
G01X0013663Y0017909D01*
G01X0013663Y0017908D01*
G01X0013663Y0017908D01*
G01X0013659Y0017906D01*
G01X0013655Y0017904D01*
G01X0013655Y0017904D01*
G01X0013654Y0017904D01*
G01X0013651Y0017901D01*
G01X0013648Y0017897D01*
G01X0013648Y0017897D01*
G01X0013648Y0017897D01*
G01X0013647Y0017896D01*
G01X0013645Y0017891D01*
G01X0013605Y0017796D01*
G01X0013504Y0017695D01*
G01X0013372Y0017640D01*
G01X0012628Y0017640D01*
G01X0012496Y0017695D01*
G01X0012395Y0017796D01*
G01X0012340Y0017928D01*
G01X0012340Y0018072D01*
G01X0012395Y0018204D01*
G01X0012496Y0018305D01*
G01X0012628Y0018360D01*
G01X0013372Y0018360D01*
G01X0013504Y0018305D01*
G01X0013605Y0018204D01*
G01X0013645Y0018109D01*
G01X0013647Y0018105D01*
G01X0013649Y0018101D01*
G01X0013650Y0018101D01*
G01X0013650Y0018100D01*
G01X0013653Y0018097D01*
G01X0013657Y0018094D01*
G01X0013657Y0018094D01*
G01X0013657Y0018094D01*
G01X0013662Y0018092D01*
G01X0013666Y0018091D01*
G01X0013666Y0018091D01*
G01X0013666Y0018091D01*
G01X0013667Y0018091D01*
G01X0013672Y0018090D01*
G01X0018106Y0018090D01*
G01X0018110Y0018091D01*
G01X0018115Y0018091D01*
G01X0018115Y0018092D01*
G01X0018115Y0018092D01*
G01X0018120Y0018094D01*
G01X0018124Y0018096D01*
G01X0018124Y0018096D01*
G01X0018124Y0018096D01*
G01X0018127Y0018099D01*
G01X0018130Y0018103D01*
G01X0018131Y0018103D01*
G01X0018131Y0018103D01*
G01X0018131Y0018104D01*
G01X0018134Y0018109D01*
G01X0018178Y0018215D01*
G01X0018285Y0018322D01*
G01X0018424Y0018380D01*
G01X0018576Y0018380D01*
G01X0018715Y0018322D01*
G01X0018822Y0018215D01*
G01X0018880Y0018076D01*
G01X0018880Y0017924D01*
G01X0018822Y0017785D01*
G01X0018715Y0017678D01*
G01X0018576Y0017620D01*
G01X0018424Y0017620D01*
G37*
G36*
G01X0018424Y0018620D02*
G01X0018424Y0018620D01*
G01X0018285Y0018678D01*
G01X0018178Y0018785D01*
G01X0018134Y0018891D01*
G01X0018131Y0018895D01*
G01X0018129Y0018899D01*
G01X0018129Y0018899D01*
G01X0018129Y0018900D01*
G01X0018125Y0018903D01*
G01X0018122Y0018906D01*
G01X0018121Y0018906D01*
G01X0018121Y0018906D01*
G01X0018117Y0018908D01*
G01X0018113Y0018909D01*
G01X0018112Y0018909D01*
G01X0018112Y0018909D01*
G01X0018111Y0018909D01*
G01X0018106Y0018910D01*
G01X0013672Y0018910D01*
G01X0013668Y0018909D01*
G01X0013663Y0018909D01*
G01X0013663Y0018908D01*
G01X0013663Y0018908D01*
G01X0013659Y0018906D01*
G01X0013655Y0018904D01*
G01X0013655Y0018904D01*
G01X0013654Y0018904D01*
G01X0013651Y0018901D01*
G01X0013648Y0018897D01*
G01X0013648Y0018897D01*
G01X0013648Y0018897D01*
G01X0013647Y0018896D01*
G01X0013645Y0018891D01*
G01X0013605Y0018796D01*
G01X0013504Y0018695D01*
G01X0013372Y0018640D01*
G01X0012628Y0018640D01*
G01X0012496Y0018695D01*
G01X0012395Y0018796D01*
G01X0012340Y0018928D01*
G01X0012340Y0019072D01*
G01X0012395Y0019204D01*
G01X0012496Y0019305D01*
G01X0012628Y0019360D01*
G01X0013372Y0019360D01*
G01X0013504Y0019305D01*
G01X0013605Y0019204D01*
G01X0013645Y0019109D01*
G01X0013647Y0019105D01*
G01X0013649Y0019101D01*
G01X0013650Y0019101D01*
G01X0013650Y0019100D01*
G01X0013653Y0019097D01*
G01X0013657Y0019094D01*
G01X0013657Y0019094D01*
G01X0013657Y0019094D01*
G01X0013662Y0019092D01*
G01X0013666Y0019091D01*
G01X0013666Y0019091D01*
G01X0013666Y0019091D01*
G01X0013667Y0019091D01*
G01X0013672Y0019090D01*
G01X0018106Y0019090D01*
G01X0018110Y0019091D01*
G01X0018115Y0019091D01*
G01X0018115Y0019092D01*
G01X0018115Y0019092D01*
G01X0018120Y0019094D01*
G01X0018124Y0019096D01*
G01X0018124Y0019096D01*
G01X0018124Y0019096D01*
G01X0018127Y0019099D01*
G01X0018130Y0019103D01*
G01X0018131Y0019103D01*
G01X0018131Y0019103D01*
G01X0018131Y0019104D01*
G01X0018134Y0019109D01*
G01X0018178Y0019215D01*
G01X0018285Y0019322D01*
G01X0018424Y0019380D01*
G01X0018576Y0019380D01*
G01X0018715Y0019322D01*
G01X0018822Y0019215D01*
G01X0018880Y0019076D01*
G01X0018880Y0018924D01*
G01X0018822Y0018785D01*
G01X0018715Y0018678D01*
G01X0018576Y0018620D01*
G01X0018424Y0018620D01*
G37*
G36*
G01X0018424Y0019620D02*
G01X0018424Y0019620D01*
G01X0018285Y0019678D01*
G01X0018178Y0019785D01*
G01X0018134Y0019891D01*
G01X0018131Y0019895D01*
G01X0018129Y0019899D01*
G01X0018129Y0019899D01*
G01X0018129Y0019900D01*
G01X0018125Y0019903D01*
G01X0018122Y0019906D01*
G01X0018121Y0019906D01*
G01X0018121Y0019906D01*
G01X0018117Y0019908D01*
G01X0018113Y0019909D01*
G01X0018112Y0019909D01*
G01X0018112Y0019909D01*
G01X0018111Y0019909D01*
G01X0018106Y0019910D01*
G01X0013672Y0019910D01*
G01X0013668Y0019909D01*
G01X0013663Y0019909D01*
G01X0013663Y0019908D01*
G01X0013663Y0019908D01*
G01X0013659Y0019906D01*
G01X0013655Y0019904D01*
G01X0013655Y0019904D01*
G01X0013654Y0019904D01*
G01X0013651Y0019901D01*
G01X0013648Y0019897D01*
G01X0013648Y0019897D01*
G01X0013648Y0019897D01*
G01X0013647Y0019896D01*
G01X0013645Y0019891D01*
G01X0013605Y0019796D01*
G01X0013504Y0019695D01*
G01X0013372Y0019640D01*
G01X0012628Y0019640D01*
G01X0012496Y0019695D01*
G01X0012395Y0019796D01*
G01X0012340Y0019928D01*
G01X0012340Y0020072D01*
G01X0012395Y0020204D01*
G01X0012496Y0020305D01*
G01X0012628Y0020360D01*
G01X0013372Y0020360D01*
G01X0013504Y0020305D01*
G01X0013605Y0020204D01*
G01X0013645Y0020109D01*
G01X0013647Y0020105D01*
G01X0013649Y0020101D01*
G01X0013650Y0020101D01*
G01X0013650Y0020100D01*
G01X0013653Y0020097D01*
G01X0013657Y0020094D01*
G01X0013657Y0020094D01*
G01X0013657Y0020094D01*
G01X0013662Y0020092D01*
G01X0013666Y0020091D01*
G01X0013666Y0020091D01*
G01X0013666Y0020091D01*
G01X0013667Y0020091D01*
G01X0013672Y0020090D01*
G01X0018106Y0020090D01*
G01X0018110Y0020091D01*
G01X0018115Y0020091D01*
G01X0018115Y0020092D01*
G01X0018115Y0020092D01*
G01X0018120Y0020094D01*
G01X0018124Y0020096D01*
G01X0018124Y0020096D01*
G01X0018124Y0020096D01*
G01X0018127Y0020099D01*
G01X0018130Y0020103D01*
G01X0018131Y0020103D01*
G01X0018131Y0020103D01*
G01X0018131Y0020104D01*
G01X0018134Y0020109D01*
G01X0018178Y0020215D01*
G01X0018285Y0020322D01*
G01X0018424Y0020380D01*
G01X0018576Y0020380D01*
G01X0018715Y0020322D01*
G01X0018822Y0020215D01*
G01X0018880Y0020076D01*
G01X0018880Y0019924D01*
G01X0018822Y0019785D01*
G01X0018715Y0019678D01*
G01X0018576Y0019620D01*
G01X0018424Y0019620D01*
G37*
G36*
G01X0023423Y0023615D02*
G01X0023423Y0023615D01*
G01X0023282Y0023674D01*
G01X0023174Y0023782D01*
G01X0023128Y0023891D01*
G01X0023126Y0023895D01*
G01X0023123Y0023899D01*
G01X0023123Y0023899D01*
G01X0023123Y0023900D01*
G01X0023120Y0023903D01*
G01X0023116Y0023906D01*
G01X0023116Y0023906D01*
G01X0023116Y0023906D01*
G01X0023111Y0023908D01*
G01X0023107Y0023909D01*
G01X0023107Y0023909D01*
G01X0023107Y0023909D01*
G01X0023106Y0023909D01*
G01X0023101Y0023910D01*
G01X0022463Y0023910D01*
G01X0022401Y0023972D01*
G01X0021715Y0024658D01*
G01X0021711Y0024660D01*
G01X0021708Y0024663D01*
G01X0021707Y0024663D01*
G01X0021707Y0024663D01*
G01X0021703Y0024665D01*
G01X0021698Y0024666D01*
G01X0021698Y0024666D01*
G01X0021698Y0024666D01*
G01X0021693Y0024666D01*
G01X0021689Y0024666D01*
G01X0021688Y0024666D01*
G01X0021688Y0024666D01*
G01X0021687Y0024666D01*
G01X0021682Y0024664D01*
G01X0021576Y0024620D01*
G01X0021424Y0024620D01*
G01X0021285Y0024678D01*
G01X0021178Y0024785D01*
G01X0021120Y0024924D01*
G01X0021120Y0025076D01*
G01X0021178Y0025215D01*
G01X0021285Y0025322D01*
G01X0021424Y0025380D01*
G01X0021576Y0025380D01*
G01X0021715Y0025322D01*
G01X0021822Y0025215D01*
G01X0021880Y0025076D01*
G01X0021880Y0024924D01*
G01X0021836Y0024818D01*
G01X0021835Y0024813D01*
G01X0021834Y0024809D01*
G01X0021834Y0024809D01*
G01X0021834Y0024808D01*
G01X0021834Y0024804D01*
G01X0021834Y0024799D01*
G01X0021834Y0024799D01*
G01X0021834Y0024799D01*
G01X0021836Y0024794D01*
G01X0021838Y0024790D01*
G01X0021838Y0024790D01*
G01X0021838Y0024790D01*
G01X0021839Y0024789D01*
G01X0021842Y0024785D01*
G01X0022529Y0024099D01*
G01X0022531Y0024097D01*
G01X0022534Y0024094D01*
G01X0022535Y0024094D01*
G01X0022536Y0024093D01*
G01X0022540Y0024092D01*
G01X0022543Y0024091D01*
G01X0022545Y0024091D01*
G01X0022546Y0024090D01*
G01X0022547Y0024090D01*
G01X0022550Y0024090D01*
G01X0023101Y0024090D01*
G01X0023105Y0024091D01*
G01X0023110Y0024091D01*
G01X0023110Y0024092D01*
G01X0023110Y0024092D01*
G01X0023114Y0024094D01*
G01X0023118Y0024096D01*
G01X0023118Y0024096D01*
G01X0023119Y0024096D01*
G01X0023122Y0024099D01*
G01X0023125Y0024103D01*
G01X0023125Y0024103D01*
G01X0023125Y0024103D01*
G01X0023126Y0024104D01*
G01X0023128Y0024109D01*
G01X0023174Y0024218D01*
G01X0023282Y0024326D01*
G01X0023423Y0024385D01*
G01X0023577Y0024385D01*
G01X0023718Y0024326D01*
G01X0023826Y0024218D01*
G01X0023872Y0024109D01*
G01X0023874Y0024105D01*
G01X0023877Y0024101D01*
G01X0023877Y0024101D01*
G01X0023877Y0024100D01*
G01X0023880Y0024097D01*
G01X0023884Y0024094D01*
G01X0023884Y0024094D01*
G01X0023884Y0024094D01*
G01X0023889Y0024092D01*
G01X0023893Y0024091D01*
G01X0023893Y0024091D01*
G01X0023893Y0024091D01*
G01X0023894Y0024091D01*
G01X0023899Y0024090D01*
G01X0025650Y0024090D01*
G01X0025651Y0024090D01*
G01X0025652Y0024090D01*
G01X0025656Y0024091D01*
G01X0025660Y0024092D01*
G01X0025660Y0024092D01*
G01X0025661Y0024092D01*
G01X0025665Y0024094D01*
G01X0025668Y0024096D01*
G01X0025669Y0024097D01*
G01X0025669Y0024097D01*
G01X0025672Y0024100D01*
G01X0025675Y0024103D01*
G01X0025675Y0024104D01*
G01X0025676Y0024104D01*
G01X0025677Y0024108D01*
G01X0025679Y0024112D01*
G01X0025679Y0024113D01*
G01X0025679Y0024113D01*
G01X0025680Y0024120D01*
G01X0025680Y0024133D01*
G01X0025867Y0024320D01*
G01X0026133Y0024320D01*
G01X0026320Y0024133D01*
G01X0026320Y0023867D01*
G01X0026133Y0023680D01*
G01X0025867Y0023680D01*
G01X0025680Y0023867D01*
G01X0025680Y0023880D01*
G01X0025680Y0023881D01*
G01X0025680Y0023882D01*
G01X0025679Y0023886D01*
G01X0025678Y0023890D01*
G01X0025678Y0023890D01*
G01X0025678Y0023891D01*
G01X0025676Y0023895D01*
G01X0025674Y0023898D01*
G01X0025673Y0023899D01*
G01X0025673Y0023899D01*
G01X0025670Y0023902D01*
G01X0025667Y0023905D01*
G01X0025666Y0023905D01*
G01X0025666Y0023906D01*
G01X0025662Y0023907D01*
G01X0025658Y0023909D01*
G01X0025657Y0023909D01*
G01X0025657Y0023909D01*
G01X0025650Y0023910D01*
G01X0023899Y0023910D01*
G01X0023895Y0023909D01*
G01X0023890Y0023909D01*
G01X0023890Y0023908D01*
G01X0023890Y0023908D01*
G01X0023886Y0023906D01*
G01X0023882Y0023904D01*
G01X0023882Y0023904D01*
G01X0023881Y0023904D01*
G01X0023878Y0023901D01*
G01X0023875Y0023897D01*
G01X0023875Y0023897D01*
G01X0023875Y0023897D01*
G01X0023874Y0023896D01*
G01X0023872Y0023891D01*
G01X0023826Y0023782D01*
G01X0023718Y0023674D01*
G01X0023577Y0023615D01*
G01X0023423Y0023615D01*
G37*
G36*
G01X0023423Y0025615D02*
G01X0023423Y0025615D01*
G01X0023282Y0025674D01*
G01X0023174Y0025782D01*
G01X0023128Y0025891D01*
G01X0023126Y0025895D01*
G01X0023123Y0025899D01*
G01X0023123Y0025899D01*
G01X0023123Y0025900D01*
G01X0023120Y0025903D01*
G01X0023116Y0025906D01*
G01X0023116Y0025906D01*
G01X0023116Y0025906D01*
G01X0023111Y0025908D01*
G01X0023107Y0025909D01*
G01X0023107Y0025909D01*
G01X0023107Y0025909D01*
G01X0023106Y0025909D01*
G01X0023101Y0025910D01*
G01X0021894Y0025910D01*
G01X0021890Y0025909D01*
G01X0021885Y0025909D01*
G01X0021885Y0025908D01*
G01X0021885Y0025908D01*
G01X0021880Y0025906D01*
G01X0021876Y0025904D01*
G01X0021876Y0025904D01*
G01X0021876Y0025904D01*
G01X0021873Y0025901D01*
G01X0021870Y0025897D01*
G01X0021869Y0025897D01*
G01X0021869Y0025897D01*
G01X0021869Y0025896D01*
G01X0021866Y0025891D01*
G01X0021822Y0025785D01*
G01X0021715Y0025678D01*
G01X0021576Y0025620D01*
G01X0021424Y0025620D01*
G01X0021285Y0025678D01*
G01X0021178Y0025785D01*
G01X0021120Y0025924D01*
G01X0021120Y0026076D01*
G01X0021178Y0026215D01*
G01X0021285Y0026322D01*
G01X0021424Y0026380D01*
G01X0021576Y0026380D01*
G01X0021715Y0026322D01*
G01X0021822Y0026215D01*
G01X0021866Y0026109D01*
G01X0021869Y0026105D01*
G01X0021871Y0026101D01*
G01X0021871Y0026101D01*
G01X0021871Y0026100D01*
G01X0021875Y0026097D01*
G01X0021878Y0026094D01*
G01X0021879Y0026094D01*
G01X0021879Y0026094D01*
G01X0021883Y0026092D01*
G01X0021887Y0026091D01*
G01X0021888Y0026091D01*
G01X0021888Y0026091D01*
G01X0021889Y0026091D01*
G01X0021894Y0026090D01*
G01X0023101Y0026090D01*
G01X0023105Y0026091D01*
G01X0023110Y0026091D01*
G01X0023110Y0026092D01*
G01X0023110Y0026092D01*
G01X0023114Y0026094D01*
G01X0023118Y0026096D01*
G01X0023118Y0026096D01*
G01X0023119Y0026096D01*
G01X0023122Y0026099D01*
G01X0023125Y0026103D01*
G01X0023125Y0026103D01*
G01X0023125Y0026103D01*
G01X0023126Y0026104D01*
G01X0023128Y0026109D01*
G01X0023174Y0026218D01*
G01X0023282Y0026326D01*
G01X0023423Y0026385D01*
G01X0023577Y0026385D01*
G01X0023718Y0026326D01*
G01X0023826Y0026218D01*
G01X0023872Y0026109D01*
G01X0023874Y0026105D01*
G01X0023877Y0026101D01*
G01X0023877Y0026101D01*
G01X0023877Y0026100D01*
G01X0023880Y0026097D01*
G01X0023884Y0026094D01*
G01X0023884Y0026094D01*
G01X0023884Y0026094D01*
G01X0023889Y0026092D01*
G01X0023893Y0026091D01*
G01X0023893Y0026091D01*
G01X0023893Y0026091D01*
G01X0023894Y0026091D01*
G01X0023899Y0026090D01*
G01X0025650Y0026090D01*
G01X0025651Y0026090D01*
G01X0025652Y0026090D01*
G01X0025656Y0026091D01*
G01X0025660Y0026092D01*
G01X0025660Y0026092D01*
G01X0025661Y0026092D01*
G01X0025665Y0026094D01*
G01X0025668Y0026096D01*
G01X0025669Y0026097D01*
G01X0025669Y0026097D01*
G01X0025672Y0026100D01*
G01X0025675Y0026103D01*
G01X0025675Y0026104D01*
G01X0025676Y0026104D01*
G01X0025677Y0026108D01*
G01X0025679Y0026112D01*
G01X0025679Y0026113D01*
G01X0025679Y0026113D01*
G01X0025680Y0026120D01*
G01X0025680Y0026133D01*
G01X0025867Y0026320D01*
G01X0026133Y0026320D01*
G01X0026320Y0026133D01*
G01X0026320Y0025867D01*
G01X0026133Y0025680D01*
G01X0025867Y0025680D01*
G01X0025680Y0025867D01*
G01X0025680Y0025880D01*
G01X0025680Y0025881D01*
G01X0025680Y0025882D01*
G01X0025679Y0025886D01*
G01X0025678Y0025890D01*
G01X0025678Y0025890D01*
G01X0025678Y0025891D01*
G01X0025676Y0025895D01*
G01X0025674Y0025898D01*
G01X0025673Y0025899D01*
G01X0025673Y0025899D01*
G01X0025670Y0025902D01*
G01X0025667Y0025905D01*
G01X0025666Y0025905D01*
G01X0025666Y0025906D01*
G01X0025662Y0025907D01*
G01X0025658Y0025909D01*
G01X0025657Y0025909D01*
G01X0025657Y0025909D01*
G01X0025650Y0025910D01*
G01X0023899Y0025910D01*
G01X0023895Y0025909D01*
G01X0023890Y0025909D01*
G01X0023890Y0025908D01*
G01X0023890Y0025908D01*
G01X0023886Y0025906D01*
G01X0023882Y0025904D01*
G01X0023882Y0025904D01*
G01X0023881Y0025904D01*
G01X0023878Y0025901D01*
G01X0023875Y0025897D01*
G01X0023875Y0025897D01*
G01X0023875Y0025897D01*
G01X0023874Y0025896D01*
G01X0023872Y0025891D01*
G01X0023826Y0025782D01*
G01X0023718Y0025674D01*
G01X0023577Y0025615D01*
G01X0023423Y0025615D01*
G37*
G36*
G01X0016867Y0022680D02*
G01X0016867Y0022680D01*
G01X0016680Y0022867D01*
G01X0016680Y0023133D01*
G01X0016689Y0023141D01*
G01X0016689Y0023142D01*
G01X0016690Y0023143D01*
G01X0016692Y0023146D01*
G01X0016695Y0023149D01*
G01X0016695Y0023150D01*
G01X0016695Y0023151D01*
G01X0016696Y0023155D01*
G01X0016697Y0023159D01*
G01X0016697Y0023159D01*
G01X0016698Y0023160D01*
G01X0016697Y0023164D01*
G01X0016697Y0023168D01*
G01X0016697Y0023169D01*
G01X0016697Y0023170D01*
G01X0016695Y0023173D01*
G01X0016694Y0023177D01*
G01X0016693Y0023178D01*
G01X0016693Y0023179D01*
G01X0016689Y0023184D01*
G01X0015981Y0023892D01*
G01X0015979Y0023893D01*
G01X0015977Y0023895D01*
G01X0015975Y0023896D01*
G01X0015973Y0023897D01*
G01X0015971Y0023898D01*
G01X0015968Y0023899D01*
G01X0015966Y0023899D01*
G01X0015964Y0023900D01*
G01X0015961Y0023900D01*
G01X0015958Y0023900D01*
G01X0015956Y0023900D01*
G01X0015954Y0023900D01*
G01X0015952Y0023899D01*
G01X0015949Y0023898D01*
G01X0015947Y0023897D01*
G01X0015945Y0023896D01*
G01X0015943Y0023895D01*
G01X0015941Y0023893D01*
G01X0015939Y0023892D01*
G01X0015938Y0023890D01*
G01X0015936Y0023888D01*
G01X0015934Y0023886D01*
G01X0015934Y0023884D01*
G01X0015932Y0023882D01*
G01X0015932Y0023880D01*
G01X0015931Y0023877D01*
G01X0015930Y0023874D01*
G01X0015930Y0023873D01*
G01X0015930Y0023872D01*
G01X0015930Y0023870D01*
G01X0015930Y0023822D01*
G01X0015678Y0023570D01*
G01X0015560Y0023570D01*
G01X0015560Y0023970D01*
G01X0015560Y0023971D01*
G01X0015560Y0023972D01*
G01X0015559Y0023976D01*
G01X0015558Y0023980D01*
G01X0015558Y0023980D01*
G01X0015558Y0023981D01*
G01X0015556Y0023985D01*
G01X0015554Y0023988D01*
G01X0015553Y0023989D01*
G01X0015553Y0023989D01*
G01X0015550Y0023992D01*
G01X0015547Y0023995D01*
G01X0015546Y0023995D01*
G01X0015546Y0023996D01*
G01X0015542Y0023997D01*
G01X0015538Y0023999D01*
G01X0015537Y0023999D01*
G01X0015537Y0023999D01*
G01X0015530Y0024000D01*
G01X0015470Y0024000D01*
G01X0015469Y0024000D01*
G01X0015468Y0024000D01*
G01X0015464Y0023999D01*
G01X0015460Y0023998D01*
G01X0015460Y0023998D01*
G01X0015459Y0023998D01*
G01X0015455Y0023996D01*
G01X0015452Y0023994D01*
G01X0015451Y0023993D01*
G01X0015451Y0023993D01*
G01X0015448Y0023990D01*
G01X0015445Y0023987D01*
G01X0015445Y0023986D01*
G01X0015444Y0023986D01*
G01X0015443Y0023982D01*
G01X0015441Y0023978D01*
G01X0015441Y0023977D01*
G01X0015441Y0023977D01*
G01X0015440Y0023970D01*
G01X0015440Y0023570D01*
G01X0015322Y0023570D01*
G01X0015070Y0023822D01*
G01X0015070Y0023964D01*
G01X0015070Y0023967D01*
G01X0015069Y0023970D01*
G01X0015069Y0023972D01*
G01X0015068Y0023974D01*
G01X0015067Y0023976D01*
G01X0015066Y0023979D01*
G01X0015065Y0023981D01*
G01X0015064Y0023982D01*
G01X0015062Y0023984D01*
G01X0015060Y0023987D01*
G01X0015058Y0023988D01*
G01X0015057Y0023989D01*
G01X0015054Y0023990D01*
G01X0015052Y0023992D01*
G01X0015050Y0023992D01*
G01X0015048Y0023993D01*
G01X0015045Y0023993D01*
G01X0015043Y0023994D01*
G01X0015041Y0023994D01*
G01X0015038Y0023994D01*
G01X0015036Y0023994D01*
G01X0015033Y0023993D01*
G01X0015031Y0023993D01*
G01X0015029Y0023992D01*
G01X0015027Y0023991D01*
G01X0015024Y0023990D01*
G01X0015022Y0023988D01*
G01X0015021Y0023987D01*
G01X0015020Y0023987D01*
G01X0015019Y0023985D01*
G01X0014943Y0023910D01*
G01X0014920Y0023910D01*
G01X0014919Y0023910D01*
G01X0014918Y0023910D01*
G01X0014914Y0023909D01*
G01X0014910Y0023908D01*
G01X0014910Y0023908D01*
G01X0014909Y0023908D01*
G01X0014905Y0023906D01*
G01X0014902Y0023904D01*
G01X0014901Y0023903D01*
G01X0014901Y0023903D01*
G01X0014898Y0023900D01*
G01X0014895Y0023897D01*
G01X0014895Y0023896D01*
G01X0014894Y0023896D01*
G01X0014893Y0023892D01*
G01X0014891Y0023888D01*
G01X0014891Y0023887D01*
G01X0014891Y0023887D01*
G01X0014890Y0023880D01*
G01X0014890Y0023838D01*
G01X0014662Y0023610D01*
G01X0014338Y0023610D01*
G01X0014110Y0023838D01*
G01X0014110Y0024162D01*
G01X0014338Y0024390D01*
G01X0014662Y0024390D01*
G01X0014894Y0024158D01*
G01X0014895Y0024157D01*
G01X0014895Y0024157D01*
G01X0014898Y0024154D01*
G01X0014902Y0024152D01*
G01X0014903Y0024152D01*
G01X0014903Y0024151D01*
G01X0014907Y0024150D01*
G01X0014911Y0024149D01*
G01X0014912Y0024149D01*
G01X0014913Y0024149D01*
G01X0014917Y0024149D01*
G01X0014921Y0024149D01*
G01X0014921Y0024150D01*
G01X0014922Y0024150D01*
G01X0014926Y0024151D01*
G01X0014930Y0024153D01*
G01X0014930Y0024153D01*
G01X0014931Y0024153D01*
G01X0014936Y0024158D01*
G01X0015289Y0024510D01*
G01X0015711Y0024510D01*
G01X0016010Y0024211D01*
G01X0016010Y0024130D01*
G01X0016011Y0024126D01*
G01X0016011Y0024123D01*
G01X0016011Y0024121D01*
G01X0016012Y0024120D01*
G01X0016013Y0024117D01*
G01X0016015Y0024114D01*
G01X0016016Y0024112D01*
G01X0016016Y0024112D01*
G01X0016017Y0024111D01*
G01X0016019Y0024109D01*
G01X0016816Y0023311D01*
G01X0016817Y0023311D01*
G01X0016817Y0023310D01*
G01X0016821Y0023308D01*
G01X0016824Y0023305D01*
G01X0016825Y0023305D01*
G01X0016825Y0023305D01*
G01X0016829Y0023304D01*
G01X0016833Y0023303D01*
G01X0016834Y0023303D01*
G01X0016835Y0023302D01*
G01X0016839Y0023303D01*
G01X0016843Y0023303D01*
G01X0016844Y0023303D01*
G01X0016844Y0023303D01*
G01X0016848Y0023305D01*
G01X0016852Y0023306D01*
G01X0016853Y0023307D01*
G01X0016853Y0023307D01*
G01X0016859Y0023311D01*
G01X0016867Y0023320D01*
G01X0017133Y0023320D01*
G01X0017320Y0023133D01*
G01X0017320Y0022867D01*
G01X0017133Y0022680D01*
G01X0016867Y0022680D01*
G37*
G36*
G01X0029409Y0011608D02*
G01X0029409Y0011608D01*
G01X0029189Y0011699D01*
G01X0029022Y0011867D01*
G01X0028931Y0012086D01*
G01X0028931Y0012323D01*
G01X0029022Y0012543D01*
G01X0029189Y0012711D01*
G01X0029409Y0012802D01*
G01X0029646Y0012802D01*
G01X0029866Y0012711D01*
G01X0030034Y0012543D01*
G01X0030124Y0012323D01*
G01X0030124Y0012086D01*
G01X0030034Y0011867D01*
G01X0029866Y0011699D01*
G01X0029646Y0011608D01*
G01X0029409Y0011608D01*
G37*
G36*
G01X0012873Y0012789D02*
G01X0012873Y0012789D01*
G01X0012654Y0012880D01*
G01X0012486Y0013048D01*
G01X0012395Y0013267D01*
G01X0012395Y0013505D01*
G01X0012486Y0013724D01*
G01X0012654Y0013892D01*
G01X0012873Y0013983D01*
G01X0013111Y0013983D01*
G01X0013330Y0013892D01*
G01X0013498Y0013724D01*
G01X0013589Y0013505D01*
G01X0013589Y0013267D01*
G01X0013498Y0013048D01*
G01X0013330Y0012880D01*
G01X0013111Y0012789D01*
G01X0012873Y0012789D01*
G37*
G36*
G01X0029409Y0024994D02*
G01X0029409Y0024994D01*
G01X0029189Y0025085D01*
G01X0029022Y0025252D01*
G01X0028931Y0025472D01*
G01X0028931Y0025709D01*
G01X0029022Y0025929D01*
G01X0029189Y0026097D01*
G01X0029409Y0026187D01*
G01X0029646Y0026187D01*
G01X0029866Y0026097D01*
G01X0030034Y0025929D01*
G01X0030124Y0025709D01*
G01X0030124Y0025472D01*
G01X0030034Y0025252D01*
G01X0029866Y0025085D01*
G01X0029646Y0024994D01*
G01X0029409Y0024994D01*
G37*
G36*
G01X0012873Y0023419D02*
G01X0012873Y0023419D01*
G01X0012654Y0023510D01*
G01X0012486Y0023678D01*
G01X0012395Y0023897D01*
G01X0012395Y0024134D01*
G01X0012486Y0024354D01*
G01X0012654Y0024522D01*
G01X0012873Y0024613D01*
G01X0013111Y0024613D01*
G01X0013330Y0024522D01*
G01X0013498Y0024354D01*
G01X0013589Y0024134D01*
G01X0013589Y0023897D01*
G01X0013498Y0023678D01*
G01X0013330Y0023510D01*
G01X0013111Y0023419D01*
G01X0012873Y0023419D01*
G37*
G36*
G01X0020804Y0014350D02*
G01X0020804Y0014350D01*
G01X0020646Y0014415D01*
G01X0020525Y0014536D01*
G01X0020460Y0014694D01*
G01X0020460Y0014866D01*
G01X0020525Y0015024D01*
G01X0020646Y0015145D01*
G01X0020804Y0015210D01*
G01X0020976Y0015210D01*
G01X0021134Y0015145D01*
G01X0021255Y0015024D01*
G01X0021320Y0014866D01*
G01X0021320Y0014694D01*
G01X0021255Y0014536D01*
G01X0021134Y0014415D01*
G01X0020976Y0014350D01*
G01X0020804Y0014350D01*
G37*
G36*
G01X0019024Y0014350D02*
G01X0019024Y0014350D01*
G01X0018866Y0014415D01*
G01X0018745Y0014536D01*
G01X0018680Y0014694D01*
G01X0018680Y0014866D01*
G01X0018745Y0015024D01*
G01X0018866Y0015145D01*
G01X0019024Y0015210D01*
G01X0019196Y0015210D01*
G01X0019354Y0015145D01*
G01X0019475Y0015024D01*
G01X0019540Y0014866D01*
G01X0019540Y0014694D01*
G01X0019475Y0014536D01*
G01X0019354Y0014415D01*
G01X0019196Y0014350D01*
G01X0019024Y0014350D01*
G37*
G36*
G01X0029560Y0024060D02*
G01X0029560Y0024060D01*
G01X0029560Y0024400D01*
G01X0029831Y0024400D01*
G01X0029894Y0024390D01*
G01X0029954Y0024371D01*
G01X0030010Y0024342D01*
G01X0030061Y0024305D01*
G01X0030105Y0024261D01*
G01X0030142Y0024210D01*
G01X0030171Y0024154D01*
G01X0030190Y0024094D01*
G01X0030195Y0024060D01*
G01X0029560Y0024060D01*
G37*
G36*
G01X0028805Y0024060D02*
G01X0028805Y0024060D01*
G01X0028810Y0024094D01*
G01X0028829Y0024154D01*
G01X0028858Y0024210D01*
G01X0028895Y0024261D01*
G01X0028939Y0024305D01*
G01X0028990Y0024342D01*
G01X0029046Y0024371D01*
G01X0029106Y0024390D01*
G01X0029169Y0024400D01*
G01X0029440Y0024400D01*
G01X0029440Y0024060D01*
G01X0028805Y0024060D01*
G37*
G36*
G01X0028805Y0016060D02*
G01X0028805Y0016060D01*
G01X0028810Y0016094D01*
G01X0028829Y0016154D01*
G01X0028858Y0016210D01*
G01X0028895Y0016261D01*
G01X0028939Y0016305D01*
G01X0028990Y0016342D01*
G01X0029046Y0016371D01*
G01X0029106Y0016390D01*
G01X0029169Y0016400D01*
G01X0029440Y0016400D01*
G01X0029440Y0016060D01*
G01X0028805Y0016060D01*
G37*
G36*
G01X0029560Y0023600D02*
G01X0029560Y0023600D01*
G01X0029560Y0023940D01*
G01X0030195Y0023940D01*
G01X0030190Y0023906D01*
G01X0030171Y0023846D01*
G01X0030142Y0023790D01*
G01X0030105Y0023739D01*
G01X0030061Y0023695D01*
G01X0030010Y0023658D01*
G01X0029954Y0023629D01*
G01X0029894Y0023610D01*
G01X0029831Y0023600D01*
G01X0029560Y0023600D01*
G37*
G36*
G01X0029169Y0015600D02*
G01X0029169Y0015600D01*
G01X0029106Y0015610D01*
G01X0029046Y0015629D01*
G01X0028990Y0015658D01*
G01X0028939Y0015695D01*
G01X0028895Y0015739D01*
G01X0028858Y0015790D01*
G01X0028829Y0015846D01*
G01X0028810Y0015906D01*
G01X0028805Y0015940D01*
G01X0029440Y0015940D01*
G01X0029440Y0015600D01*
G01X0029169Y0015600D01*
G37*
G36*
G01X0029169Y0023600D02*
G01X0029169Y0023600D01*
G01X0029106Y0023610D01*
G01X0029046Y0023629D01*
G01X0028990Y0023658D01*
G01X0028939Y0023695D01*
G01X0028895Y0023739D01*
G01X0028858Y0023790D01*
G01X0028829Y0023846D01*
G01X0028810Y0023906D01*
G01X0028805Y0023940D01*
G01X0029440Y0023940D01*
G01X0029440Y0023600D01*
G01X0029169Y0023600D01*
G37*
G36*
G01X0019170Y0012280D02*
G01X0019170Y0012280D01*
G01X0019170Y0012686D01*
G01X0019220Y0012678D01*
G01X0019290Y0012656D01*
G01X0019356Y0012622D01*
G01X0019416Y0012579D01*
G01X0019469Y0012526D01*
G01X0019512Y0012466D01*
G01X0019546Y0012400D01*
G01X0019568Y0012330D01*
G01X0019576Y0012280D01*
G01X0019170Y0012280D01*
G37*
G36*
G01X0018644Y0012280D02*
G01X0018644Y0012280D01*
G01X0018652Y0012330D01*
G01X0018674Y0012400D01*
G01X0018708Y0012466D01*
G01X0018752Y0012526D01*
G01X0018804Y0012579D01*
G01X0018864Y0012622D01*
G01X0018930Y0012656D01*
G01X0019000Y0012678D01*
G01X0019050Y0012686D01*
G01X0019050Y0012280D01*
G01X0018644Y0012280D01*
G37*
G36*
G01X0019170Y0012160D02*
G01X0019170Y0012160D01*
G01X0019576Y0012160D01*
G01X0019568Y0012110D01*
G01X0019546Y0012040D01*
G01X0019512Y0011974D01*
G01X0019469Y0011914D01*
G01X0019416Y0011862D01*
G01X0019356Y0011818D01*
G01X0019290Y0011784D01*
G01X0019220Y0011762D01*
G01X0019170Y0011754D01*
G01X0019170Y0012160D01*
G37*
G36*
G01X0019000Y0011762D02*
G01X0019000Y0011762D01*
G01X0018930Y0011784D01*
G01X0018864Y0011818D01*
G01X0018804Y0011862D01*
G01X0018752Y0011914D01*
G01X0018708Y0011974D01*
G01X0018674Y0012040D01*
G01X0018652Y0012110D01*
G01X0018644Y0012160D01*
G01X0019050Y0012160D01*
G01X0019050Y0011754D01*
G01X0019000Y0011762D01*
G37*
G36*
G01X0021560Y0024060D02*
G01X0021560Y0024060D01*
G01X0021560Y0024416D01*
G01X0021598Y0024410D01*
G01X0021661Y0024389D01*
G01X0021720Y0024359D01*
G01X0021774Y0024320D01*
G01X0021820Y0024274D01*
G01X0021859Y0024220D01*
G01X0021889Y0024161D01*
G01X0021910Y0024098D01*
G01X0021916Y0024060D01*
G01X0021560Y0024060D01*
G37*
G36*
G01X0018560Y0023060D02*
G01X0018560Y0023060D01*
G01X0018560Y0023416D01*
G01X0018598Y0023410D01*
G01X0018661Y0023389D01*
G01X0018720Y0023359D01*
G01X0018774Y0023320D01*
G01X0018820Y0023274D01*
G01X0018859Y0023220D01*
G01X0018889Y0023161D01*
G01X0018910Y0023098D01*
G01X0018916Y0023060D01*
G01X0018560Y0023060D01*
G37*
G36*
G01X0021084Y0024060D02*
G01X0021084Y0024060D01*
G01X0021090Y0024098D01*
G01X0021111Y0024161D01*
G01X0021141Y0024220D01*
G01X0021180Y0024274D01*
G01X0021226Y0024320D01*
G01X0021280Y0024359D01*
G01X0021339Y0024389D01*
G01X0021402Y0024410D01*
G01X0021440Y0024416D01*
G01X0021440Y0024060D01*
G01X0021084Y0024060D01*
G37*
G36*
G01X0021560Y0023940D02*
G01X0021560Y0023940D01*
G01X0021916Y0023940D01*
G01X0021910Y0023902D01*
G01X0021889Y0023839D01*
G01X0021859Y0023780D01*
G01X0021820Y0023726D01*
G01X0021774Y0023680D01*
G01X0021720Y0023641D01*
G01X0021661Y0023611D01*
G01X0021598Y0023590D01*
G01X0021560Y0023584D01*
G01X0021560Y0023940D01*
G37*
G36*
G01X0018084Y0023060D02*
G01X0018084Y0023060D01*
G01X0018090Y0023098D01*
G01X0018111Y0023161D01*
G01X0018141Y0023220D01*
G01X0018180Y0023274D01*
G01X0018226Y0023320D01*
G01X0018280Y0023359D01*
G01X0018339Y0023389D01*
G01X0018402Y0023410D01*
G01X0018440Y0023416D01*
G01X0018440Y0023060D01*
G01X0018084Y0023060D01*
G37*
G36*
G01X0018560Y0022940D02*
G01X0018560Y0022940D01*
G01X0018916Y0022940D01*
G01X0018910Y0022902D01*
G01X0018889Y0022839D01*
G01X0018859Y0022780D01*
G01X0018820Y0022726D01*
G01X0018774Y0022680D01*
G01X0018720Y0022641D01*
G01X0018661Y0022611D01*
G01X0018598Y0022590D01*
G01X0018560Y0022584D01*
G01X0018560Y0022940D01*
G37*
G36*
G01X0018402Y0022590D02*
G01X0018402Y0022590D01*
G01X0018339Y0022611D01*
G01X0018280Y0022641D01*
G01X0018226Y0022680D01*
G01X0018180Y0022726D01*
G01X0018141Y0022780D01*
G01X0018111Y0022839D01*
G01X0018090Y0022902D01*
G01X0018084Y0022940D01*
G01X0018440Y0022940D01*
G01X0018440Y0022584D01*
G01X0018402Y0022590D01*
G37*
G36*
G01X0021402Y0023590D02*
G01X0021402Y0023590D01*
G01X0021339Y0023611D01*
G01X0021280Y0023641D01*
G01X0021226Y0023680D01*
G01X0021180Y0023726D01*
G01X0021141Y0023780D01*
G01X0021111Y0023839D01*
G01X0021090Y0023902D01*
G01X0021084Y0023940D01*
G01X0021440Y0023940D01*
G01X0021440Y0023584D01*
G01X0021402Y0023590D01*
G37*
G36*
G01X0027060Y0015060D02*
G01X0027060Y0015060D01*
G01X0027060Y0015395D01*
G01X0027094Y0015390D01*
G01X0027154Y0015371D01*
G01X0027210Y0015342D01*
G01X0027261Y0015305D01*
G01X0027305Y0015261D01*
G01X0027342Y0015210D01*
G01X0027371Y0015154D01*
G01X0027390Y0015094D01*
G01X0027395Y0015060D01*
G01X0027060Y0015060D01*
G37*
G36*
G01X0027060Y0014940D02*
G01X0027060Y0014940D01*
G01X0027395Y0014940D01*
G01X0027390Y0014906D01*
G01X0027371Y0014846D01*
G01X0027342Y0014790D01*
G01X0027305Y0014739D01*
G01X0027261Y0014695D01*
G01X0027210Y0014658D01*
G01X0027154Y0014629D01*
G01X0027094Y0014610D01*
G01X0027060Y0014605D01*
G01X0027060Y0014940D01*
G37*
G36*
G01X0026605Y0015060D02*
G01X0026605Y0015060D01*
G01X0026610Y0015094D01*
G01X0026629Y0015154D01*
G01X0026658Y0015210D01*
G01X0026695Y0015261D01*
G01X0026739Y0015305D01*
G01X0026790Y0015342D01*
G01X0026846Y0015371D01*
G01X0026906Y0015390D01*
G01X0026940Y0015395D01*
G01X0026940Y0015060D01*
G01X0026605Y0015060D01*
G37*
G36*
G01X0026906Y0014610D02*
G01X0026906Y0014610D01*
G01X0026846Y0014629D01*
G01X0026790Y0014658D01*
G01X0026739Y0014695D01*
G01X0026695Y0014739D01*
G01X0026658Y0014790D01*
G01X0026629Y0014846D01*
G01X0026610Y0014906D01*
G01X0026605Y0014940D01*
G01X0026940Y0014940D01*
G01X0026940Y0014605D01*
G01X0026906Y0014610D01*
G37*
G36*
G01X0027060Y0024060D02*
G01X0027060Y0024060D01*
G01X0027060Y0024360D01*
G01X0027149Y0024360D01*
G01X0027360Y0024149D01*
G01X0027360Y0024060D01*
G01X0027060Y0024060D01*
G37*
G36*
G01X0027060Y0026060D02*
G01X0027060Y0026060D01*
G01X0027060Y0026360D01*
G01X0027149Y0026360D01*
G01X0027360Y0026149D01*
G01X0027360Y0026060D01*
G01X0027060Y0026060D01*
G37*
G36*
G01X0026640Y0026060D02*
G01X0026640Y0026060D01*
G01X0026640Y0026149D01*
G01X0026851Y0026360D01*
G01X0026940Y0026360D01*
G01X0026940Y0026060D01*
G01X0026640Y0026060D01*
G37*
G36*
G01X0026640Y0024060D02*
G01X0026640Y0024060D01*
G01X0026640Y0024149D01*
G01X0026851Y0024360D01*
G01X0026940Y0024360D01*
G01X0026940Y0024060D01*
G01X0026640Y0024060D01*
G37*
G36*
G01X0027060Y0025640D02*
G01X0027060Y0025640D01*
G01X0027060Y0025940D01*
G01X0027360Y0025940D01*
G01X0027360Y0025851D01*
G01X0027149Y0025640D01*
G01X0027060Y0025640D01*
G37*
G36*
G01X0027060Y0023640D02*
G01X0027060Y0023640D01*
G01X0027060Y0023940D01*
G01X0027360Y0023940D01*
G01X0027360Y0023851D01*
G01X0027149Y0023640D01*
G01X0027060Y0023640D01*
G37*
G36*
G01X0026851Y0023640D02*
G01X0026851Y0023640D01*
G01X0026640Y0023851D01*
G01X0026640Y0023940D01*
G01X0026940Y0023940D01*
G01X0026940Y0023640D01*
G01X0026851Y0023640D01*
G37*
G36*
G01X0026851Y0025640D02*
G01X0026851Y0025640D01*
G01X0026640Y0025851D01*
G01X0026640Y0025940D01*
G01X0026940Y0025940D01*
G01X0026940Y0025640D01*
G01X0026851Y0025640D01*
G37*
G36*
G01X0027000Y0015000D02*
G01X0027000Y0015000D01*
G01X0027000Y0015000D01*
G01X0027000Y0015000D01*
G01X0027000Y0015000D01*
G01X0027000Y0015000D01*
G37*
G36*
G01X0027000Y0026000D02*
G01X0027000Y0026000D01*
G01X0027000Y0026000D01*
G01X0027000Y0026000D01*
G01X0027000Y0026000D01*
G01X0027000Y0026000D01*
G37*
G36*
G01X0029500Y0024000D02*
G01X0029500Y0024000D01*
G01X0029500Y0024000D01*
G01X0029500Y0024000D01*
G01X0029500Y0024000D01*
G01X0029500Y0024000D01*
G37*
G36*
G01X0021500Y0024000D02*
G01X0021500Y0024000D01*
G01X0021500Y0024000D01*
G01X0021500Y0024000D01*
G01X0021500Y0024000D01*
G01X0021500Y0024000D01*
G37*
G36*
G01X0019110Y0012220D02*
G01X0019110Y0012220D01*
G01X0019110Y0012220D01*
G01X0019110Y0012220D01*
G01X0019110Y0012220D01*
G01X0019110Y0012220D01*
G37*
G36*
G01X0018500Y0023000D02*
G01X0018500Y0023000D01*
G01X0018500Y0023000D01*
G01X0018500Y0023000D01*
G01X0018500Y0023000D01*
G01X0018500Y0023000D01*
G37*
G36*
G01X0027000Y0024000D02*
G01X0027000Y0024000D01*
G01X0027000Y0024000D01*
G01X0027000Y0024000D01*
G01X0027000Y0024000D01*
G01X0027000Y0024000D01*
G37*
%LPD*%
G54D10*
G01X0018000Y0007000D03*
G54D11*
G01X0018000Y0006000D03*
G54D12*
G01X0018000Y0009500D03*
G54D11*
G01X0018000Y0010500D03*
G54D13*
G01X0026000Y0024000D03*
G01X0027000Y0024000D03*
G01X0026000Y0026000D03*
G01X0027000Y0026000D03*
G01X0023500Y0017000D03*
G01X0024500Y0017000D03*
G54D14*
G01X0020949Y0006000D03*
G01X0022051Y0006000D03*
G54D15*
G01X0014300Y0007000D02*
G01X0013700Y0007000D01*
G01X0013700Y0008000D02*
G01X0014300Y0008000D01*
G01X0014300Y0009000D02*
G01X0013700Y0009000D01*
G54D16*
G01X0024606Y0007500D03*
G01X0026969Y0007500D03*
G01X0025787Y0009350D03*
G54D15*
G01X0028913Y0027000D02*
G01X0029513Y0027000D01*
G01X0029513Y0028000D02*
G01X0028913Y0028000D01*
G01X0028913Y0029000D02*
G01X0029513Y0029000D01*
G01X0029513Y0030000D02*
G01X0028913Y0030000D01*
G01X0013300Y0022000D02*
G01X0012700Y0022000D01*
G01X0012700Y0021000D02*
G01X0013300Y0021000D01*
G01X0013300Y0020000D02*
G01X0012700Y0020000D01*
G01X0012700Y0019000D02*
G01X0013300Y0019000D01*
G01X0013300Y0018000D02*
G01X0012700Y0018000D01*
G01X0012700Y0017000D02*
G01X0013300Y0017000D01*
G01X0013300Y0030000D02*
G01X0012700Y0030000D01*
G01X0012700Y0029000D02*
G01X0013300Y0029000D01*
G01X0013300Y0028000D02*
G01X0012700Y0028000D01*
G01X0012700Y0027000D02*
G01X0013300Y0027000D01*
G01X0013300Y0026000D02*
G01X0012700Y0026000D01*
G01X0029200Y0015000D02*
G01X0029800Y0015000D01*
G01X0029800Y0016000D02*
G01X0029200Y0016000D01*
G01X0029200Y0017000D02*
G01X0029800Y0017000D01*
G01X0029800Y0018000D02*
G01X0029200Y0018000D01*
G01X0029200Y0019000D02*
G01X0029800Y0019000D01*
G01X0029800Y0020000D02*
G01X0029200Y0020000D01*
G01X0029200Y0021000D02*
G01X0029800Y0021000D01*
G01X0029800Y0022000D02*
G01X0029200Y0022000D01*
G01X0029200Y0023000D02*
G01X0029800Y0023000D01*
G01X0029800Y0024000D02*
G01X0029200Y0024000D01*
G54D17*
G01X0027000Y0014000D03*
G01X0027000Y0015000D03*
G01X0027000Y0016000D03*
G54D18*
G01X0014500Y0024000D03*
G01X0015500Y0024000D03*
G54D19*
G01X0015500Y0014000D03*
G01X0014500Y0014000D03*
G54D20*
G01X0024000Y0012500D03*
G01X0024000Y0015500D03*
G54D21*
G01X0017000Y0026000D03*
G01X0017000Y0023000D03*
G01X0017000Y0015000D03*
G01X0017000Y0012000D03*
G54D22*
G01X0019110Y0012220D03*
G01X0019110Y0014780D03*
G01X0020890Y0012220D03*
G01X0020890Y0014780D03*
G54D23*
G01X0021500Y0017000D03*
G01X0021500Y0018000D03*
G01X0021500Y0019000D03*
G01X0021500Y0020000D03*
G01X0021500Y0021000D03*
G01X0021500Y0022000D03*
G01X0021500Y0023000D03*
G01X0021500Y0024000D03*
G01X0021500Y0025000D03*
G01X0021500Y0026000D03*
G01X0021500Y0027000D03*
G01X0021500Y0028000D03*
G01X0021500Y0029000D03*
G01X0021500Y0030000D03*
G01X0018500Y0030000D03*
G01X0018500Y0029000D03*
G01X0018500Y0028000D03*
G01X0018500Y0027000D03*
G01X0018500Y0026000D03*
G01X0018500Y0025000D03*
G01X0018500Y0024000D03*
G01X0018500Y0023000D03*
G01X0018500Y0022000D03*
G01X0018500Y0021000D03*
G01X0018500Y0020000D03*
G01X0018500Y0019000D03*
G01X0018500Y0018000D03*
G01X0018500Y0017000D03*
G54D24*
G01X0023500Y0024000D03*
G01X0023500Y0026000D03*
G54D25*
G01X0020949Y0006000D02*
G01X0018000Y0006000D01*
G01X0018000Y0006000D02*
G01X0015000Y0006000D01*
G01X0015000Y0006000D02*
G01X0014000Y0007000D01*
G01X0018500Y0024000D02*
G01X0018500Y0025000D01*
G01X0018500Y0024000D02*
G01X0020500Y0024000D01*
G01X0020500Y0024000D02*
G01X0021500Y0023000D01*
G01X0021500Y0023000D02*
G01X0029500Y0023000D01*
G01X0029500Y0023000D02*
G01X0029500Y0022852D01*
G01X0029500Y0015148D02*
G01X0029500Y0015000D01*
G01X0030190Y0022162D02*
G01X0029500Y0022852D01*
G01X0030190Y0015838D02*
G01X0029500Y0015148D01*
G01X0030190Y0015838D02*
G01X0030190Y0022162D01*
G01X0029500Y0015000D02*
G01X0027000Y0012500D01*
G01X0027000Y0012500D02*
G01X0024000Y0012500D01*
G01X0024000Y0012500D02*
G01X0022000Y0010500D01*
G01X0022000Y0010500D02*
G01X0018110Y0010500D01*
G01X0018110Y0010500D02*
G01X0018000Y0010500D01*
G01X0018000Y0010500D02*
G01X0017213Y0010500D01*
G01X0017213Y0010500D02*
G01X0015713Y0009000D01*
G01X0015713Y0009000D02*
G01X0014000Y0009000D01*
G01X0027000Y0014000D02*
G01X0028000Y0015000D01*
G01X0028000Y0015000D02*
G01X0029500Y0015000D01*
G01X0017000Y0015000D02*
G01X0017000Y0012495D01*
G01X0017000Y0012495D02*
G01X0017350Y0012145D01*
G01X0017350Y0011260D02*
G01X0018110Y0010500D01*
G01X0017350Y0011260D02*
G01X0017350Y0012145D01*
G01X0017000Y0008000D02*
G01X0014000Y0008000D01*
G01X0017000Y0008000D02*
G01X0018000Y0007000D01*
G01X0013310Y0008838D02*
G01X0013310Y0009162D01*
G01X0013310Y0008838D02*
G01X0013538Y0008610D01*
G01X0017170Y0009500D02*
G01X0018000Y0009500D01*
G01X0016280Y0008610D02*
G01X0013538Y0008610D01*
G01X0016280Y0008610D02*
G01X0017170Y0009500D01*
G01X0014500Y0010352D02*
G01X0013310Y0009162D01*
G01X0014500Y0010352D02*
G01X0014500Y0014000D01*
G01X0018000Y0009500D02*
G01X0018110Y0009500D01*
G01X0018110Y0009500D02*
G01X0025638Y0009500D01*
G01X0025638Y0009500D02*
G01X0025787Y0009350D01*
G01X0025787Y0009350D02*
G01X0026969Y0008169D01*
G01X0026969Y0008169D02*
G01X0026969Y0007500D01*
G01X0018000Y0007000D02*
G01X0018000Y0009390D01*
G01X0018000Y0009390D02*
G01X0018110Y0009500D01*
G01X0022500Y0024000D02*
G01X0021500Y0025000D01*
G01X0022500Y0024000D02*
G01X0023500Y0024000D01*
G01X0023500Y0024000D02*
G01X0026000Y0024000D01*
G01X0023500Y0026000D02*
G01X0021500Y0026000D01*
G01X0023500Y0026000D02*
G01X0026000Y0026000D01*
G01X0028000Y0016000D02*
G01X0029500Y0016000D01*
G01X0028000Y0016000D02*
G01X0027000Y0015000D01*
G01X0020239Y0012220D02*
G01X0019110Y0012220D01*
G01X0020239Y0012220D02*
G01X0020699Y0011760D01*
G01X0024850Y0012850D02*
G01X0027000Y0015000D01*
G01X0024850Y0012850D02*
G01X0023855Y0012850D01*
G01X0022765Y0011760D02*
G01X0020699Y0011760D01*
G01X0022765Y0011760D02*
G01X0023855Y0012850D01*
G01X0017145Y0022650D02*
G01X0016855Y0022650D01*
G01X0015505Y0024000D02*
G01X0015500Y0024000D01*
G01X0015505Y0024000D02*
G01X0016855Y0022650D01*
G01X0017495Y0023000D02*
G01X0018500Y0023000D01*
G01X0017495Y0023000D02*
G01X0017145Y0022650D01*
G01X0020670Y0024000D02*
G01X0021500Y0024000D01*
G01X0020670Y0024000D02*
G01X0019260Y0025410D01*
G01X0018500Y0023420D02*
G01X0018500Y0023000D01*
G01X0018500Y0023420D02*
G01X0018090Y0023830D01*
G01X0027000Y0024000D02*
G01X0027000Y0026000D01*
G01X0022330Y0024000D02*
G01X0021500Y0024000D01*
G01X0022330Y0024000D02*
G01X0022745Y0023585D01*
G01X0022745Y0023585D02*
G01X0026735Y0023585D01*
G01X0026735Y0023585D02*
G01X0027165Y0024016D01*
G01X0027000Y0024000D02*
G01X0029500Y0024000D01*
G01X0018330Y0025410D02*
G01X0018090Y0025170D01*
G01X0021090Y0017830D02*
G01X0021330Y0017590D01*
G01X0018090Y0023830D02*
G01X0018090Y0025170D01*
G01X0024355Y0016650D02*
G01X0028850Y0016650D01*
G01X0019260Y0025410D02*
G01X0018330Y0025410D01*
G01X0029085Y0023585D02*
G01X0029500Y0024000D01*
G01X0029085Y0023585D02*
G01X0021085Y0023585D01*
G01X0021085Y0023585D02*
G01X0020670Y0024000D01*
G01X0021090Y0020830D02*
G01X0021090Y0017830D01*
G01X0021330Y0017590D02*
G01X0023415Y0017590D01*
G01X0021090Y0020830D02*
G01X0018500Y0023420D01*
G01X0023415Y0017590D02*
G01X0024355Y0016650D01*
G01X0028850Y0016650D02*
G01X0029500Y0016000D01*
G01X0023500Y0017000D02*
G01X0021500Y0017000D01*
G01X0023500Y0017000D02*
G01X0024000Y0016500D01*
G01X0024000Y0016500D02*
G01X0024000Y0015500D01*
G01X0024000Y0015500D02*
G01X0024500Y0016000D01*
G01X0024500Y0016000D02*
G01X0027000Y0016000D01*
G01X0024000Y0015500D02*
G01X0020890Y0012390D01*
G01X0020890Y0012390D02*
G01X0020890Y0012220D01*
G01X0017000Y0026000D02*
G01X0013000Y0026000D01*
G01X0017000Y0026000D02*
G01X0018500Y0026000D01*
G01X0015674Y0024420D02*
G01X0015326Y0024420D01*
G01X0015674Y0024420D02*
G01X0015920Y0024174D01*
G01X0014906Y0024000D02*
G01X0014500Y0024000D01*
G01X0015920Y0024080D02*
G01X0015920Y0024174D01*
G01X0015326Y0024420D02*
G01X0014906Y0024000D01*
G01X0015920Y0024080D02*
G01X0017000Y0023000D01*
G01X0024500Y0017000D02*
G01X0029500Y0017000D01*
G01X0018500Y0021000D02*
G01X0013000Y0021000D01*
G01X0013000Y0020000D02*
G01X0018500Y0020000D01*
G01X0018500Y0019000D02*
G01X0013000Y0019000D01*
G01X0013000Y0018000D02*
G01X0018500Y0018000D01*
G01X0018500Y0017000D02*
G01X0013000Y0017000D01*
G01X0021500Y0018000D02*
G01X0029500Y0018000D01*
G01X0029500Y0019000D02*
G01X0021500Y0019000D01*
G01X0021500Y0020000D02*
G01X0029500Y0020000D01*
G01X0029500Y0021000D02*
G01X0021500Y0021000D01*
G01X0021500Y0022000D02*
G01X0029500Y0022000D01*
G01X0029213Y0027000D02*
G01X0021500Y0027000D01*
G01X0021500Y0028000D02*
G01X0029213Y0028000D01*
G01X0029213Y0029000D02*
G01X0021500Y0029000D01*
G01X0021500Y0030000D02*
G01X0029213Y0030000D01*
G01X0018500Y0030000D02*
G01X0013000Y0030000D01*
G01X0013000Y0029000D02*
G01X0018500Y0029000D01*
G01X0018500Y0022000D02*
G01X0013000Y0022000D01*
G01X0013000Y0028000D02*
G01X0018500Y0028000D01*
G01X0018500Y0027000D02*
G01X0013000Y0027000D01*
G01X0015500Y0014000D02*
G01X0015500Y0013500D01*
G01X0015500Y0013500D02*
G01X0017000Y0012000D01*
G01X0023106Y0006000D02*
G01X0024606Y0007500D01*
G01X0023106Y0006000D02*
G01X0022051Y0006000D01*
M02*
