G04 EAGLE Gerber X2 export*
%TF.Part,Single*%
%TF.FileFunction,Soldermask,Bot*%
%TF.FilePolarity,Positive*%
%TF.GenerationSoftware,Autodesk,EAGLE,9.6.2*%
%TF.CreationDate,2023-04-03T07:06:47Z*%
G75*
%MOIN*%
%FSLAX36Y36*%
%LPD*%
%INBottom Solder Mask*%
%AMOC8*
5,1,8,0,0,1.08239X$1,22.5*%
G01*
%ADD10C,0.047370*%
%ADD11P,0.076850X8X112.500000*%
%ADD12C,0.071000*%
%ADD13P,0.076850X8X292.500000*%
%ADD14P,0.064943X8X22.500000*%
%ADD15R,0.047370X0.078866*%
%ADD16C,0.068000*%
%ADD17C,0.178000*%
%ADD18C,0.068000*%
%ADD19P,0.080097X8X22.500000*%
%ADD20P,0.080097X8X202.500000*%
%ADD21P,0.064943X8X112.500000*%
%ADD22P,0.064943X8X292.500000*%
%ADD23C,0.082000*%
%ADD24C,0.072000*%
%ADD25C,0.073000*%


D10*
X1299213Y2401575D03*
X1299213Y1338583D03*
X2952756Y1220472D03*
X2952756Y2559055D03*
D11*
X1800000Y700000D03*
D12*
X1800000Y600000D03*
D13*
X1800000Y950000D03*
D12*
X1800000Y1050000D03*
D14*
X2600000Y2400000D03*
X2700000Y2400000D03*
X2600000Y2600000D03*
X2700000Y2600000D03*
X2350000Y1700000D03*
X2450000Y1700000D03*
D15*
X2094882Y600000D03*
X2205118Y600000D03*
D16*
X1430000Y700000D02*
X1370000Y700000D01*
X1370000Y800000D02*
X1430000Y800000D01*
X1430000Y900000D02*
X1370000Y900000D01*
D17*
X2460630Y750000D03*
X2696850Y750000D03*
X2578740Y935039D03*
D16*
X2891260Y2700000D02*
X2951260Y2700000D01*
X2951260Y2800000D02*
X2891260Y2800000D01*
X2891260Y2900000D02*
X2951260Y2900000D01*
X2951260Y3000000D02*
X2891260Y3000000D01*
X1330000Y2200000D02*
X1270000Y2200000D01*
X1270000Y2100000D02*
X1330000Y2100000D01*
X1330000Y2000000D02*
X1270000Y2000000D01*
X1270000Y1900000D02*
X1330000Y1900000D01*
X1330000Y1800000D02*
X1270000Y1800000D01*
X1270000Y1700000D02*
X1330000Y1700000D01*
X1330000Y3000000D02*
X1270000Y3000000D01*
X1270000Y2900000D02*
X1330000Y2900000D01*
X1330000Y2800000D02*
X1270000Y2800000D01*
X1270000Y2700000D02*
X1330000Y2700000D01*
X1330000Y2600000D02*
X1270000Y2600000D01*
X2920000Y1500000D02*
X2980000Y1500000D01*
X2980000Y1600000D02*
X2920000Y1600000D01*
X2920000Y1700000D02*
X2980000Y1700000D01*
X2980000Y1800000D02*
X2920000Y1800000D01*
X2920000Y1900000D02*
X2980000Y1900000D01*
X2980000Y2000000D02*
X2920000Y2000000D01*
X2920000Y2100000D02*
X2980000Y2100000D01*
X2980000Y2200000D02*
X2920000Y2200000D01*
X2920000Y2300000D02*
X2980000Y2300000D01*
X2980000Y2400000D02*
X2920000Y2400000D01*
D18*
X2700000Y1400000D03*
X2700000Y1500000D03*
X2700000Y1600000D03*
D19*
X1450000Y2400000D03*
X1550000Y2400000D03*
D20*
X1550000Y1400000D03*
X1450000Y1400000D03*
D21*
X2400000Y1250000D03*
X2400000Y1550000D03*
D22*
X1700000Y2600000D03*
X1700000Y2300000D03*
X1700000Y1500000D03*
X1700000Y1200000D03*
D23*
X1911000Y1222000D03*
X1911000Y1478000D03*
X2089000Y1222000D03*
X2089000Y1478000D03*
D24*
X2150000Y1700000D03*
X2150000Y1800000D03*
X2150000Y1900000D03*
X2150000Y2000000D03*
X2150000Y2100000D03*
X2150000Y2200000D03*
X2150000Y2300000D03*
X2150000Y2400000D03*
X2150000Y2500000D03*
X2150000Y2600000D03*
X2150000Y2700000D03*
X2150000Y2800000D03*
X2150000Y2900000D03*
X2150000Y3000000D03*
X1850000Y3000000D03*
X1850000Y2900000D03*
X1850000Y2800000D03*
X1850000Y2700000D03*
X1850000Y2600000D03*
X1850000Y2500000D03*
X1850000Y2400000D03*
X1850000Y2300000D03*
X1850000Y2200000D03*
X1850000Y2100000D03*
X1850000Y2000000D03*
X1850000Y1900000D03*
X1850000Y1800000D03*
X1850000Y1700000D03*
D25*
X2350000Y2400000D03*
X2350000Y2600000D03*
M02*
