M48
;GenerationSoftware,Autodesk,EAGLE,9.6.2*%
;CreationDate,2023-04-03T07:06:47Z*%
FMAT,2
ICI,OFF
INCH,TZ,00.0000
T5C0.0276
T4C0.0320
T3C0.0394
T2C0.0400
T1C0.1180
%
G90
M72
T1
X25787Y9350
X24606Y7500
X26969Y7500
T2
X29500Y18000
X29500Y19000
X29500Y20000
X29500Y21000
X29500Y22000
X29500Y23000
X29500Y24000
X27000Y14000
X20890Y14780
X20890Y12220
X27000Y15000
X19110Y14780
X19110Y12220
X14000Y7000
X14000Y8000
X14000Y9000
X29213Y29000
X29213Y27000
X29213Y28000
X27000Y16000
X29213Y30000
X13000Y22000
X13000Y21000
X13000Y20000
X13000Y19000
X13000Y18000
X13000Y17000
X13000Y30000
X13000Y29000
X13000Y28000
X13000Y27000
X13000Y26000
X29500Y15000
X29500Y16000
X29500Y17000
T3
X12992Y13386
X29528Y12205
X29528Y25591
X12992Y24016
T4
X18000Y7000
X18000Y6000
X18000Y9500
X18000Y10500
X26000Y24000
X27000Y26000
X14500Y24000
X15500Y24000
X15500Y14000
X14500Y14000
X24000Y12500
X24000Y15500
X17000Y26000
X17000Y23000
X17000Y15000
X17000Y12000
X24500Y17000
X23500Y17000
X26000Y26000
X27000Y24000
X21500Y17000
X21500Y18000
X21500Y19000
X21500Y20000
X21500Y21000
X21500Y22000
X21500Y23000
X21500Y24000
X21500Y25000
X21500Y26000
X21500Y27000
X21500Y28000
X21500Y29000
X21500Y30000
X18500Y30000
X18500Y29000
X18500Y28000
X18500Y27000
X18500Y26000
X18500Y25000
X18500Y24000
X18500Y23000
X18500Y22000
X18500Y21000
X18500Y20000
X18500Y19000
X18500Y18000
X18500Y17000
T5
X23500Y24000
X23500Y26000
M30