G04 EAGLE Gerber X2 export*
%TF.Part,Single*%
%TF.FileFunction,Legend,Bot,1*%
%TF.FilePolarity,Positive*%
%TF.GenerationSoftware,Autodesk,EAGLE,9.6.2*%
%TF.CreationDate,2023-04-03T07:06:47Z*%
G75*
%MOIN*%
%FSLAX36Y36*%
%LPD*%
%INBottom Silkscreen*%
%AMOC8*
5,1,8,0,0,1.08239X$1,22.5*%
G01*
%ADD10C,0.006000*%
%ADD11C,0.003000*%


D10*
X2121654Y568504D02*
X2178346Y568504D01*
X2178346Y631496D02*
X2121654Y631496D01*
D11*
X2140141Y547319D02*
X2140141Y510949D01*
X2140141Y547319D02*
X2123977Y547319D01*
X2123977Y531154D02*
X2140141Y531154D01*
X2110682Y539237D02*
X2100579Y547319D01*
X2100579Y510949D01*
X2110682Y510949D02*
X2090476Y510949D01*
X2443098Y700862D02*
X2453201Y692780D01*
X2443098Y700862D02*
X2443098Y664492D01*
X2453201Y664492D02*
X2432995Y664492D01*
X2397562Y691770D02*
X2397565Y691993D01*
X2397573Y692216D01*
X2397587Y692439D01*
X2397606Y692661D01*
X2397630Y692883D01*
X2397660Y693104D01*
X2397696Y693325D01*
X2397737Y693544D01*
X2397783Y693762D01*
X2397835Y693979D01*
X2397891Y694195D01*
X2397954Y694410D01*
X2398021Y694622D01*
X2398094Y694833D01*
X2398171Y695042D01*
X2398254Y695250D01*
X2398342Y695455D01*
X2398435Y695658D01*
X2398533Y695858D01*
X2398636Y696056D01*
X2398743Y696252D01*
X2398856Y696445D01*
X2398973Y696635D01*
X2399094Y696822D01*
X2399221Y697006D01*
X2399351Y697187D01*
X2399487Y697364D01*
X2399626Y697538D01*
X2399770Y697709D01*
X2399917Y697876D01*
X2400069Y698040D01*
X2400225Y698200D01*
X2400385Y698356D01*
X2400548Y698507D01*
X2400716Y698655D01*
X2400886Y698799D01*
X2401061Y698938D01*
X2401238Y699074D01*
X2401419Y699204D01*
X2401603Y699331D01*
X2401790Y699452D01*
X2401980Y699569D01*
X2402173Y699682D01*
X2402369Y699789D01*
X2402567Y699892D01*
X2402767Y699990D01*
X2402970Y700083D01*
X2403175Y700171D01*
X2403382Y700254D01*
X2403592Y700331D01*
X2403803Y700404D01*
X2404015Y700471D01*
X2404230Y700534D01*
X2404445Y700590D01*
X2404663Y700642D01*
X2404881Y700688D01*
X2405100Y700729D01*
X2405321Y700765D01*
X2405542Y700795D01*
X2405764Y700819D01*
X2405986Y700838D01*
X2406209Y700852D01*
X2406432Y700860D01*
X2406655Y700863D01*
X2406655Y700862D02*
X2406937Y700859D01*
X2407220Y700848D01*
X2407502Y700831D01*
X2407783Y700807D01*
X2408064Y700777D01*
X2408344Y700739D01*
X2408623Y700695D01*
X2408901Y700644D01*
X2409177Y700586D01*
X2409452Y700522D01*
X2409726Y700451D01*
X2409998Y700374D01*
X2410267Y700289D01*
X2410535Y700199D01*
X2410800Y700102D01*
X2411063Y699998D01*
X2411323Y699889D01*
X2411581Y699773D01*
X2411836Y699650D01*
X2412087Y699522D01*
X2412336Y699388D01*
X2412581Y699247D01*
X2412823Y699101D01*
X2413061Y698949D01*
X2413295Y698791D01*
X2413525Y698628D01*
X2413752Y698459D01*
X2413974Y698285D01*
X2414192Y698105D01*
X2414406Y697920D01*
X2414615Y697730D01*
X2414819Y697535D01*
X2415019Y697335D01*
X2415214Y697131D01*
X2415403Y696921D01*
X2415588Y696707D01*
X2415767Y696489D01*
X2415942Y696267D01*
X2416110Y696040D01*
X2416273Y695809D01*
X2416431Y695575D01*
X2416582Y695337D01*
X2416728Y695095D01*
X2416869Y694849D01*
X2417003Y694601D01*
X2417131Y694349D01*
X2417253Y694094D01*
X2417368Y693836D01*
X2417478Y693576D01*
X2417581Y693313D01*
X2417678Y693047D01*
X2417768Y692780D01*
X2400593Y684698D02*
X2400422Y684865D01*
X2400254Y685037D01*
X2400091Y685212D01*
X2399932Y685392D01*
X2399778Y685575D01*
X2399628Y685762D01*
X2399483Y685953D01*
X2399343Y686147D01*
X2399207Y686345D01*
X2399077Y686546D01*
X2398951Y686750D01*
X2398830Y686957D01*
X2398715Y687167D01*
X2398604Y687380D01*
X2398499Y687595D01*
X2398400Y687813D01*
X2398305Y688033D01*
X2398216Y688256D01*
X2398133Y688480D01*
X2398055Y688707D01*
X2397982Y688936D01*
X2397916Y689166D01*
X2397855Y689397D01*
X2397799Y689631D01*
X2397750Y689865D01*
X2397706Y690101D01*
X2397668Y690337D01*
X2397635Y690575D01*
X2397609Y690813D01*
X2397588Y691052D01*
X2397574Y691291D01*
X2397565Y691530D01*
X2397562Y691770D01*
X2400593Y684698D02*
X2417768Y664492D01*
X2397562Y664492D01*
X2382334Y682677D02*
X2382325Y683392D01*
X2382300Y684108D01*
X2382257Y684822D01*
X2382197Y685535D01*
X2382121Y686246D01*
X2382027Y686955D01*
X2381916Y687662D01*
X2381789Y688366D01*
X2381645Y689067D01*
X2381484Y689764D01*
X2381306Y690458D01*
X2381113Y691146D01*
X2380902Y691830D01*
X2380676Y692509D01*
X2380433Y693182D01*
X2380174Y693849D01*
X2379899Y694510D01*
X2379609Y695164D01*
X2379303Y695811D01*
X2379304Y695811D02*
X2379243Y695982D01*
X2379178Y696152D01*
X2379108Y696320D01*
X2379035Y696486D01*
X2378958Y696651D01*
X2378876Y696813D01*
X2378791Y696974D01*
X2378702Y697132D01*
X2378609Y697289D01*
X2378512Y697442D01*
X2378411Y697594D01*
X2378307Y697743D01*
X2378199Y697889D01*
X2378088Y698033D01*
X2377973Y698174D01*
X2377855Y698313D01*
X2377734Y698448D01*
X2377609Y698580D01*
X2377481Y698709D01*
X2377350Y698835D01*
X2377216Y698958D01*
X2377079Y699078D01*
X2376939Y699194D01*
X2376796Y699307D01*
X2376651Y699416D01*
X2376503Y699522D01*
X2376353Y699624D01*
X2376200Y699722D01*
X2376044Y699817D01*
X2375887Y699908D01*
X2375727Y699995D01*
X2375565Y700078D01*
X2375402Y700157D01*
X2375236Y700232D01*
X2375069Y700303D01*
X2374900Y700370D01*
X2374729Y700433D01*
X2374557Y700491D01*
X2374383Y700546D01*
X2374209Y700596D01*
X2374033Y700642D01*
X2373856Y700684D01*
X2373678Y700721D01*
X2373499Y700754D01*
X2373319Y700783D01*
X2373139Y700807D01*
X2372958Y700827D01*
X2372777Y700842D01*
X2372596Y700853D01*
X2372414Y700860D01*
X2372232Y700862D01*
X2372050Y700860D01*
X2371868Y700853D01*
X2371687Y700842D01*
X2371506Y700827D01*
X2371325Y700807D01*
X2371145Y700783D01*
X2370965Y700754D01*
X2370786Y700721D01*
X2370608Y700684D01*
X2370431Y700642D01*
X2370256Y700596D01*
X2370081Y700546D01*
X2369907Y700491D01*
X2369735Y700433D01*
X2369564Y700370D01*
X2369395Y700303D01*
X2369228Y700232D01*
X2369062Y700157D01*
X2368899Y700078D01*
X2368737Y699995D01*
X2368577Y699908D01*
X2368420Y699817D01*
X2368264Y699722D01*
X2368111Y699624D01*
X2367961Y699522D01*
X2367813Y699416D01*
X2367668Y699307D01*
X2367525Y699194D01*
X2367385Y699078D01*
X2367248Y698958D01*
X2367114Y698836D01*
X2366983Y698709D01*
X2366855Y698580D01*
X2366730Y698448D01*
X2366609Y698313D01*
X2366491Y698174D01*
X2366376Y698033D01*
X2366265Y697890D01*
X2366157Y697743D01*
X2366053Y697594D01*
X2365952Y697443D01*
X2365855Y697289D01*
X2365762Y697132D01*
X2365673Y696974D01*
X2365588Y696813D01*
X2365507Y696651D01*
X2365429Y696486D01*
X2365356Y696320D01*
X2365286Y696152D01*
X2365221Y695982D01*
X2365160Y695811D01*
X2364854Y695164D01*
X2364564Y694510D01*
X2364289Y693849D01*
X2364030Y693182D01*
X2363788Y692509D01*
X2363561Y691830D01*
X2363351Y691146D01*
X2363157Y690458D01*
X2362979Y689764D01*
X2362818Y689067D01*
X2362674Y688366D01*
X2362547Y687662D01*
X2362436Y686955D01*
X2362342Y686246D01*
X2362266Y685535D01*
X2362206Y684822D01*
X2362163Y684108D01*
X2362138Y683392D01*
X2362129Y682677D01*
X2382335Y682677D02*
X2382326Y681962D01*
X2382301Y681246D01*
X2382258Y680532D01*
X2382198Y679819D01*
X2382122Y679108D01*
X2382028Y678398D01*
X2381917Y677692D01*
X2381790Y676987D01*
X2381646Y676287D01*
X2381485Y675589D01*
X2381307Y674896D01*
X2381114Y674208D01*
X2380903Y673524D01*
X2380677Y672845D01*
X2380434Y672172D01*
X2380175Y671505D01*
X2379900Y670844D01*
X2379610Y670190D01*
X2379304Y669543D01*
X2379243Y669372D01*
X2379178Y669202D01*
X2379108Y669034D01*
X2379035Y668868D01*
X2378957Y668703D01*
X2378876Y668541D01*
X2378791Y668380D01*
X2378702Y668222D01*
X2378609Y668065D01*
X2378512Y667911D01*
X2378411Y667760D01*
X2378307Y667611D01*
X2378199Y667464D01*
X2378088Y667321D01*
X2377973Y667180D01*
X2377855Y667041D01*
X2377734Y666906D01*
X2377609Y666774D01*
X2377481Y666645D01*
X2377350Y666518D01*
X2377216Y666396D01*
X2377079Y666276D01*
X2376939Y666160D01*
X2376796Y666047D01*
X2376651Y665938D01*
X2376503Y665832D01*
X2376353Y665730D01*
X2376200Y665632D01*
X2376044Y665537D01*
X2375887Y665446D01*
X2375727Y665359D01*
X2375565Y665276D01*
X2375402Y665197D01*
X2375236Y665122D01*
X2375069Y665051D01*
X2374900Y664984D01*
X2374729Y664921D01*
X2374557Y664863D01*
X2374383Y664808D01*
X2374208Y664758D01*
X2374033Y664712D01*
X2373856Y664670D01*
X2373678Y664633D01*
X2373499Y664600D01*
X2373319Y664571D01*
X2373139Y664547D01*
X2372958Y664527D01*
X2372777Y664512D01*
X2372596Y664501D01*
X2372414Y664494D01*
X2372232Y664492D01*
X2365160Y669543D02*
X2364854Y670190D01*
X2364564Y670844D01*
X2364289Y671505D01*
X2364030Y672172D01*
X2363788Y672845D01*
X2363561Y673524D01*
X2363351Y674208D01*
X2363157Y674896D01*
X2362979Y675589D01*
X2362818Y676287D01*
X2362674Y676987D01*
X2362547Y677692D01*
X2362436Y678398D01*
X2362342Y679108D01*
X2362266Y679819D01*
X2362206Y680532D01*
X2362163Y681246D01*
X2362138Y681962D01*
X2362129Y682677D01*
X2365160Y669543D02*
X2365221Y669372D01*
X2365286Y669202D01*
X2365356Y669034D01*
X2365429Y668868D01*
X2365507Y668703D01*
X2365588Y668541D01*
X2365673Y668380D01*
X2365762Y668222D01*
X2365855Y668065D01*
X2365952Y667911D01*
X2366053Y667760D01*
X2366157Y667611D01*
X2366265Y667464D01*
X2366376Y667321D01*
X2366491Y667180D01*
X2366609Y667041D01*
X2366730Y666906D01*
X2366855Y666774D01*
X2366983Y666644D01*
X2367114Y666518D01*
X2367248Y666396D01*
X2367385Y666276D01*
X2367525Y666160D01*
X2367668Y666047D01*
X2367813Y665938D01*
X2367961Y665832D01*
X2368112Y665730D01*
X2368264Y665632D01*
X2368420Y665537D01*
X2368577Y665446D01*
X2368737Y665359D01*
X2368899Y665276D01*
X2369062Y665197D01*
X2369228Y665122D01*
X2369395Y665051D01*
X2369565Y664984D01*
X2369735Y664921D01*
X2369907Y664863D01*
X2370081Y664808D01*
X2370256Y664758D01*
X2370431Y664712D01*
X2370608Y664670D01*
X2370786Y664633D01*
X2370965Y664600D01*
X2371145Y664571D01*
X2371325Y664547D01*
X2371506Y664527D01*
X2371687Y664512D01*
X2371868Y664501D01*
X2372050Y664494D01*
X2372232Y664492D01*
X2380314Y672574D02*
X2364150Y692780D01*
X2346902Y684698D02*
X2334778Y684698D01*
X2334778Y684697D02*
X2334580Y684695D01*
X2334381Y684687D01*
X2334183Y684675D01*
X2333986Y684658D01*
X2333789Y684636D01*
X2333592Y684610D01*
X2333396Y684578D01*
X2333201Y684542D01*
X2333007Y684501D01*
X2332814Y684455D01*
X2332622Y684404D01*
X2332432Y684349D01*
X2332243Y684289D01*
X2332055Y684225D01*
X2331869Y684155D01*
X2331685Y684082D01*
X2331503Y684004D01*
X2331323Y683921D01*
X2331144Y683834D01*
X2330968Y683743D01*
X2330794Y683647D01*
X2330623Y683547D01*
X2330454Y683443D01*
X2330288Y683335D01*
X2330124Y683223D01*
X2329964Y683107D01*
X2329806Y682986D01*
X2329651Y682863D01*
X2329499Y682735D01*
X2329351Y682603D01*
X2329205Y682468D01*
X2329063Y682330D01*
X2328925Y682188D01*
X2328790Y682043D01*
X2328658Y681894D01*
X2328531Y681742D01*
X2328407Y681587D01*
X2328287Y681430D01*
X2328170Y681269D01*
X2328058Y681105D01*
X2327950Y680939D01*
X2327846Y680770D01*
X2327746Y680599D01*
X2327650Y680425D01*
X2327559Y680249D01*
X2327472Y680071D01*
X2327389Y679890D01*
X2327311Y679708D01*
X2327238Y679524D01*
X2327168Y679338D01*
X2327104Y679150D01*
X2327044Y678961D01*
X2326989Y678771D01*
X2326938Y678579D01*
X2326892Y678386D01*
X2326851Y678192D01*
X2326815Y677997D01*
X2326783Y677801D01*
X2326757Y677604D01*
X2326735Y677407D01*
X2326718Y677210D01*
X2326706Y677012D01*
X2326698Y676813D01*
X2326696Y676615D01*
X2326696Y674595D01*
X2326699Y674349D01*
X2326708Y674103D01*
X2326723Y673858D01*
X2326744Y673612D01*
X2326771Y673368D01*
X2326804Y673124D01*
X2326842Y672881D01*
X2326887Y672639D01*
X2326938Y672398D01*
X2326994Y672159D01*
X2327056Y671921D01*
X2327124Y671684D01*
X2327198Y671450D01*
X2327278Y671217D01*
X2327363Y670986D01*
X2327453Y670757D01*
X2327550Y670531D01*
X2327651Y670307D01*
X2327758Y670085D01*
X2327871Y669866D01*
X2327989Y669650D01*
X2328112Y669437D01*
X2328240Y669227D01*
X2328373Y669020D01*
X2328511Y668817D01*
X2328655Y668617D01*
X2328803Y668420D01*
X2328955Y668227D01*
X2329113Y668038D01*
X2329275Y667853D01*
X2329441Y667672D01*
X2329612Y667495D01*
X2329787Y667322D01*
X2329966Y667153D01*
X2330149Y666989D01*
X2330336Y666829D01*
X2330527Y666674D01*
X2330722Y666524D01*
X2330920Y666378D01*
X2331122Y666238D01*
X2331328Y666102D01*
X2331536Y665971D01*
X2331748Y665846D01*
X2331962Y665725D01*
X2332179Y665610D01*
X2332400Y665500D01*
X2332622Y665396D01*
X2332848Y665297D01*
X2333075Y665203D01*
X2333305Y665115D01*
X2333537Y665033D01*
X2333771Y664957D01*
X2334006Y664886D01*
X2334244Y664821D01*
X2334482Y664761D01*
X2334723Y664708D01*
X2334964Y664660D01*
X2335206Y664618D01*
X2335450Y664582D01*
X2335694Y664553D01*
X2335939Y664529D01*
X2336184Y664511D01*
X2336430Y664499D01*
X2336676Y664493D01*
X2336922Y664493D01*
X2337168Y664499D01*
X2337414Y664511D01*
X2337659Y664529D01*
X2337904Y664553D01*
X2338148Y664582D01*
X2338392Y664618D01*
X2338634Y664660D01*
X2338875Y664708D01*
X2339116Y664761D01*
X2339354Y664821D01*
X2339592Y664886D01*
X2339827Y664957D01*
X2340061Y665033D01*
X2340293Y665115D01*
X2340523Y665203D01*
X2340750Y665297D01*
X2340976Y665396D01*
X2341198Y665500D01*
X2341419Y665610D01*
X2341636Y665725D01*
X2341851Y665846D01*
X2342062Y665971D01*
X2342270Y666102D01*
X2342476Y666238D01*
X2342678Y666378D01*
X2342876Y666524D01*
X2343071Y666674D01*
X2343262Y666829D01*
X2343449Y666989D01*
X2343632Y667153D01*
X2343811Y667322D01*
X2343986Y667495D01*
X2344157Y667672D01*
X2344323Y667853D01*
X2344485Y668038D01*
X2344643Y668227D01*
X2344795Y668420D01*
X2344943Y668617D01*
X2345087Y668817D01*
X2345225Y669020D01*
X2345358Y669227D01*
X2345486Y669437D01*
X2345609Y669650D01*
X2345727Y669866D01*
X2345840Y670085D01*
X2345947Y670307D01*
X2346048Y670531D01*
X2346145Y670757D01*
X2346235Y670986D01*
X2346320Y671217D01*
X2346400Y671450D01*
X2346474Y671684D01*
X2346542Y671921D01*
X2346604Y672159D01*
X2346660Y672398D01*
X2346711Y672639D01*
X2346756Y672881D01*
X2346794Y673124D01*
X2346827Y673368D01*
X2346854Y673612D01*
X2346875Y673858D01*
X2346890Y674103D01*
X2346899Y674349D01*
X2346902Y674595D01*
X2346902Y684698D01*
X2346901Y684698D02*
X2346896Y685089D01*
X2346882Y685479D01*
X2346859Y685869D01*
X2346826Y686258D01*
X2346783Y686646D01*
X2346731Y687034D01*
X2346670Y687419D01*
X2346600Y687804D01*
X2346520Y688186D01*
X2346431Y688566D01*
X2346333Y688944D01*
X2346226Y689320D01*
X2346110Y689693D01*
X2345985Y690063D01*
X2345851Y690430D01*
X2345708Y690793D01*
X2345556Y691153D01*
X2345396Y691510D01*
X2345227Y691862D01*
X2345050Y692210D01*
X2344864Y692553D01*
X2344670Y692892D01*
X2344468Y693227D01*
X2344258Y693556D01*
X2344040Y693880D01*
X2343814Y694199D01*
X2343581Y694512D01*
X2343340Y694820D01*
X2343091Y695121D01*
X2342836Y695417D01*
X2342573Y695706D01*
X2342304Y695989D01*
X2342028Y696265D01*
X2341745Y696534D01*
X2341456Y696797D01*
X2341160Y697052D01*
X2340859Y697301D01*
X2340551Y697542D01*
X2340238Y697775D01*
X2339919Y698001D01*
X2339595Y698219D01*
X2339266Y698429D01*
X2338931Y698631D01*
X2338592Y698825D01*
X2338249Y699011D01*
X2337901Y699188D01*
X2337549Y699357D01*
X2337192Y699517D01*
X2336832Y699669D01*
X2336469Y699812D01*
X2336102Y699946D01*
X2335732Y700071D01*
X2335359Y700187D01*
X2334983Y700294D01*
X2334605Y700392D01*
X2334225Y700481D01*
X2333843Y700561D01*
X2333458Y700631D01*
X2333073Y700692D01*
X2332685Y700744D01*
X2332297Y700787D01*
X2331908Y700820D01*
X2331518Y700843D01*
X2331128Y700857D01*
X2330737Y700862D01*
X2310219Y700862D02*
X2310219Y664492D01*
X2294055Y664492D01*
X2280760Y682677D02*
X2280751Y683392D01*
X2280726Y684108D01*
X2280683Y684822D01*
X2280623Y685535D01*
X2280547Y686246D01*
X2280453Y686955D01*
X2280342Y687662D01*
X2280215Y688366D01*
X2280071Y689067D01*
X2279910Y689764D01*
X2279732Y690458D01*
X2279539Y691146D01*
X2279328Y691830D01*
X2279102Y692509D01*
X2278859Y693182D01*
X2278600Y693849D01*
X2278325Y694510D01*
X2278035Y695164D01*
X2277729Y695811D01*
X2277668Y695982D01*
X2277603Y696152D01*
X2277533Y696320D01*
X2277460Y696486D01*
X2277383Y696651D01*
X2277301Y696813D01*
X2277216Y696974D01*
X2277127Y697132D01*
X2277034Y697289D01*
X2276937Y697442D01*
X2276836Y697594D01*
X2276732Y697743D01*
X2276624Y697889D01*
X2276513Y698033D01*
X2276398Y698174D01*
X2276280Y698313D01*
X2276159Y698448D01*
X2276034Y698580D01*
X2275906Y698709D01*
X2275775Y698835D01*
X2275641Y698958D01*
X2275504Y699078D01*
X2275364Y699194D01*
X2275221Y699307D01*
X2275076Y699416D01*
X2274928Y699522D01*
X2274778Y699624D01*
X2274625Y699722D01*
X2274469Y699817D01*
X2274312Y699908D01*
X2274152Y699995D01*
X2273990Y700078D01*
X2273827Y700157D01*
X2273661Y700232D01*
X2273494Y700303D01*
X2273325Y700370D01*
X2273154Y700433D01*
X2272982Y700491D01*
X2272808Y700546D01*
X2272634Y700596D01*
X2272458Y700642D01*
X2272281Y700684D01*
X2272103Y700721D01*
X2271924Y700754D01*
X2271744Y700783D01*
X2271564Y700807D01*
X2271383Y700827D01*
X2271202Y700842D01*
X2271021Y700853D01*
X2270839Y700860D01*
X2270657Y700862D01*
X2270475Y700860D01*
X2270293Y700853D01*
X2270112Y700842D01*
X2269931Y700827D01*
X2269750Y700807D01*
X2269570Y700783D01*
X2269390Y700754D01*
X2269211Y700721D01*
X2269033Y700684D01*
X2268856Y700642D01*
X2268681Y700596D01*
X2268506Y700546D01*
X2268332Y700491D01*
X2268160Y700433D01*
X2267989Y700370D01*
X2267820Y700303D01*
X2267653Y700232D01*
X2267487Y700157D01*
X2267324Y700078D01*
X2267162Y699995D01*
X2267002Y699908D01*
X2266845Y699817D01*
X2266689Y699722D01*
X2266536Y699624D01*
X2266386Y699522D01*
X2266238Y699416D01*
X2266093Y699307D01*
X2265950Y699194D01*
X2265810Y699078D01*
X2265673Y698958D01*
X2265539Y698836D01*
X2265408Y698709D01*
X2265280Y698580D01*
X2265155Y698448D01*
X2265034Y698313D01*
X2264916Y698174D01*
X2264801Y698033D01*
X2264690Y697890D01*
X2264582Y697743D01*
X2264478Y697594D01*
X2264377Y697443D01*
X2264280Y697289D01*
X2264187Y697132D01*
X2264098Y696974D01*
X2264013Y696813D01*
X2263932Y696651D01*
X2263854Y696486D01*
X2263781Y696320D01*
X2263711Y696152D01*
X2263646Y695982D01*
X2263585Y695811D01*
X2263586Y695811D02*
X2263280Y695164D01*
X2262990Y694510D01*
X2262715Y693849D01*
X2262456Y693182D01*
X2262214Y692509D01*
X2261987Y691830D01*
X2261777Y691146D01*
X2261583Y690458D01*
X2261405Y689764D01*
X2261244Y689067D01*
X2261100Y688366D01*
X2260973Y687662D01*
X2260862Y686955D01*
X2260768Y686246D01*
X2260692Y685535D01*
X2260632Y684822D01*
X2260589Y684108D01*
X2260564Y683392D01*
X2260555Y682677D01*
X2280760Y682677D02*
X2280751Y681962D01*
X2280726Y681246D01*
X2280683Y680532D01*
X2280623Y679819D01*
X2280547Y679108D01*
X2280453Y678398D01*
X2280342Y677692D01*
X2280215Y676987D01*
X2280071Y676287D01*
X2279910Y675589D01*
X2279732Y674896D01*
X2279539Y674208D01*
X2279328Y673524D01*
X2279102Y672845D01*
X2278859Y672172D01*
X2278600Y671505D01*
X2278325Y670844D01*
X2278035Y670190D01*
X2277729Y669543D01*
X2277668Y669372D01*
X2277603Y669202D01*
X2277533Y669034D01*
X2277460Y668868D01*
X2277382Y668703D01*
X2277301Y668541D01*
X2277216Y668380D01*
X2277127Y668222D01*
X2277034Y668065D01*
X2276937Y667911D01*
X2276836Y667760D01*
X2276732Y667611D01*
X2276624Y667464D01*
X2276513Y667321D01*
X2276398Y667180D01*
X2276280Y667041D01*
X2276159Y666906D01*
X2276034Y666774D01*
X2275906Y666645D01*
X2275775Y666518D01*
X2275641Y666396D01*
X2275504Y666276D01*
X2275364Y666160D01*
X2275221Y666047D01*
X2275076Y665938D01*
X2274928Y665832D01*
X2274778Y665730D01*
X2274625Y665632D01*
X2274469Y665537D01*
X2274312Y665446D01*
X2274152Y665359D01*
X2273990Y665276D01*
X2273827Y665197D01*
X2273661Y665122D01*
X2273494Y665051D01*
X2273325Y664984D01*
X2273154Y664921D01*
X2272982Y664863D01*
X2272808Y664808D01*
X2272633Y664758D01*
X2272458Y664712D01*
X2272281Y664670D01*
X2272103Y664633D01*
X2271924Y664600D01*
X2271744Y664571D01*
X2271564Y664547D01*
X2271383Y664527D01*
X2271202Y664512D01*
X2271021Y664501D01*
X2270839Y664494D01*
X2270657Y664492D01*
X2263586Y669543D02*
X2263280Y670190D01*
X2262990Y670844D01*
X2262715Y671505D01*
X2262456Y672172D01*
X2262214Y672845D01*
X2261987Y673524D01*
X2261777Y674208D01*
X2261583Y674896D01*
X2261405Y675589D01*
X2261244Y676287D01*
X2261100Y676987D01*
X2260973Y677692D01*
X2260862Y678398D01*
X2260768Y679108D01*
X2260692Y679819D01*
X2260632Y680532D01*
X2260589Y681246D01*
X2260564Y681962D01*
X2260555Y682677D01*
X2263585Y669543D02*
X2263646Y669372D01*
X2263711Y669202D01*
X2263781Y669034D01*
X2263854Y668868D01*
X2263932Y668703D01*
X2264013Y668541D01*
X2264098Y668380D01*
X2264187Y668222D01*
X2264280Y668065D01*
X2264377Y667911D01*
X2264478Y667760D01*
X2264582Y667611D01*
X2264690Y667464D01*
X2264801Y667321D01*
X2264916Y667180D01*
X2265034Y667041D01*
X2265155Y666906D01*
X2265280Y666774D01*
X2265408Y666644D01*
X2265539Y666518D01*
X2265673Y666396D01*
X2265810Y666276D01*
X2265950Y666160D01*
X2266093Y666047D01*
X2266238Y665938D01*
X2266386Y665832D01*
X2266537Y665730D01*
X2266689Y665632D01*
X2266845Y665537D01*
X2267002Y665446D01*
X2267162Y665359D01*
X2267324Y665276D01*
X2267487Y665197D01*
X2267653Y665122D01*
X2267820Y665051D01*
X2267990Y664984D01*
X2268160Y664921D01*
X2268332Y664863D01*
X2268506Y664808D01*
X2268681Y664758D01*
X2268856Y664712D01*
X2269033Y664670D01*
X2269211Y664633D01*
X2269390Y664600D01*
X2269570Y664571D01*
X2269750Y664547D01*
X2269931Y664527D01*
X2270112Y664512D01*
X2270293Y664501D01*
X2270475Y664494D01*
X2270657Y664492D01*
X2278740Y672574D02*
X2262575Y692780D01*
X2245327Y696821D02*
X2245327Y700862D01*
X2225122Y700862D01*
X2235225Y664492D01*
X2209894Y664492D02*
X2197771Y664492D01*
X2197771Y664493D02*
X2197573Y664495D01*
X2197374Y664503D01*
X2197176Y664515D01*
X2196979Y664532D01*
X2196782Y664554D01*
X2196585Y664580D01*
X2196389Y664612D01*
X2196194Y664648D01*
X2196000Y664689D01*
X2195807Y664735D01*
X2195615Y664786D01*
X2195425Y664841D01*
X2195236Y664901D01*
X2195048Y664965D01*
X2194862Y665035D01*
X2194678Y665108D01*
X2194496Y665186D01*
X2194316Y665269D01*
X2194137Y665356D01*
X2193961Y665447D01*
X2193787Y665543D01*
X2193616Y665643D01*
X2193447Y665747D01*
X2193281Y665855D01*
X2193117Y665967D01*
X2192957Y666083D01*
X2192799Y666204D01*
X2192644Y666327D01*
X2192492Y666455D01*
X2192344Y666587D01*
X2192198Y666722D01*
X2192056Y666860D01*
X2191918Y667002D01*
X2191783Y667147D01*
X2191651Y667296D01*
X2191524Y667448D01*
X2191400Y667603D01*
X2191280Y667760D01*
X2191163Y667921D01*
X2191051Y668085D01*
X2190943Y668251D01*
X2190839Y668420D01*
X2190739Y668591D01*
X2190643Y668765D01*
X2190552Y668941D01*
X2190465Y669119D01*
X2190382Y669300D01*
X2190304Y669482D01*
X2190231Y669666D01*
X2190162Y669852D01*
X2190097Y670040D01*
X2190037Y670229D01*
X2189982Y670419D01*
X2189931Y670611D01*
X2189885Y670804D01*
X2189844Y670998D01*
X2189808Y671193D01*
X2189777Y671389D01*
X2189750Y671585D01*
X2189728Y671783D01*
X2189711Y671980D01*
X2189699Y672178D01*
X2189691Y672376D01*
X2189689Y672575D01*
X2189689Y672574D02*
X2189689Y676615D01*
X2189691Y676810D01*
X2189698Y677005D01*
X2189710Y677200D01*
X2189727Y677395D01*
X2189748Y677589D01*
X2189774Y677783D01*
X2189804Y677976D01*
X2189840Y678168D01*
X2189879Y678359D01*
X2189924Y678549D01*
X2189973Y678738D01*
X2190026Y678926D01*
X2190085Y679112D01*
X2190147Y679298D01*
X2190214Y679481D01*
X2190286Y679663D01*
X2190361Y679843D01*
X2190442Y680021D01*
X2190526Y680197D01*
X2190615Y680371D01*
X2190708Y680543D01*
X2190805Y680712D01*
X2190906Y680879D01*
X2191011Y681044D01*
X2191120Y681206D01*
X2191233Y681366D01*
X2191349Y681522D01*
X2191470Y681676D01*
X2191594Y681827D01*
X2191722Y681974D01*
X2191853Y682119D01*
X2191988Y682260D01*
X2192126Y682399D01*
X2192267Y682533D01*
X2192412Y682665D01*
X2192559Y682792D01*
X2192710Y682916D01*
X2192864Y683037D01*
X2193021Y683154D01*
X2193180Y683266D01*
X2193342Y683375D01*
X2193507Y683480D01*
X2193674Y683581D01*
X2193843Y683678D01*
X2194015Y683771D01*
X2194189Y683860D01*
X2194365Y683944D01*
X2194543Y684025D01*
X2194723Y684100D01*
X2194905Y684172D01*
X2195089Y684239D01*
X2195274Y684301D01*
X2195460Y684360D01*
X2195648Y684413D01*
X2195837Y684462D01*
X2196027Y684507D01*
X2196218Y684546D01*
X2196410Y684582D01*
X2196603Y684612D01*
X2196797Y684638D01*
X2196991Y684659D01*
X2197186Y684676D01*
X2197381Y684688D01*
X2197576Y684695D01*
X2197771Y684697D01*
X2197771Y684698D02*
X2209894Y684698D01*
X2209894Y700862D01*
X2189689Y700862D01*
X2159820Y704903D02*
X2175984Y660451D01*
X2146115Y692780D02*
X2136012Y700862D01*
X2136012Y664492D01*
X2146115Y664492D02*
X2125909Y664492D01*
X2110682Y684698D02*
X2098559Y684698D01*
X2098559Y684697D02*
X2098361Y684695D01*
X2098162Y684687D01*
X2097964Y684675D01*
X2097767Y684658D01*
X2097570Y684636D01*
X2097373Y684610D01*
X2097177Y684578D01*
X2096982Y684542D01*
X2096788Y684501D01*
X2096595Y684455D01*
X2096403Y684404D01*
X2096213Y684349D01*
X2096024Y684289D01*
X2095836Y684225D01*
X2095650Y684155D01*
X2095466Y684082D01*
X2095284Y684004D01*
X2095104Y683921D01*
X2094925Y683834D01*
X2094749Y683743D01*
X2094575Y683647D01*
X2094404Y683547D01*
X2094235Y683443D01*
X2094069Y683335D01*
X2093905Y683223D01*
X2093745Y683107D01*
X2093587Y682986D01*
X2093432Y682863D01*
X2093280Y682735D01*
X2093132Y682603D01*
X2092986Y682468D01*
X2092844Y682330D01*
X2092706Y682188D01*
X2092571Y682043D01*
X2092439Y681894D01*
X2092312Y681742D01*
X2092188Y681587D01*
X2092068Y681430D01*
X2091951Y681269D01*
X2091839Y681105D01*
X2091731Y680939D01*
X2091627Y680770D01*
X2091527Y680599D01*
X2091431Y680425D01*
X2091340Y680249D01*
X2091253Y680071D01*
X2091170Y679890D01*
X2091092Y679708D01*
X2091019Y679524D01*
X2090949Y679338D01*
X2090885Y679150D01*
X2090825Y678961D01*
X2090770Y678771D01*
X2090719Y678579D01*
X2090673Y678386D01*
X2090632Y678192D01*
X2090596Y677997D01*
X2090564Y677801D01*
X2090538Y677604D01*
X2090516Y677407D01*
X2090499Y677210D01*
X2090487Y677012D01*
X2090479Y676813D01*
X2090477Y676615D01*
X2090476Y676615D02*
X2090476Y674595D01*
X2090479Y674349D01*
X2090488Y674103D01*
X2090503Y673858D01*
X2090524Y673612D01*
X2090551Y673368D01*
X2090584Y673124D01*
X2090622Y672881D01*
X2090667Y672639D01*
X2090718Y672398D01*
X2090774Y672159D01*
X2090836Y671921D01*
X2090904Y671684D01*
X2090978Y671450D01*
X2091058Y671217D01*
X2091143Y670986D01*
X2091233Y670757D01*
X2091330Y670531D01*
X2091431Y670307D01*
X2091538Y670085D01*
X2091651Y669866D01*
X2091769Y669650D01*
X2091892Y669437D01*
X2092020Y669227D01*
X2092153Y669020D01*
X2092291Y668817D01*
X2092435Y668617D01*
X2092583Y668420D01*
X2092735Y668227D01*
X2092893Y668038D01*
X2093055Y667853D01*
X2093221Y667672D01*
X2093392Y667495D01*
X2093567Y667322D01*
X2093746Y667153D01*
X2093929Y666989D01*
X2094116Y666829D01*
X2094307Y666674D01*
X2094502Y666524D01*
X2094700Y666378D01*
X2094902Y666238D01*
X2095108Y666102D01*
X2095316Y665971D01*
X2095528Y665846D01*
X2095742Y665725D01*
X2095959Y665610D01*
X2096180Y665500D01*
X2096402Y665396D01*
X2096628Y665297D01*
X2096855Y665203D01*
X2097085Y665115D01*
X2097317Y665033D01*
X2097551Y664957D01*
X2097786Y664886D01*
X2098024Y664821D01*
X2098262Y664761D01*
X2098503Y664708D01*
X2098744Y664660D01*
X2098986Y664618D01*
X2099230Y664582D01*
X2099474Y664553D01*
X2099719Y664529D01*
X2099964Y664511D01*
X2100210Y664499D01*
X2100456Y664493D01*
X2100702Y664493D01*
X2100948Y664499D01*
X2101194Y664511D01*
X2101439Y664529D01*
X2101684Y664553D01*
X2101928Y664582D01*
X2102172Y664618D01*
X2102414Y664660D01*
X2102655Y664708D01*
X2102896Y664761D01*
X2103134Y664821D01*
X2103372Y664886D01*
X2103607Y664957D01*
X2103841Y665033D01*
X2104073Y665115D01*
X2104303Y665203D01*
X2104530Y665297D01*
X2104756Y665396D01*
X2104978Y665500D01*
X2105199Y665610D01*
X2105416Y665725D01*
X2105631Y665846D01*
X2105842Y665971D01*
X2106050Y666102D01*
X2106256Y666238D01*
X2106458Y666378D01*
X2106656Y666524D01*
X2106851Y666674D01*
X2107042Y666829D01*
X2107229Y666989D01*
X2107412Y667153D01*
X2107591Y667322D01*
X2107766Y667495D01*
X2107937Y667672D01*
X2108103Y667853D01*
X2108265Y668038D01*
X2108423Y668227D01*
X2108575Y668420D01*
X2108723Y668617D01*
X2108867Y668817D01*
X2109005Y669020D01*
X2109138Y669227D01*
X2109266Y669437D01*
X2109389Y669650D01*
X2109507Y669866D01*
X2109620Y670085D01*
X2109727Y670307D01*
X2109828Y670531D01*
X2109925Y670757D01*
X2110015Y670986D01*
X2110100Y671217D01*
X2110180Y671450D01*
X2110254Y671684D01*
X2110322Y671921D01*
X2110384Y672159D01*
X2110440Y672398D01*
X2110491Y672639D01*
X2110536Y672881D01*
X2110574Y673124D01*
X2110607Y673368D01*
X2110634Y673612D01*
X2110655Y673858D01*
X2110670Y674103D01*
X2110679Y674349D01*
X2110682Y674595D01*
X2110682Y684698D01*
X2110677Y685089D01*
X2110663Y685479D01*
X2110640Y685869D01*
X2110607Y686258D01*
X2110564Y686646D01*
X2110512Y687034D01*
X2110451Y687419D01*
X2110381Y687804D01*
X2110301Y688186D01*
X2110212Y688566D01*
X2110114Y688944D01*
X2110007Y689320D01*
X2109891Y689693D01*
X2109766Y690063D01*
X2109632Y690430D01*
X2109489Y690793D01*
X2109337Y691153D01*
X2109177Y691510D01*
X2109008Y691862D01*
X2108831Y692210D01*
X2108645Y692553D01*
X2108451Y692892D01*
X2108249Y693227D01*
X2108039Y693556D01*
X2107821Y693880D01*
X2107595Y694199D01*
X2107362Y694512D01*
X2107121Y694820D01*
X2106872Y695121D01*
X2106617Y695417D01*
X2106354Y695706D01*
X2106085Y695989D01*
X2105809Y696265D01*
X2105526Y696534D01*
X2105237Y696797D01*
X2104941Y697052D01*
X2104640Y697301D01*
X2104332Y697542D01*
X2104019Y697775D01*
X2103700Y698001D01*
X2103376Y698219D01*
X2103047Y698429D01*
X2102712Y698631D01*
X2102373Y698825D01*
X2102030Y699011D01*
X2101682Y699188D01*
X2101330Y699357D01*
X2100973Y699517D01*
X2100613Y699669D01*
X2100250Y699812D01*
X2099883Y699946D01*
X2099513Y700071D01*
X2099140Y700187D01*
X2098764Y700294D01*
X2098386Y700392D01*
X2098006Y700481D01*
X2097624Y700561D01*
X2097239Y700631D01*
X2096854Y700692D01*
X2096466Y700744D01*
X2096078Y700787D01*
X2095689Y700820D01*
X2095299Y700843D01*
X2094909Y700857D01*
X2094518Y700862D01*
M02*
